<svg width="398" height="62" xmlns="http://www.w3.org/2000/svg" xmlns:xlink="http://www.w3.org/1999/xlink" xml:space="preserve" overflow="hidden"><defs><clipPath id="clip0"><rect x="0" y="0" width="398" height="62"/></clipPath></defs><g clip-path="url(#clip0)"><path d="M0.489288 6.10547C0.503471 6.14802 0.517652 6.20475 0.531835 6.27566 0.546018 6.34656 0.581473 6.50258 0.638202 6.74367 0.694932 6.98476 0.765843 7.2046 0.850936 7.40315 0.93603 7.60169 1.0424 7.8357 1.17004 8.10517 1.29768 8.37464 1.4395 8.58737 1.59551 8.74337 1.75151 8.89937 1.93588 9.05539 2.14861 9.21139 2.36135 9.36739 2.59536 9.43121 2.85064 9.40285 3.91431 9.40285 4.59506 8.94902 4.89288 8.04135L5.10562 8.23281C5.98491 9.01284 6.82168 9.40285 7.61588 9.40285 8.53772 9.40285 9.26102 9.06956 9.78577 8.403 10.3105 7.73644 10.5729 6.92805 10.5729 5.97783 10.5729 4.44614 10.034 3.03501 8.95611 1.74442 7.87825 0.453832 6.65858-0.198552 5.29708-0.212734 4.98506-0.212734 4.70851-0.170187 4.46742-0.0850936 4.31142-0.0141823 4.14832 0.0921847 3.97813 0.234008 3.80794 0.375831 3.67322 0.496379 3.57393 0.595656L3.42502 0.765843C3.41083 0.75166 3.25483 0.134732 2.957-1.08494 2.65918-2.30461 2.51026-2.92154 2.51026-2.93573 2.51026-3.02082 2.567-3.07046 2.68045-3.08464 2.7939-3.09883 3.05629-3.12011 3.46757-3.14846L3.9994-3.14846C4.0845-3.24775 4.12704-3.31157 4.12704-3.33993 4.12704-3.36828 4.10577-3.49592 4.06322-3.72285 4.02067-3.89303 3.97813-3.9994 3.93558-4.04195 3.89303-4.0845 3.80086-4.11285 3.65903-4.12704 3.63067-4.12704 3.55266-4.12704 3.42502-4.12704 3.29738-4.12704 3.05629-4.11996 2.70172-4.10577 2.34716-4.09158 1.90752-4.0845 1.38277-4.0845 0.390012-4.0845-0.241098-4.09868-0.510562-4.12704L-0.680749-4.12704C-0.780026-4.02776-0.829663-3.94977-0.829663-3.89303-0.801299-3.51011-0.709113-3.26192-0.553109-3.14846L-0.12764-3.14846C0.354558-3.13428 0.631112-3.04918 0.702023-2.89318 0.744569-2.80809 1.17713-1.11331 1.9997 2.19116 2.82228 5.49562 3.25483 7.24715 3.29738 7.44569 3.31157 7.5166 3.31865 7.61588 3.31865 7.74352 3.31865 8.32499 3.14138 8.61573 2.78682 8.61573 2.4748 8.61573 2.21243 8.41719 1.9997 8.02008 1.78697 7.62297 1.62387 7.19041 1.51041 6.7224 1.39695 6.25438 1.31186 5.9991 1.25513 5.95656 1.22677 5.9282 1.11331 5.91401 0.914757 5.91401L0.616929 5.91401C0.531835 5.9991 0.489288 6.06292 0.489288 6.10547ZM3.78667 2.16989C4.09868 1.09203 4.62341 0.553109 5.3609 0.553109 5.78637 0.553109 6.19765 0.716206 6.59476 1.0424 6.99187 1.36859 7.31805 1.77988 7.57333 2.27626 7.82862 2.75846 8.0839 3.5243 8.33918 4.57378 8.59446 5.62326 8.72918 6.4033 8.74337 6.91386L8.74337 7.0415C8.74337 8.09098 8.31082 8.61573 7.44569 8.61573 7.2897 8.61573 7.13368 8.59446 6.97768 8.55191 6.82168 8.50937 6.66566 8.44554 6.50966 8.36045 6.35367 8.27536 6.21184 8.18318 6.0842 8.0839 5.95656 7.98461 5.836 7.87825 5.72255 7.7648 5.6091 7.65134 5.50273 7.54498 5.40345 7.44569 5.30416 7.34641 5.22618 7.24715 5.16944 7.14787 5.1127 7.04858 5.05599 6.97768 4.99925 6.93513L4.93543 6.85004C4.93543 6.83585 4.91416 6.73659 4.87161 6.55221 4.82906 6.36783 4.75105 6.05584 4.6376 5.61618 4.52415 5.17652 4.42487 4.80779 4.33978 4.50996 3.97104 3.00663 3.78667 2.22662 3.78667 2.16989Z" transform="matrix(1 0 0 -1.20021 -3.33683e-14 37.3831)"/><path d="M1.9997 5.31835C1.9997 6.29693 2.07061 7.22588 2.21243 8.10517 2.35426 8.98446 2.51735 9.74322 2.70172 10.3814 2.8861 11.0196 3.14846 11.6436 3.48884 12.2535 3.82921 12.8633 4.09868 13.3384 4.29723 13.6788 4.49577 14.0192 4.7936 14.3879 5.19071 14.785 5.58782 15.1821 5.82183 15.4232 5.89274 15.5083 5.96364 15.5934 6.14093 15.7423 6.42457 15.9551L6.70112 15.9551 6.78622 15.9551C6.98476 15.9551 7.08405 15.8912 7.08405 15.7636 7.08405 15.7211 6.96349 15.5721 6.7224 15.3169 6.48131 15.0616 6.19056 14.6857 5.85019 14.1894 5.50981 13.693 5.16235 13.0831 4.80779 12.3599 4.45323 11.6366 4.1554 10.658 3.91431 9.42412 3.67322 8.19026 3.55266 6.82168 3.55266 5.31835 3.55266 3.81502 3.67322 2.45353 3.91431 1.23386 4.1554 0.0141823 4.44614-0.971487 4.78652-1.72315 5.12689-2.4748 5.47435-3.08464 5.82891-3.55266 6.18348-4.02067 6.48131-4.39651 6.7224-4.68015 6.96349-4.96379 7.08405-5.1127 7.08405-5.12689 7.08405-5.25453 6.97768-5.31835 6.76495-5.31835L6.70112-5.31835 6.42457-5.31835 5.82891-4.80779C4.49577-3.60229 3.5243-2.09898 2.91446-0.297828 2.30461 1.50332 1.9997 3.37539 1.9997 5.31835Z" transform="matrix(1 0 0 -1.20021 10.7005 37.3831)"/><path d="M2.78682 6.14802C2.78682 6.60184 2.90027 7.06277 3.12719 7.53079 3.35412 7.9988 3.7512 8.43136 4.3185 8.82847 4.8858 9.22558 5.57363 9.41704 6.38202 9.40285 7.26132 9.40285 7.89952 9.21139 8.29663 8.82847 8.69374 8.44554 8.89937 8.02008 8.91356 7.55206 8.91356 7.09824 8.793 6.76495 8.55191 6.55221 8.31082 6.33948 8.04135 6.22603 7.74352 6.21184 7.55915 6.21184 7.38896 6.26857 7.23296 6.38202 7.07696 6.49547 6.99187 6.67985 6.97768 6.93513 6.97768 7.16206 7.0415 7.3606 7.16914 7.53079 7.29678 7.70097 7.41734 7.82862 7.53079 7.91371 7.64424 7.9988 7.73644 8.04135 7.80734 8.04135 7.82153 8.04135 7.82862 8.04843 7.82862 8.06262 7.82862 8.10517 7.77898 8.16899 7.6797 8.25408 7.58042 8.33918 7.40315 8.41719 7.14787 8.48809 6.89259 8.559 6.61603 8.60154 6.3182 8.61573 5.63745 8.61573 5.14108 8.43136 4.82906 8.06262 4.51705 7.69389 4.35397 7.31805 4.33978 6.93513 4.33978 6.58057 4.4745 6.33239 4.74397 6.19056 5.01344 6.04873 5.40345 5.9282 5.91401 5.82891 6.42457 5.72963 6.7933 5.62326 7.02023 5.50981 7.95626 5.09854 8.42427 4.41779 8.42427 3.46757 8.42427 3.07046 8.34626 2.67337 8.19026 2.27626 8.03427 1.87915 7.80026 1.48205 7.48824 1.08494 7.17622 0.68784 6.72948 0.375831 6.14802 0.148914 5.56655-0.0780026 4.89997-0.198552 4.14832-0.212734 3.05629-0.212734 2.28334-0.00709113 1.82951 0.404195 1.37568 0.81548 1.14167 1.29768 1.12749 1.85079 1.12749 2.4039 1.2764 2.80101 1.57423 3.0421 1.87206 3.28319 2.18408 3.40375 2.51026 3.40375 2.723 3.40375 2.92154 3.33993 3.10592 3.21229 3.29029 3.08464 3.38956 2.86483 3.40375 2.55281 3.40375 2.18408 3.27611 1.87206 3.02082 1.61678 2.76554 1.3615 2.54573 1.23386 2.36135 1.23386 2.33299 1.21967 2.31172 1.21258 2.29753 1.21258 2.28334 1.21258 2.27626 1.1984 2.27626 1.17004 2.29044 1.12749 2.34716 1.07076 2.44644 0.99985 2.54573 0.92894 2.76554 0.836754 3.10592 0.723296 3.44629 0.609839 3.8363 0.560199 4.27596 0.574382 4.78652 0.574382 5.22618 0.652385 5.59491 0.80839 5.96364 0.964394 6.23311 1.16295 6.4033 1.40405 6.57348 1.64514 6.69404 1.86497 6.76495 2.06352 6.83585 2.26207 6.87131 2.43936 6.87131 2.59536 6.87131 2.99247 6.7224 3.29029 6.42457 3.48884 6.12674 3.68738 5.78637 3.80794 5.40345 3.85049 5.02052 3.89303 4.60214 3.9994 4.14832 4.16959 3.69449 4.33978 3.3612 4.58797 3.14846 4.91416 2.90737 5.26872 2.78682 5.68 2.78682 6.14802Z" transform="matrix(1 0 0 -1.20021 18.9759 37.3831)"/><path d="M1.65933 0.744569C1.65933 0.744569 1.65933 0.921847 1.65933 1.2764 1.65933 1.63096 1.77278 1.93588 1.9997 2.19116 2.22662 2.44644 2.53154 2.57408 2.91446 2.57408 3.31157 2.57408 3.66611 2.39681 3.97813 2.04225 4.29015 1.68769 4.45323 1.06367 4.46742 0.170187 4.46742-0.326192 4.4036-0.80839 4.27596-1.2764 4.14832-1.74442 3.9994-2.14861 3.82921-2.48899 3.65903-2.82936 3.47465-3.12011 3.27611-3.3612 3.07756-3.60229 2.90737-3.79375 2.76554-3.93558 2.62371-4.07741 2.53154-4.14123 2.48899-4.12704 2.43225-4.12704 2.34008-4.06322 2.21243-3.93558 2.08479-3.80794 2.02097-3.71576 2.02097-3.65903 2.02097-3.60229 2.09898-3.48884 2.25498-3.31865 2.41098-3.14846 2.58827-2.93573 2.78682-2.68045 2.98536-2.42517 3.16974-2.07061 3.33993-1.61678 3.51011-1.16295 3.62356-0.645293 3.6803-0.0638202L3.6803 0.191461 3.65903 0.170187C3.63067 0.156005 3.59521 0.141823 3.55266 0.12764 3.51011 0.113458 3.46757 0.0921847 3.42502 0.0638202 3.38247 0.0354558 3.31865 0.0212734 3.23356 0.0212734 3.14846 0.0212734 3.06337 0.0141823 2.97828 0 2.59536 0 2.28334 0.120549 2.04225 0.361648Z" transform="matrix(1 0 0 -1.20021 28.9531 37.3831)"/><path d="M0.723296 3.38247C0.723296 4.92835 1.33313 6.3182 2.55281 7.55206 3.77248 8.78592 5.09143 9.40285 6.50966 9.40285 7.30386 9.40285 7.9279 9.23266 8.38172 8.89229 8.83555 8.55191 9.06956 8.10517 9.08375 7.55206 9.08375 7.14078 8.94902 6.7933 8.67955 6.50966 8.41008 6.22603 8.06971 6.07711 7.65843 6.06292 7.38896 6.06292 7.17622 6.13383 7.02023 6.27566 6.86423 6.41749 6.78622 6.63022 6.78622 6.91386 6.78622 7.1975 6.86423 7.43861 7.02023 7.63716 7.17622 7.8357 7.33224 7.98461 7.48824 8.0839 7.64424 8.18318 7.74352 8.22573 7.78607 8.21154L7.80734 8.21154C7.80734 8.23989 7.7648 8.28244 7.6797 8.33918 7.59461 8.39591 7.44569 8.45263 7.23296 8.50937 7.02023 8.5661 6.77913 8.59446 6.50966 8.59446 6.0842 8.59446 5.68 8.49518 5.29708 8.29663 4.99925 8.16899 4.69434 7.94917 4.38232 7.63716 3.75831 7.01314 3.30446 6.13383 3.02082 4.99925 2.73719 3.86468 2.58827 3.0421 2.57408 2.53154 2.57408 1.87915 2.75846 1.38986 3.12719 1.06367 3.43921 0.723296 3.85049 0.553109 4.36105 0.553109L4.44614 0.553109C6.03456 0.553109 7.34641 1.15585 8.38172 2.36135 8.50937 2.50318 8.59446 2.57408 8.637 2.57408 8.69374 2.57408 8.78592 2.51026 8.91356 2.38262 9.0412 2.25498 9.1121 2.1557 9.12629 2.08479 9.14048 2.01388 9.07666 1.90752 8.93483 1.76569 8.793 1.62387 8.58737 1.42532 8.3179 1.17004 8.04843 0.914757 7.72933 0.702023 7.3606 0.531835 6.99187 0.361648 6.53802 0.18437 5.9991 0 5.46018-0.18437 4.89288-0.262371 4.29723-0.234008 3.23356-0.234008 2.37554 0.106367 1.72315 0.787116 1.07076 1.46787 0.737479 2.33299 0.723296 3.38247Z" transform="matrix(1 0 0 -1.20021 38.4134 37.3831)"/><path d="M0.702023 3.33993C0.702023 4.77233 1.24095 6.13383 2.3188 7.42442 3.39666 8.71501 4.60925 9.36739 5.95656 9.38157 6.67985 9.38157 7.31805 9.03412 7.87116 8.33918 8.09809 8.76465 8.42427 8.97738 8.84974 8.97738 9.03412 8.97738 9.1972 8.92064 9.33903 8.80719 9.48086 8.69374 9.55176 8.55191 9.55176 8.38172 9.55176 8.19735 9.2894 7.06277 8.76465 4.97798 8.23989 2.89318 7.97045 1.71606 7.95626 1.44659 7.95626 1.09203 8.00589 0.858027 8.10517 0.744569 8.20445 0.631112 8.35337 0.567292 8.55191 0.553109 8.67955 0.567292 8.82138 0.631112 8.97738 0.744569 9.27521 1.02821 9.56595 1.70896 9.84959 2.78682 9.93468 3.07046 10.0056 3.21937 10.0623 3.23356 10.0907 3.24775 10.1616 3.25483 10.2751 3.25483L10.3602 3.25483C10.6296 3.25483 10.7643 3.19101 10.7643 3.06337 10.7643 2.97828 10.7289 2.78682 10.658 2.48899 10.5871 2.19116 10.4452 1.80824 10.2325 1.34022 10.0198 0.87221 9.79285 0.517652 9.55176 0.276554 9.36739 0.0921847 9.14048-0.0567292 8.87101-0.170187 8.75756-0.198552 8.58737-0.212734 8.36045-0.212734 7.87825-0.212734 7.47405-0.106367 7.14787 0.106367 6.82168 0.319101 6.60895 0.538926 6.50966 0.765843L6.38202 1.08494C6.36783 1.09913 6.33948 1.09203 6.29693 1.06367 6.26857 1.03531 6.24019 1.00694 6.21184 0.978577 5.37509 0.18437 4.52415-0.212734 3.65903-0.212734 2.87899-0.212734 2.19116 0.0709113 1.59551 0.638202 0.99985 1.20549 0.702023 2.10607 0.702023 3.33993ZM7.46697 6.97768C7.46697 7.06277 7.4315 7.21877 7.3606 7.44569 7.2897 7.67262 7.12659 7.92079 6.87131 8.19026 6.61603 8.45973 6.28985 8.60154 5.89274 8.61573 5.39636 8.61573 4.92124 8.39591 4.46742 7.95626 4.01359 7.5166 3.65903 6.94222 3.40375 6.23311 2.99247 5.1127 2.70172 3.94977 2.53154 2.74427 2.53154 2.70172 2.53154 2.62371 2.53154 2.51026 2.53154 2.39681 2.52445 2.31172 2.51026 2.25498 2.51026 1.61678 2.6379 1.17713 2.89318 0.93603 3.14846 0.694932 3.45338 0.567292 3.80794 0.553109 4.34686 0.553109 4.8787 0.787116 5.40345 1.25513 5.9282 1.72315 6.24019 2.08479 6.33948 2.34008 6.36783 2.39681 6.5593 3.15555 6.91386 4.61633 7.26842 6.07711 7.45278 6.86423 7.46697 6.97768Z" transform="matrix(1 0 0 -1.20021 47.6248 37.3831)"/><path d="M0.553109 8.19026C0.453832 8.28955 0.404195 8.36045 0.404195 8.403 0.404195 8.45973 0.425468 8.57318 0.468015 8.74337 0.510562 8.91356 0.546018 9.01284 0.574382 9.0412 0.602746 9.1121 0.666566 9.14757 0.765843 9.14757 0.865119 9.14757 1.22677 9.15465 1.85079 9.16884L2.97828 9.16884 3.38247 10.8707C3.42502 11.0267 3.47465 11.2324 3.53139 11.4876 3.58812 11.7429 3.63775 11.9273 3.6803 12.0408 3.72285 12.1542 3.76539 12.296 3.80794 12.4662 3.85049 12.6364 3.90722 12.757 3.97813 12.8279 4.04903 12.8988 4.11996 12.9839 4.19086 13.0831 4.26177 13.1824 4.36105 13.2463 4.48869 13.2746 4.61633 13.303 4.74397 13.3172 4.87161 13.3172 5.12689 13.303 5.30416 13.225 5.40345 13.0831 5.50273 12.9413 5.55236 12.8066 5.55236 12.679 5.55236 12.5797 5.48854 12.2464 5.3609 11.6791 5.23326 11.1118 5.09143 10.5516 4.93543 9.9985L4.7227 9.21139C4.7227 9.18303 5.07726 9.16884 5.78637 9.16884L6.87131 9.16884C6.97059 9.06956 7.02023 8.99157 7.02023 8.93483 7.02023 8.62282 6.92805 8.37464 6.74367 8.19026L4.46742 8.19026 3.70157 5.10562C3.14846 2.83645 2.87191 1.61678 2.87191 1.44659 2.87191 0.850936 3.06337 0.553109 3.44629 0.553109 3.94267 0.553109 4.42487 0.794207 4.89288 1.2764 5.3609 1.7586 5.73674 2.35426 6.02038 3.06337 6.04873 3.14846 6.0842 3.1981 6.12674 3.21229 6.16929 3.22647 6.27566 3.24064 6.44584 3.25483L6.53094 3.25483C6.74367 3.25483 6.85004 3.1981 6.85004 3.08464 6.85004 3.0421 6.82877 2.957 6.78622 2.82936 6.71531 2.60244 6.58767 2.33299 6.4033 2.02097 6.21892 1.70896 5.97783 1.37568 5.68 1.02112 5.38217 0.666566 5.02052 0.368738 4.59506 0.12764 4.16959-0.113458 3.73704-0.234008 3.29738-0.234008 2.87191-0.234008 2.46772-0.12764 2.08479 0.0850936 1.70187 0.297828 1.42532 0.666566 1.25513 1.19131 1.22677 1.30477 1.21258 1.49623 1.21258 1.76569L1.21258 2.14861 1.95715 5.12689C2.45353 7.12659 2.70881 8.13353 2.723 8.14772 2.723 8.17607 2.36135 8.19026 1.63805 8.19026L0.553109 8.19026Z" transform="matrix(1 0 0 -1.20021 58.8784 37.3831)"/><path d="M0.829663 3.57393C0.829663 4.38232 0.964394 5.11981 1.23386 5.78637 1.50332 6.45293 1.85079 7.00604 2.27626 7.44569 2.70172 7.88535 3.17682 8.25408 3.70157 8.55191 4.22633 8.84974 4.7227 9.06956 5.19071 9.21139 5.65873 9.35322 6.10547 9.41704 6.53094 9.40285L6.59476 9.40285C7.23296 9.40285 7.78607 9.24685 8.25408 8.93483 8.7221 8.62282 8.95611 8.16191 8.95611 7.55206 8.95611 6.27566 8.16899 5.43891 6.59476 5.0418 5.89982 4.85742 4.94962 4.75816 3.74412 4.74397 3.21937 4.74397 2.94992 4.72978 2.93573 4.70142 2.93573 4.67307 2.89318 4.42487 2.80809 3.95685 2.723 3.48884 2.67337 3.07756 2.65918 2.723 2.65918 2.05643 2.80809 1.53169 3.10592 1.14876 3.40375 0.765843 3.85049 0.567292 4.44614 0.553109 5.0418 0.538926 5.70127 0.673659 6.42457 0.957304 7.14787 1.24095 7.80026 1.70896 8.38172 2.36135 8.50937 2.50318 8.59446 2.57408 8.637 2.57408 8.69374 2.57408 8.78592 2.51026 8.91356 2.38262 9.0412 2.25498 9.1121 2.1557 9.12629 2.08479 9.14048 2.01388 9.07666 1.90042 8.93483 1.74442 8.793 1.58842 8.58027 1.39695 8.29663 1.17004 8.01299 0.943121 7.68679 0.723296 7.31805 0.510562 6.94932 0.297828 6.50258 0.120549 5.97783-0.0212734 5.45308-0.163096 4.91416-0.234008 4.36105-0.234008 3.24064-0.234008 2.37554 0.141823 1.76569 0.893483 1.15585 1.64514 0.843846 2.53862 0.829663 3.57393ZM7.93498 7.50951C7.84989 8.247 7.36768 8.61573 6.48839 8.61573 6.02038 8.61573 5.58782 8.51645 5.19071 8.3179 4.7936 8.11936 4.4745 7.87825 4.23341 7.59461 3.99232 7.31097 3.78667 7.02023 3.61648 6.7224 3.44629 6.42457 3.33284 6.16929 3.27611 5.95656 3.21937 5.74382 3.18393 5.6091 3.16974 5.55236 3.16974 5.53817 3.31157 5.53109 3.59521 5.53109 5.1978 5.53109 6.3182 5.70127 6.95641 6.04165 7.59461 6.38202 7.92079 6.87131 7.93498 7.50951Z" transform="matrix(1 0 0 -1.20021 66.5581 37.3831)"/><path d="M1.2764 15.9338 1.3615 15.9551C1.43241 15.9551 1.50332 15.9551 1.57423 15.9551L1.82951 15.9551 2.42517 15.4445C3.75831 14.239 4.72978 12.7357 5.33963 10.9345 5.94947 9.13338 6.25438 7.26132 6.25438 5.31835 6.25438 4.35397 6.18348 3.42502 6.04165 2.53154 5.89982 1.63805 5.73674 0.8793 5.55236 0.255281 5.36798-0.368738 5.10562-0.99276 4.76524-1.61678 4.42487-2.24079 4.1554-2.71591 3.95685-3.0421 3.75831-3.36828 3.46757-3.72993 3.08464-4.12704 2.70172-4.52415 2.4748-4.75816 2.4039-4.82906 2.33299-4.89997 2.16989-5.03471 1.91461-5.23326 1.87206-5.27581 1.8437-5.30416 1.82951-5.31835L1.57423-5.31835C1.46078-5.31835 1.38277-5.31835 1.34022-5.31835 1.29768-5.31835 1.26222-5.29708 1.23386-5.25453 1.20549-5.21199 1.18422-5.14817 1.17004-5.06307 1.18422-5.04888 1.26222-4.95671 1.40405-4.78652 3.60229-2.50318 4.70142 0.865119 4.70142 5.31835 4.70142 9.77158 3.60229 13.1399 1.40405 15.4232 1.26222 15.5934 1.18422 15.6856 1.17004 15.6998 1.17004 15.8132 1.20549 15.8912 1.2764 15.9338Z" transform="matrix(1 0 0 -1.20021 76.4715 37.3831)"/><path d="M1.19131 7.38187C1.19131 7.56625 1.29059 7.70806 1.48914 7.80734L15.0403 7.80734C15.253 7.69389 15.3594 7.55206 15.3594 7.38187 15.3594 7.22588 15.2601 7.09113 15.0616 6.97768L8.29663 6.95641 1.53169 6.95641C1.30477 7.02731 1.19131 7.16914 1.19131 7.38187ZM1.19131 3.25483C1.19131 3.46757 1.30477 3.6094 1.53169 3.6803L15.0616 3.6803C15.2601 3.53847 15.3594 3.39666 15.3594 3.25483 15.3594 3.07046 15.253 2.92865 15.0403 2.82936L1.48914 2.82936C1.29059 2.92865 1.19131 3.07046 1.19131 3.25483Z" transform="matrix(1 0 0 -1.20021 90.6545 37.3831)"/><path d="M4.97798 13.5512C4.93543 13.5512 4.8787 13.5512 4.80779 13.5512 4.45323 13.5512 4.24049 13.5582 4.16959 13.5724 4.09868 13.5866 4.06322 13.6646 4.06322 13.8064 4.06322 14.1894 4.14123 14.4234 4.29723 14.5085 4.32559 14.5227 5.01344 14.5297 6.36075 14.5297 7.45278 14.5297 8.07681 14.5297 8.23281 14.5297 8.38881 14.5297 8.48809 14.4872 8.53064 14.4021 11.5231 7.36768 13.0477 3.75831 13.1044 3.57393L14.2532 8.10517C15.0048 11.0976 15.3807 12.6931 15.3807 12.8917 15.3807 13.2746 14.9269 13.4944 14.0192 13.5512 13.6788 13.5512 13.5086 13.6292 13.5086 13.7852 13.5086 13.8135 13.5228 13.8986 13.5512 14.0405 13.6079 14.2674 13.6504 14.4021 13.6788 14.4446 13.7072 14.4872 13.7781 14.5156 13.8915 14.5297 13.9341 14.5297 14.1539 14.5227 14.551 14.5085 14.9481 14.4943 15.5367 14.4801 16.3167 14.4659 17.0258 14.4659 17.5648 14.473 17.9335 14.4872 18.3022 14.5014 18.515 14.5085 18.5717 14.5085 18.7844 14.5085 18.8908 14.4376 18.8908 14.2957 18.8908 13.9837 18.8341 13.771 18.7206 13.6575 18.6922 13.5866 18.5362 13.5512 18.2526 13.5512 17.2457 13.4944 16.6145 13.2108 16.3593 12.7002L13.1895 0.148914C13.1612 0.0496379 13.0122 0 12.7428 0 12.5442 0 12.4237 0.0141823 12.3811 0.0425468 12.3386 0.0850936 11.4238 2.23371 9.63686 6.48839L6.93513 12.8491 5.55236 7.31805C4.63052 3.68738 4.16959 1.80824 4.16959 1.6806 4.24049 1.21258 4.75105 0.978577 5.70127 0.978577L5.91401 0.978577C5.9991 0.907666 6.04165 0.850936 6.04165 0.80839 6.04165 0.765843 6.02746 0.631112 5.9991 0.404195 5.94237 0.219825 5.87146 0.0850936 5.78637 0L5.50981 0C5.07016 0.0283645 4.30431 0.0425468 3.21229 0.0425468 2.81517 0.0425468 2.45353 0.0425468 2.12734 0.0425468 1.80115 0.0425468 1.53878 0.0425468 1.34022 0.0425468 1.14167 0.0425468 1.02112 0.0354558 0.978577 0.0212734 0.765843 0.0212734 0.659476 0.0850936 0.659476 0.212734 0.659476 0.269464 0.680749 0.382921 0.723296 0.553109 0.765843 0.723296 0.801299 0.822573 0.829663 0.850936 0.858027 0.93603 1.02112 0.978577 1.31895 0.978577 2.28334 1.02112 2.90737 1.29768 3.19101 1.80824 3.24775 1.89333 3.7512 3.85757 4.70142 7.70097L6.14802 13.4873C6.11966 13.5015 5.72963 13.5228 4.97798 13.5512Z" transform="matrix(1 0 0 -1.20021 193.665 19.2551)"/><path d="M0.446742 6.10547C0.446742 6.21892 0.510562 6.43876 0.638202 6.76495 0.765843 7.09113 0.943121 7.45988 1.17004 7.87116 1.39695 8.28244 1.70896 8.637 2.10607 8.93483 2.50318 9.23266 2.92154 9.38866 3.3612 9.40285 4.01359 9.40285 4.50288 9.22558 4.82906 8.87101 5.15525 8.51645 5.31835 8.09809 5.31835 7.61588 5.31835 7.3606 5.07726 6.5664 4.59506 5.23326 4.11285 3.90012 3.87176 2.90027 3.87176 2.23371 3.87176 1.62387 3.97104 1.1984 4.16959 0.957304 4.36813 0.716206 4.66596 0.588565 5.06307 0.574382 5.46018 0.560199 5.836 0.680749 6.19056 0.93603 6.54513 1.19131 6.80749 1.43241 6.97768 1.65933L7.21169 2.02097C7.24004 2.0777 7.50951 3.15555 8.02008 5.25453 8.44554 6.95641 8.70083 7.94917 8.78592 8.23281 8.87101 8.51645 8.9703 8.7221 9.08375 8.84974 9.32484 9.06247 9.58012 9.16884 9.84959 9.16884 10.0907 9.16884 10.268 9.09794 10.3814 8.95611 10.4949 8.81428 10.5516 8.67955 10.5516 8.55191L8.93483 1.78697C8.92064 1.71606 8.91356 1.6026 8.91356 1.44659 8.91356 1.09203 8.96319 0.858027 9.06247 0.744569 9.16176 0.631112 9.31067 0.567292 9.50922 0.553109 9.82123 0.595656 10.0694 0.81548 10.2538 1.21258 10.4382 1.60969 10.6509 2.23371 10.892 3.08464 10.9203 3.1981 11.0622 3.25483 11.3175 3.25483 11.5869 3.25483 11.7217 3.19101 11.7217 3.06337 11.7075 2.99247 11.6933 2.89318 11.6791 2.76554 11.6649 2.6379 11.6011 2.41098 11.4876 2.08479 11.3742 1.7586 11.2536 1.45368 11.126 1.17004 10.9984 0.886393 10.8211 0.616929 10.5942 0.361648 10.3672 0.106367 10.112-0.0709113 9.82832-0.170187 9.71486-0.198552 9.54468-0.212734 9.31775-0.212734 8.38172-0.212734 7.73644 0.18437 7.38187 0.978577 7.35352 0.964394 7.27551 0.893483 7.14787 0.765843 7.02023 0.638202 6.89259 0.531835 6.76495 0.446742 6.6373 0.361648 6.48131 0.255281 6.29693 0.12764 6.11255 0 5.90692-0.0850936 5.68-0.12764 5.45308-0.170187 5.21199-0.205643 4.95671-0.234008 4.33269-0.234008 3.77958-0.106367 3.29738 0.148914 2.55989 0.588565 2.19116 1.34022 2.19116 2.4039 2.19116 3.21229 2.43936 4.26887 2.93573 5.57363 3.4321 6.8784 3.6803 7.70806 3.6803 8.06262 3.6803 8.07681 3.6803 8.09098 3.6803 8.10517 3.6803 8.23281 3.6803 8.3179 3.6803 8.36045 3.6803 8.403 3.65194 8.45263 3.59521 8.50937 3.53847 8.5661 3.46048 8.59446 3.3612 8.59446L3.27611 8.59446C2.94992 8.59446 2.65209 8.45973 2.38262 8.19026 2.11316 7.92079 1.90042 7.63007 1.74442 7.31805 1.58842 7.00604 1.46787 6.70821 1.38277 6.42457 1.29768 6.14093 1.24095 5.98491 1.21258 5.95656 1.18422 5.9282 1.07076 5.91401 0.87221 5.91401L0.574382 5.91401C0.489288 5.9991 0.446742 6.06292 0.446742 6.10547Z" transform="matrix(1 0 0 -1.20021 212.555 19.2551)"/><path d="M0.446742 6.10547C0.460925 6.19056 0.482198 6.30401 0.510562 6.44584 0.538926 6.58767 0.624019 6.85712 0.765843 7.25423 0.907666 7.65134 1.04949 7.98461 1.19131 8.25408 1.33313 8.52355 1.56005 8.78592 1.87206 9.0412 2.18408 9.29648 2.49607 9.41704 2.80809 9.40285 3.12011 9.38866 3.42502 9.33903 3.72285 9.25393 4.02067 9.16884 4.23341 9.0412 4.36105 8.87101 4.48869 8.70083 4.60214 8.54483 4.70142 8.403 4.80071 8.26117 4.85742 8.12644 4.87161 7.9988L4.91416 7.84989C4.91416 7.82153 4.92124 7.80734 4.93543 7.80734L5.16944 8.04135C6.02038 8.94902 7.02023 9.40285 8.16899 9.40285 8.41008 9.40285 8.62992 9.38866 8.82847 9.3603 9.02701 9.33194 9.21139 9.28229 9.38157 9.21139 9.55176 9.14048 9.68649 9.06956 9.78577 8.99865 9.88505 8.92775 9.99142 8.84266 10.1049 8.74337 10.2183 8.64409 10.2892 8.55191 10.3176 8.46682 10.346 8.38172 10.4027 8.28955 10.4878 8.19026 10.5729 8.09098 10.6012 8.00589 10.5729 7.93498 10.5445 7.86408 10.5658 7.80026 10.6367 7.74352 10.7076 7.68679 10.7218 7.63716 10.6793 7.59461L10.8494 7.80734C11.7429 8.87101 12.7995 9.40285 14.0192 9.40285 14.785 9.40285 15.4019 9.21139 15.87 8.82847 16.338 8.44554 16.5791 7.88535 16.5933 7.14787 16.5933 6.42457 16.3238 5.30416 15.7849 3.78667 15.246 2.26917 14.9765 1.3615 14.9765 1.06367 14.9907 0.865119 15.0261 0.730386 15.0828 0.659476 15.1396 0.588565 15.246 0.553109 15.4019 0.553109 15.7991 0.553109 16.1678 0.765843 16.5082 1.19131 16.8485 1.61678 17.1251 2.19825 17.3378 2.93573 17.3804 3.09173 17.4229 3.18393 17.4655 3.21229 17.508 3.24064 17.6215 3.25483 17.8058 3.25483 18.0895 3.25483 18.2313 3.1981 18.2313 3.08464 18.2313 3.07046 18.203 2.96409 18.1462 2.76554 18.0328 2.35426 17.8768 1.95006 17.6782 1.55296 17.4797 1.15585 17.1535 0.758752 16.6996 0.361648 16.2458-0.0354558 15.7565-0.226917 15.2318-0.212734 14.5652-0.212734 14.083-0.0212734 13.7852 0.361648 13.4873 0.744569 13.3384 1.14167 13.3384 1.55296 13.3384 1.82242 13.5937 2.67337 14.1043 4.10577 14.6148 5.53817 14.8772 6.61603 14.8914 7.33933 14.8914 8.17607 14.5794 8.59446 13.9554 8.59446L13.849 8.59446C12.6293 8.59446 11.6011 7.87825 10.7643 6.44584L10.6154 6.19056 9.91341 3.33993C9.44539 1.48205 9.17592 0.482198 9.10502 0.340375 8.92064-0.0425468 8.61573-0.234008 8.19026-0.234008 8.00589-0.234008 7.85697-0.18437 7.74352-0.0850936 7.63007 0.0141823 7.55206 0.099276 7.50951 0.170187 7.46697 0.241098 7.44569 0.312011 7.44569 0.382921 7.44569 0.538926 7.68679 1.55296 8.16899 3.42502L8.93483 6.53094C8.97738 6.74367 8.99865 7.01314 8.99865 7.33933 8.99865 8.17607 8.68664 8.59446 8.06262 8.59446L7.95626 8.59446C6.73659 8.59446 5.70836 7.87825 4.87161 6.44584L4.7227 6.19056 4.02067 3.33993C3.55266 1.48205 3.28319 0.482198 3.21229 0.340375 3.02791-0.0425468 2.723-0.234008 2.29753-0.234008 2.11316-0.234008 1.96424-0.191461 1.85079-0.106367 1.73733-0.0212734 1.65933 0.0638202 1.61678 0.148914 1.57423 0.234008 1.56005 0.304918 1.57423 0.361648 1.57423 0.546018 1.8437 1.70896 2.38262 3.85049 2.93573 6.03456 3.21229 7.17622 3.21229 7.27551 3.25483 7.48824 3.27611 7.6797 3.27611 7.84989 3.27611 8.36045 3.09883 8.61573 2.74427 8.61573 2.43225 8.61573 2.16989 8.41719 1.95715 8.02008 1.74442 7.62297 1.58132 7.19041 1.46787 6.7224 1.35441 6.25438 1.26931 5.9991 1.21258 5.95656 1.18422 5.9282 1.07076 5.91401 0.87221 5.91401L0.574382 5.91401C0.489288 5.9991 0.446742 6.06292 0.446742 6.10547Z" transform="matrix(1 0 0 -1.20021 224.724 19.2551)"/><path d="M1.9997 5.31835C1.9997 6.29693 2.07061 7.22588 2.21243 8.10517 2.35426 8.98446 2.51735 9.74322 2.70172 10.3814 2.8861 11.0196 3.14846 11.6436 3.48884 12.2535 3.82921 12.8633 4.09868 13.3384 4.29723 13.6788 4.49577 14.0192 4.7936 14.3879 5.19071 14.785 5.58782 15.1821 5.82183 15.4232 5.89274 15.5083 5.96364 15.5934 6.14093 15.7423 6.42457 15.9551L6.70112 15.9551 6.78622 15.9551C6.98476 15.9551 7.08405 15.8912 7.08405 15.7636 7.08405 15.7211 6.96349 15.5721 6.7224 15.3169 6.48131 15.0616 6.19056 14.6857 5.85019 14.1894 5.50981 13.693 5.16235 13.0831 4.80779 12.3599 4.45323 11.6366 4.1554 10.658 3.91431 9.42412 3.67322 8.19026 3.55266 6.82168 3.55266 5.31835 3.55266 3.81502 3.67322 2.45353 3.91431 1.23386 4.1554 0.0141823 4.44614-0.971487 4.78652-1.72315 5.12689-2.4748 5.47435-3.08464 5.82891-3.55266 6.18348-4.02067 6.48131-4.39651 6.7224-4.68015 6.96349-4.96379 7.08405-5.1127 7.08405-5.12689 7.08405-5.25453 6.97768-5.31835 6.76495-5.31835L6.70112-5.31835 6.42457-5.31835 5.82891-4.80779C4.49577-3.60229 3.5243-2.09898 2.91446-0.297828 2.30461 1.50332 1.9997 3.37539 1.9997 5.31835Z" transform="matrix(1 0 0 -1.20021 243.402 19.2551)"/><path d="M2.78682 6.14802C2.78682 6.60184 2.90027 7.06277 3.12719 7.53079 3.35412 7.9988 3.7512 8.43136 4.3185 8.82847 4.8858 9.22558 5.57363 9.41704 6.38202 9.40285 7.26132 9.40285 7.89952 9.21139 8.29663 8.82847 8.69374 8.44554 8.89937 8.02008 8.91356 7.55206 8.91356 7.09824 8.793 6.76495 8.55191 6.55221 8.31082 6.33948 8.04135 6.22603 7.74352 6.21184 7.55915 6.21184 7.38896 6.26857 7.23296 6.38202 7.07696 6.49547 6.99187 6.67985 6.97768 6.93513 6.97768 7.16206 7.0415 7.3606 7.16914 7.53079 7.29678 7.70097 7.41734 7.82862 7.53079 7.91371 7.64424 7.9988 7.73644 8.04135 7.80734 8.04135 7.82153 8.04135 7.82862 8.04843 7.82862 8.06262 7.82862 8.10517 7.77898 8.16899 7.6797 8.25408 7.58042 8.33918 7.40315 8.41719 7.14787 8.48809 6.89259 8.559 6.61603 8.60154 6.3182 8.61573 5.63745 8.61573 5.14108 8.43136 4.82906 8.06262 4.51705 7.69389 4.35397 7.31805 4.33978 6.93513 4.33978 6.58057 4.4745 6.33239 4.74397 6.19056 5.01344 6.04873 5.40345 5.9282 5.91401 5.82891 6.42457 5.72963 6.7933 5.62326 7.02023 5.50981 7.95626 5.09854 8.42427 4.41779 8.42427 3.46757 8.42427 3.07046 8.34626 2.67337 8.19026 2.27626 8.03427 1.87915 7.80026 1.48205 7.48824 1.08494 7.17622 0.68784 6.72948 0.375831 6.14802 0.148914 5.56655-0.0780026 4.89997-0.198552 4.14832-0.212734 3.05629-0.212734 2.28334-0.00709113 1.82951 0.404195 1.37568 0.81548 1.14167 1.29768 1.12749 1.85079 1.12749 2.4039 1.2764 2.80101 1.57423 3.0421 1.87206 3.28319 2.18408 3.40375 2.51026 3.40375 2.723 3.40375 2.92154 3.33993 3.10592 3.21229 3.29029 3.08464 3.38956 2.86483 3.40375 2.55281 3.40375 2.18408 3.27611 1.87206 3.02082 1.61678 2.76554 1.3615 2.54573 1.23386 2.36135 1.23386 2.33299 1.21967 2.31172 1.21258 2.29753 1.21258 2.28334 1.21258 2.27626 1.1984 2.27626 1.17004 2.29044 1.12749 2.34716 1.07076 2.44644 0.99985 2.54573 0.92894 2.76554 0.836754 3.10592 0.723296 3.44629 0.609839 3.8363 0.560199 4.27596 0.574382 4.78652 0.574382 5.22618 0.652385 5.59491 0.80839 5.96364 0.964394 6.23311 1.16295 6.4033 1.40405 6.57348 1.64514 6.69404 1.86497 6.76495 2.06352 6.83585 2.26207 6.87131 2.43936 6.87131 2.59536 6.87131 2.99247 6.7224 3.29029 6.42457 3.48884 6.12674 3.68738 5.78637 3.80794 5.40345 3.85049 5.02052 3.89303 4.60214 3.9994 4.14832 4.16959 3.69449 4.33978 3.3612 4.58797 3.14846 4.91416 2.90737 5.26872 2.78682 5.68 2.78682 6.14802Z" transform="matrix(1 0 0 -1.20021 251.677 19.2551)"/><path d="M1.65933 0.744569C1.65933 0.744569 1.65933 0.921847 1.65933 1.2764 1.65933 1.63096 1.77278 1.93588 1.9997 2.19116 2.22662 2.44644 2.53154 2.57408 2.91446 2.57408 3.31157 2.57408 3.66611 2.39681 3.97813 2.04225 4.29015 1.68769 4.45323 1.06367 4.46742 0.170187 4.46742-0.326192 4.4036-0.80839 4.27596-1.2764 4.14832-1.74442 3.9994-2.14861 3.82921-2.48899 3.65903-2.82936 3.47465-3.12011 3.27611-3.3612 3.07756-3.60229 2.90737-3.79375 2.76554-3.93558 2.62371-4.07741 2.53154-4.14123 2.48899-4.12704 2.43225-4.12704 2.34008-4.06322 2.21243-3.93558 2.08479-3.80794 2.02097-3.71576 2.02097-3.65903 2.02097-3.60229 2.09898-3.48884 2.25498-3.31865 2.41098-3.14846 2.58827-2.93573 2.78682-2.68045 2.98536-2.42517 3.16974-2.07061 3.33993-1.61678 3.51011-1.16295 3.62356-0.645293 3.6803-0.0638202L3.6803 0.191461 3.65903 0.170187C3.63067 0.156005 3.59521 0.141823 3.55266 0.12764 3.51011 0.113458 3.46757 0.0921847 3.42502 0.0638202 3.38247 0.0354558 3.31865 0.0212734 3.23356 0.0212734 3.14846 0.0212734 3.06337 0.0141823 2.97828 0 2.59536 0 2.28334 0.120549 2.04225 0.361648Z" transform="matrix(1 0 0 -1.20021 261.654 19.2551)"/><path d="M0.723296 3.38247C0.723296 4.92835 1.33313 6.3182 2.55281 7.55206 3.77248 8.78592 5.09143 9.40285 6.50966 9.40285 7.30386 9.40285 7.9279 9.23266 8.38172 8.89229 8.83555 8.55191 9.06956 8.10517 9.08375 7.55206 9.08375 7.14078 8.94902 6.7933 8.67955 6.50966 8.41008 6.22603 8.06971 6.07711 7.65843 6.06292 7.38896 6.06292 7.17622 6.13383 7.02023 6.27566 6.86423 6.41749 6.78622 6.63022 6.78622 6.91386 6.78622 7.1975 6.86423 7.43861 7.02023 7.63716 7.17622 7.8357 7.33224 7.98461 7.48824 8.0839 7.64424 8.18318 7.74352 8.22573 7.78607 8.21154L7.80734 8.21154C7.80734 8.23989 7.7648 8.28244 7.6797 8.33918 7.59461 8.39591 7.44569 8.45263 7.23296 8.50937 7.02023 8.5661 6.77913 8.59446 6.50966 8.59446 6.0842 8.59446 5.68 8.49518 5.29708 8.29663 4.99925 8.16899 4.69434 7.94917 4.38232 7.63716 3.75831 7.01314 3.30446 6.13383 3.02082 4.99925 2.73719 3.86468 2.58827 3.0421 2.57408 2.53154 2.57408 1.87915 2.75846 1.38986 3.12719 1.06367 3.43921 0.723296 3.85049 0.553109 4.36105 0.553109L4.44614 0.553109C6.03456 0.553109 7.34641 1.15585 8.38172 2.36135 8.50937 2.50318 8.59446 2.57408 8.637 2.57408 8.69374 2.57408 8.78592 2.51026 8.91356 2.38262 9.0412 2.25498 9.1121 2.1557 9.12629 2.08479 9.14048 2.01388 9.07666 1.90752 8.93483 1.76569 8.793 1.62387 8.58737 1.42532 8.3179 1.17004 8.04843 0.914757 7.72933 0.702023 7.3606 0.531835 6.99187 0.361648 6.53802 0.18437 5.9991 0 5.46018-0.18437 4.89288-0.262371 4.29723-0.234008 3.23356-0.234008 2.37554 0.106367 1.72315 0.787116 1.07076 1.46787 0.737479 2.33299 0.723296 3.38247Z" transform="matrix(1 0 0 -1.20021 271.115 19.2551)"/><path d="M0.702023 3.33993C0.702023 4.77233 1.24095 6.13383 2.3188 7.42442 3.39666 8.71501 4.60925 9.36739 5.95656 9.38157 6.67985 9.38157 7.31805 9.03412 7.87116 8.33918 8.09809 8.76465 8.42427 8.97738 8.84974 8.97738 9.03412 8.97738 9.1972 8.92064 9.33903 8.80719 9.48086 8.69374 9.55176 8.55191 9.55176 8.38172 9.55176 8.19735 9.2894 7.06277 8.76465 4.97798 8.23989 2.89318 7.97045 1.71606 7.95626 1.44659 7.95626 1.09203 8.00589 0.858027 8.10517 0.744569 8.20445 0.631112 8.35337 0.567292 8.55191 0.553109 8.67955 0.567292 8.82138 0.631112 8.97738 0.744569 9.27521 1.02821 9.56595 1.70896 9.84959 2.78682 9.93468 3.07046 10.0056 3.21937 10.0623 3.23356 10.0907 3.24775 10.1616 3.25483 10.2751 3.25483L10.3602 3.25483C10.6296 3.25483 10.7643 3.19101 10.7643 3.06337 10.7643 2.97828 10.7289 2.78682 10.658 2.48899 10.5871 2.19116 10.4452 1.80824 10.2325 1.34022 10.0198 0.87221 9.79285 0.517652 9.55176 0.276554 9.36739 0.0921847 9.14048-0.0567292 8.87101-0.170187 8.75756-0.198552 8.58737-0.212734 8.36045-0.212734 7.87825-0.212734 7.47405-0.106367 7.14787 0.106367 6.82168 0.319101 6.60895 0.538926 6.50966 0.765843L6.38202 1.08494C6.36783 1.09913 6.33948 1.09203 6.29693 1.06367 6.26857 1.03531 6.24019 1.00694 6.21184 0.978577 5.37509 0.18437 4.52415-0.212734 3.65903-0.212734 2.87899-0.212734 2.19116 0.0709113 1.59551 0.638202 0.99985 1.20549 0.702023 2.10607 0.702023 3.33993ZM7.46697 6.97768C7.46697 7.06277 7.4315 7.21877 7.3606 7.44569 7.2897 7.67262 7.12659 7.92079 6.87131 8.19026 6.61603 8.45973 6.28985 8.60154 5.89274 8.61573 5.39636 8.61573 4.92124 8.39591 4.46742 7.95626 4.01359 7.5166 3.65903 6.94222 3.40375 6.23311 2.99247 5.1127 2.70172 3.94977 2.53154 2.74427 2.53154 2.70172 2.53154 2.62371 2.53154 2.51026 2.53154 2.39681 2.52445 2.31172 2.51026 2.25498 2.51026 1.61678 2.6379 1.17713 2.89318 0.93603 3.14846 0.694932 3.45338 0.567292 3.80794 0.553109 4.34686 0.553109 4.8787 0.787116 5.40345 1.25513 5.9282 1.72315 6.24019 2.08479 6.33948 2.34008 6.36783 2.39681 6.5593 3.15555 6.91386 4.61633 7.26842 6.07711 7.45278 6.86423 7.46697 6.97768Z" transform="matrix(1 0 0 -1.20021 280.326 19.2551)"/><path d="M0.553109 8.19026C0.453832 8.28955 0.404195 8.36045 0.404195 8.403 0.404195 8.45973 0.425468 8.57318 0.468015 8.74337 0.510562 8.91356 0.546018 9.01284 0.574382 9.0412 0.602746 9.1121 0.666566 9.14757 0.765843 9.14757 0.865119 9.14757 1.22677 9.15465 1.85079 9.16884L2.97828 9.16884 3.38247 10.8707C3.42502 11.0267 3.47465 11.2324 3.53139 11.4876 3.58812 11.7429 3.63775 11.9273 3.6803 12.0408 3.72285 12.1542 3.76539 12.296 3.80794 12.4662 3.85049 12.6364 3.90722 12.757 3.97813 12.8279 4.04903 12.8988 4.11996 12.9839 4.19086 13.0831 4.26177 13.1824 4.36105 13.2463 4.48869 13.2746 4.61633 13.303 4.74397 13.3172 4.87161 13.3172 5.12689 13.303 5.30416 13.225 5.40345 13.0831 5.50273 12.9413 5.55236 12.8066 5.55236 12.679 5.55236 12.5797 5.48854 12.2464 5.3609 11.6791 5.23326 11.1118 5.09143 10.5516 4.93543 9.9985L4.7227 9.21139C4.7227 9.18303 5.07726 9.16884 5.78637 9.16884L6.87131 9.16884C6.97059 9.06956 7.02023 8.99157 7.02023 8.93483 7.02023 8.62282 6.92805 8.37464 6.74367 8.19026L4.46742 8.19026 3.70157 5.10562C3.14846 2.83645 2.87191 1.61678 2.87191 1.44659 2.87191 0.850936 3.06337 0.553109 3.44629 0.553109 3.94267 0.553109 4.42487 0.794207 4.89288 1.2764 5.3609 1.7586 5.73674 2.35426 6.02038 3.06337 6.04873 3.14846 6.0842 3.1981 6.12674 3.21229 6.16929 3.22647 6.27566 3.24064 6.44584 3.25483L6.53094 3.25483C6.74367 3.25483 6.85004 3.1981 6.85004 3.08464 6.85004 3.0421 6.82877 2.957 6.78622 2.82936 6.71531 2.60244 6.58767 2.33299 6.4033 2.02097 6.21892 1.70896 5.97783 1.37568 5.68 1.02112 5.38217 0.666566 5.02052 0.368738 4.59506 0.12764 4.16959-0.113458 3.73704-0.234008 3.29738-0.234008 2.87191-0.234008 2.46772-0.12764 2.08479 0.0850936 1.70187 0.297828 1.42532 0.666566 1.25513 1.19131 1.22677 1.30477 1.21258 1.49623 1.21258 1.76569L1.21258 2.14861 1.95715 5.12689C2.45353 7.12659 2.70881 8.13353 2.723 8.14772 2.723 8.17607 2.36135 8.19026 1.63805 8.19026L0.553109 8.19026Z" transform="matrix(1 0 0 -1.20021 291.58 19.2551)"/><path d="M0.829663 3.57393C0.829663 4.38232 0.964394 5.11981 1.23386 5.78637 1.50332 6.45293 1.85079 7.00604 2.27626 7.44569 2.70172 7.88535 3.17682 8.25408 3.70157 8.55191 4.22633 8.84974 4.7227 9.06956 5.19071 9.21139 5.65873 9.35322 6.10547 9.41704 6.53094 9.40285L6.59476 9.40285C7.23296 9.40285 7.78607 9.24685 8.25408 8.93483 8.7221 8.62282 8.95611 8.16191 8.95611 7.55206 8.95611 6.27566 8.16899 5.43891 6.59476 5.0418 5.89982 4.85742 4.94962 4.75816 3.74412 4.74397 3.21937 4.74397 2.94992 4.72978 2.93573 4.70142 2.93573 4.67307 2.89318 4.42487 2.80809 3.95685 2.723 3.48884 2.67337 3.07756 2.65918 2.723 2.65918 2.05643 2.80809 1.53169 3.10592 1.14876 3.40375 0.765843 3.85049 0.567292 4.44614 0.553109 5.0418 0.538926 5.70127 0.673659 6.42457 0.957304 7.14787 1.24095 7.80026 1.70896 8.38172 2.36135 8.50937 2.50318 8.59446 2.57408 8.637 2.57408 8.69374 2.57408 8.78592 2.51026 8.91356 2.38262 9.0412 2.25498 9.1121 2.1557 9.12629 2.08479 9.14048 2.01388 9.07666 1.90042 8.93483 1.74442 8.793 1.58842 8.58027 1.39695 8.29663 1.17004 8.01299 0.943121 7.68679 0.723296 7.31805 0.510562 6.94932 0.297828 6.50258 0.120549 5.97783-0.0212734 5.45308-0.163096 4.91416-0.234008 4.36105-0.234008 3.24064-0.234008 2.37554 0.141823 1.76569 0.893483 1.15585 1.64514 0.843846 2.53862 0.829663 3.57393ZM7.93498 7.50951C7.84989 8.247 7.36768 8.61573 6.48839 8.61573 6.02038 8.61573 5.58782 8.51645 5.19071 8.3179 4.7936 8.11936 4.4745 7.87825 4.23341 7.59461 3.99232 7.31097 3.78667 7.02023 3.61648 6.7224 3.44629 6.42457 3.33284 6.16929 3.27611 5.95656 3.21937 5.74382 3.18393 5.6091 3.16974 5.55236 3.16974 5.53817 3.31157 5.53109 3.59521 5.53109 5.1978 5.53109 6.3182 5.70127 6.95641 6.04165 7.59461 6.38202 7.92079 6.87131 7.93498 7.50951Z" transform="matrix(1 0 0 -1.20021 299.259 19.2551)"/><path d="M1.2764 15.9338 1.3615 15.9551C1.43241 15.9551 1.50332 15.9551 1.57423 15.9551L1.82951 15.9551 2.42517 15.4445C3.75831 14.239 4.72978 12.7357 5.33963 10.9345 5.94947 9.13338 6.25438 7.26132 6.25438 5.31835 6.25438 4.35397 6.18348 3.42502 6.04165 2.53154 5.89982 1.63805 5.73674 0.8793 5.55236 0.255281 5.36798-0.368738 5.10562-0.99276 4.76524-1.61678 4.42487-2.24079 4.1554-2.71591 3.95685-3.0421 3.75831-3.36828 3.46757-3.72993 3.08464-4.12704 2.70172-4.52415 2.4748-4.75816 2.4039-4.82906 2.33299-4.89997 2.16989-5.03471 1.91461-5.23326 1.87206-5.27581 1.8437-5.30416 1.82951-5.31835L1.57423-5.31835C1.46078-5.31835 1.38277-5.31835 1.34022-5.31835 1.29768-5.31835 1.26222-5.29708 1.23386-5.25453 1.20549-5.21199 1.18422-5.14817 1.17004-5.06307 1.18422-5.04888 1.26222-4.95671 1.40405-4.78652 3.60229-2.50318 4.70142 0.865119 4.70142 5.31835 4.70142 9.77158 3.60229 13.1399 1.40405 15.4232 1.26222 15.5934 1.18422 15.6856 1.17004 15.6998 1.17004 15.8132 1.20549 15.8912 1.2764 15.9338Z" transform="matrix(1 0 0 -1.20021 309.173 19.2551)"/><path d="M6.14802 13.381C6.14802 13.4661 5.74382 13.5228 4.93543 13.5512 4.59506 13.5512 4.37524 13.5582 4.27596 13.5724 4.17667 13.5866 4.12704 13.6575 4.12704 13.7852 4.12704 13.7994 4.14123 13.8773 4.16959 14.0192 4.18378 14.0617 4.19795 14.1114 4.21214 14.1681 4.22633 14.2248 4.23341 14.2603 4.23341 14.2745 4.23341 14.2886 4.2476 14.3241 4.27596 14.3808 4.30431 14.4376 4.3185 14.4588 4.3185 14.4446 4.3185 14.4305 4.34686 14.4446 4.4036 14.4872 4.46033 14.5297 4.49577 14.5439 4.50996 14.5297 4.52415 14.5156 4.58087 14.5156 4.68015 14.5297 4.77943 14.5439 4.86453 14.551 4.93543 14.551 5.02052 14.551 5.23326 14.551 5.57363 14.551 5.91401 14.551 6.23311 14.5439 6.53094 14.5297 7.65134 14.5297 8.29663 14.5297 8.46682 14.5297 8.637 14.5297 8.75046 14.4943 8.80719 14.4234 8.82138 14.3666 9.08375 12.3669 9.59431 8.42427L10.3602 2.48899 10.8494 3.27611C11.1898 3.78667 11.6436 4.49577 12.2109 5.40345 12.7782 6.31112 13.4022 7.30386 14.083 8.38172 16.5649 12.3386 17.82 14.3312 17.8484 14.3596 17.8626 14.3737 17.8839 14.395 17.9122 14.4234 17.9406 14.4517 17.9689 14.473 17.9973 14.4872L18.1249 14.5297 20.1672 14.5297C20.4083 14.5297 20.6919 14.5297 21.0181 14.5297 21.3443 14.5297 21.55 14.5368 21.6351 14.551 22.1173 14.551 22.3584 14.473 22.3584 14.317 22.3584 14.2461 22.3371 14.1255 22.2945 13.9554 22.252 13.7852 22.2307 13.693 22.2307 13.6788 22.1739 13.5937 21.9116 13.5512 21.4436 13.5512 20.8763 13.537 20.5147 13.5157 20.3587 13.4873 20.2027 13.459 20.075 13.381 19.9757 13.2533 19.9332 13.1824 19.4226 11.1756 18.444 7.23296 17.4655 3.29029 16.9691 1.29768 16.9549 1.25513 16.9549 1.1984 16.962 1.16295 16.9762 1.14876 16.9904 1.13458 17.04 1.10622 17.1251 1.06367 17.2102 1.02112 17.3307 1.00694 17.4867 1.02112 17.6427 1.03531 17.8768 1.02112 18.1888 0.978577L18.8482 0.978577C18.9333 0.850936 18.9759 0.772933 18.9759 0.744569 18.9759 0.517652 18.9263 0.304918 18.827 0.106367 18.7561 0.0354558 18.6426 0 18.4866 0 18.4157 0 18.1249 0.00709113 17.6144 0.0212734 17.1038 0.0354558 16.4514 0.0425468 15.6572 0.0425468 14.7921 0.0425468 14.1397 0.0425468 13.7001 0.0425468 13.2604 0.0425468 13.0122 0.0354558 12.9555 0.0212734 12.7144 0.0212734 12.5939 0.0921847 12.5939 0.234008 12.5939 0.262371 12.608 0.361648 12.6364 0.531835 12.6931 0.758752 12.7499 0.886393 12.8066 0.914757 12.8633 0.943121 13.0264 0.964394 13.2959 0.978577 13.6788 0.978577 14.1043 0.99985 14.5723 1.0424 14.7708 1.08494 14.9056 1.17004 14.9765 1.29768 15.0048 1.35441 15.2743 2.38971 15.7849 4.4036 16.2954 6.41749 16.7989 8.42427 17.2953 10.424 17.7917 12.4237 18.0399 13.4235 18.0399 13.4235L13.9128 6.85004C11.1331 2.42517 9.70776 0.177278 9.63686 0.106367 9.6085 0.0921847 9.58012 0.0780026 9.55176 0.0638202 9.48086 0.0212734 9.36739 0 9.21139 0 8.99865 0 8.87101 0.0496379 8.82847 0.148914 8.80011 0.205643 8.50937 2.4039 7.95626 6.74367L7.12659 13.2746 5.68 7.53079C4.72978 3.75831 4.25468 1.80824 4.25468 1.6806 4.33978 1.21258 4.85034 0.978577 5.78637 0.978577L5.9991 0.978577C6.0842 0.907666 6.13383 0.843846 6.14802 0.787116 6.16221 0.730386 6.14093 0.602746 6.0842 0.404195 6.02746 0.177278 5.97074 0.0496379 5.91401 0.0212734 5.85727 0.00709113 5.77928 0 5.68 0 5.65164 0 5.56655 0 5.42472 0 5.28289 0 5.0418 0.00709113 4.70142 0.0212734 4.36105 0.0354558 3.90722 0.0425468 3.33993 0.0425468 2.91446 0.0425468 2.4748 0.0354558 2.02097 0.0212734 1.56714 0.00709113 1.30477 0 1.23386 0 1.02112 0 0.886393 0.0141823 0.829663 0.0425468 0.772933 0.0709113 0.744569 0.134732 0.744569 0.234008 0.744569 0.262371 0.765843 0.361648 0.80839 0.531835 0.850936 0.702023 0.886393 0.80839 0.914757 0.850936 0.943121 0.93603 1.09913 0.978577 1.38277 0.978577 2.37554 0.978577 3.00663 1.26222 3.27611 1.82951 3.33284 1.91461 3.82213 3.81502 4.74397 7.53079 5.66581 11.2466 6.13383 13.1966 6.14802 13.381Z" transform="matrix(1 0 0 -1.20021 117.795 55.5112)"/><path d="M0.702023 3.33993C0.702023 4.77233 1.24095 6.13383 2.3188 7.42442 3.39666 8.71501 4.60925 9.36739 5.95656 9.38157 6.67985 9.38157 7.31805 9.03412 7.87116 8.33918 8.09809 8.76465 8.42427 8.97738 8.84974 8.97738 9.03412 8.97738 9.1972 8.92064 9.33903 8.80719 9.48086 8.69374 9.55176 8.55191 9.55176 8.38172 9.55176 8.19735 9.2894 7.06277 8.76465 4.97798 8.23989 2.89318 7.97045 1.71606 7.95626 1.44659 7.95626 1.09203 8.00589 0.858027 8.10517 0.744569 8.20445 0.631112 8.35337 0.567292 8.55191 0.553109 8.67955 0.567292 8.82138 0.631112 8.97738 0.744569 9.27521 1.02821 9.56595 1.70896 9.84959 2.78682 9.93468 3.07046 10.0056 3.21937 10.0623 3.23356 10.0907 3.24775 10.1616 3.25483 10.2751 3.25483L10.3602 3.25483C10.6296 3.25483 10.7643 3.19101 10.7643 3.06337 10.7643 2.97828 10.7289 2.78682 10.658 2.48899 10.5871 2.19116 10.4452 1.80824 10.2325 1.34022 10.0198 0.87221 9.79285 0.517652 9.55176 0.276554 9.36739 0.0921847 9.14048-0.0567292 8.87101-0.170187 8.75756-0.198552 8.58737-0.212734 8.36045-0.212734 7.87825-0.212734 7.47405-0.106367 7.14787 0.106367 6.82168 0.319101 6.60895 0.538926 6.50966 0.765843L6.38202 1.08494C6.36783 1.09913 6.33948 1.09203 6.29693 1.06367 6.26857 1.03531 6.24019 1.00694 6.21184 0.978577 5.37509 0.18437 4.52415-0.212734 3.65903-0.212734 2.87899-0.212734 2.19116 0.0709113 1.59551 0.638202 0.99985 1.20549 0.702023 2.10607 0.702023 3.33993ZM7.46697 6.97768C7.46697 7.06277 7.4315 7.21877 7.3606 7.44569 7.2897 7.67262 7.12659 7.92079 6.87131 8.19026 6.61603 8.45973 6.28985 8.60154 5.89274 8.61573 5.39636 8.61573 4.92124 8.39591 4.46742 7.95626 4.01359 7.5166 3.65903 6.94222 3.40375 6.23311 2.99247 5.1127 2.70172 3.94977 2.53154 2.74427 2.53154 2.70172 2.53154 2.62371 2.53154 2.51026 2.53154 2.39681 2.52445 2.31172 2.51026 2.25498 2.51026 1.61678 2.6379 1.17713 2.89318 0.93603 3.14846 0.694932 3.45338 0.567292 3.80794 0.553109 4.34686 0.553109 4.8787 0.787116 5.40345 1.25513 5.9282 1.72315 6.24019 2.08479 6.33948 2.34008 6.36783 2.39681 6.5593 3.15555 6.91386 4.61633 7.26842 6.07711 7.45278 6.86423 7.46697 6.97768Z" transform="matrix(1 0 0 -1.20021 140.153 55.5112)"/><path d="M1.10622 6.14802C1.20549 6.74367 1.58842 7.4315 2.25498 8.21154 2.92154 8.99157 3.74412 9.38866 4.7227 9.40285 5.21907 9.40285 5.67292 9.27521 6.0842 9.01993 6.49547 8.76465 6.80041 8.44554 6.99895 8.06262 7.59461 8.95611 8.31082 9.40285 9.14757 9.40285 9.67232 9.40285 10.1261 9.24685 10.5091 8.93483 10.892 8.62282 11.0905 8.20445 11.1047 7.6797 11.1047 7.26842 11.0054 6.93513 10.8069 6.67985 10.6083 6.42457 10.4169 6.26857 10.2325 6.21184 10.0481 6.1551 9.88505 6.12674 9.74322 6.12674 9.47375 6.12674 9.25393 6.20475 9.08375 6.36075 8.91356 6.51675 8.82847 6.7224 8.82847 6.97768 8.82847 7.63007 9.18303 8.07681 9.89214 8.3179 9.73614 8.50228 9.45248 8.59446 9.0412 8.59446 8.85682 8.59446 8.7221 8.58027 8.637 8.55191 8.09809 8.32499 7.70097 7.85697 7.44569 7.14787 6.59476 4.01359 6.16929 2.18408 6.16929 1.65933 6.16929 1.26222 6.28274 0.978577 6.50966 0.80839 6.73659 0.638202 6.98476 0.553109 7.25423 0.553109 7.77898 0.553109 8.29663 0.787116 8.80719 1.25513 9.31775 1.72315 9.66521 2.29753 9.84959 2.97828 9.89214 3.12011 9.93468 3.1981 9.97723 3.21229 10.0198 3.22647 10.1332 3.24064 10.3176 3.25483L10.4027 3.25483C10.6154 3.25483 10.7218 3.1981 10.7218 3.08464 10.7218 3.07046 10.7076 2.99247 10.6793 2.85064 10.4523 2.04225 10.0127 1.32604 9.3603 0.702023 8.70791 0.0780026 7.94917-0.234008 7.08405-0.234008 6.09128-0.234008 5.33963 0.212734 4.82906 1.10622 4.2476 0.226917 3.58102-0.212734 2.82936-0.212734L2.70172-0.212734C2.00679-0.212734 1.51041-0.0283645 1.21258 0.340375 0.914757 0.709113 0.758752 1.09913 0.744569 1.51041 0.744569 1.96424 0.8793 2.33299 1.14876 2.61663 1.41823 2.90027 1.73733 3.0421 2.10607 3.0421 2.71591 3.0421 3.02082 2.74427 3.02082 2.14861 3.02082 1.86497 2.93573 1.61678 2.76554 1.40405 2.59536 1.19131 2.43225 1.04949 2.27626 0.978577 2.12025 0.907666 2.02806 0.87221 1.9997 0.87221L1.93588 0.850936C1.93588 0.836754 1.97843 0.80839 2.06352 0.765843 2.14861 0.723296 2.26207 0.673659 2.4039 0.616929 2.54573 0.560199 2.68045 0.538926 2.80809 0.553109 3.31865 0.553109 3.75831 0.87221 4.12704 1.51041 4.25468 1.73733 4.41779 2.21952 4.61633 2.957 4.81488 3.69449 5.01344 4.46033 5.21199 5.25453 5.41053 6.04873 5.524 6.51675 5.55236 6.65858 5.62326 7.0415 5.65873 7.31805 5.65873 7.48824 5.65873 7.88535 5.55236 8.16899 5.33963 8.33918 5.12689 8.50937 4.8858 8.59446 4.61633 8.59446 4.04903 8.59446 3.5172 8.36753 3.02082 7.91371 2.52445 7.45988 2.17697 6.8784 1.97843 6.16929 1.95006 6.04165 1.91461 5.97074 1.87206 5.95656 1.82951 5.94237 1.71606 5.9282 1.53169 5.91401L1.23386 5.91401C1.14876 5.9991 1.10622 6.07711 1.10622 6.14802Z" transform="matrix(1 0 0 -1.20021 151.407 55.5112)"/><path d="M0.51137 2.39141C0.51137 3.48434 0.942526 4.46697 1.80484 5.33931 2.66714 6.21164 3.59964 6.64781 4.60233 6.64781 5.16383 6.64781 5.60502 6.52749 5.92588 6.28685 6.24673 6.0462 6.41218 5.73035 6.42221 5.33931 6.42221 5.04853 6.32696 4.80286 6.13644 4.60233 5.94593 4.4018 5.70528 4.29652 5.41451 4.28649 5.22399 4.28649 5.07359 4.33662 4.9633 4.43689 4.85301 4.53716 4.79786 4.68757 4.79786 4.8881 4.79786 5.08863 4.85301 5.2591 4.9633 5.39947 5.07359 5.53984 5.1839 5.64512 5.29419 5.71531 5.40448 5.78551 5.47467 5.81559 5.50475 5.80556L5.51979 5.80556C5.51979 5.82561 5.48971 5.85569 5.42955 5.8958 5.36939 5.93591 5.26411 5.97601 5.1137 6.01612 4.9633 6.05623 4.79285 6.07628 4.60233 6.07628 4.30153 6.07628 4.01576 6.00609 3.74504 5.86572 3.53447 5.77548 3.3189 5.62006 3.0983 5.39947 2.65712 4.95829 2.33626 4.33662 2.13572 3.53447 1.93519 2.73233 1.82991 2.15076 1.81988 1.7898 1.81988 1.32856 1.95023 0.982633 2.21092 0.752015 2.43152 0.51137 2.72229 0.391048 3.08326 0.391048L3.14342 0.391048C4.26644 0.391048 5.19391 0.817189 5.92588 1.66947 6.01612 1.76975 6.07628 1.81988 6.10636 1.81988 6.14647 1.81988 6.21164 1.77476 6.30189 1.68451 6.39213 1.59427 6.44226 1.52408 6.45229 1.47395 6.46232 1.42382 6.4172 1.34861 6.31693 1.24835 6.21665 1.14808 6.07127 1.0077 5.88076 0.827217 5.69024 0.646733 5.46464 0.49633 5.20394 0.376008 4.94325 0.255685 4.62238 0.130349 4.24136 0 3.86035-0.130349 3.45927-0.185497 3.03814-0.165443 2.28613-0.165443 1.67951 0.0752015 1.21826 0.556491 0.757028 1.03778 0.521398 1.64942 0.51137 2.39141Z" transform="matrix(1 0 0 -1.20021 164.278 59.41)"/><path d="M0.49633 2.36133C0.49633 3.37404 0.87735 4.33662 1.63939 5.24907 2.40144 6.16152 3.25874 6.62274 4.21128 6.63277 4.72265 6.63277 5.17386 6.38712 5.56491 5.8958 5.72535 6.1966 5.95596 6.34701 6.25677 6.34701 6.38712 6.34701 6.50242 6.30689 6.60269 6.22669 6.70297 6.14647 6.7531 6.0462 6.7531 5.92588 6.7531 5.79552 6.5676 4.99338 6.1966 3.51943 5.82561 2.04548 5.6351 1.21325 5.62507 1.02274 5.62507 0.772068 5.66016 0.606625 5.73035 0.526411 5.80055 0.446196 5.90583 0.401075 6.0462 0.391048 6.13644 0.401075 6.23672 0.446196 6.34701 0.526411 6.55757 0.726947 6.76313 1.20824 6.96366 1.97028 7.02382 2.17081 7.07395 2.27609 7.11406 2.28613 7.13411 2.29616 7.18426 2.30117 7.26447 2.30117L7.32463 2.30117C7.51514 2.30117 7.61039 2.25605 7.61039 2.1658 7.61039 2.10564 7.58532 1.97028 7.53519 1.75972 7.48506 1.54915 7.38479 1.27843 7.23439 0.947539 7.08398 0.616652 6.92355 0.36598 6.7531 0.195524 6.62274 0.0651746 6.46232-0.0401075 6.27181-0.120322 6.1916-0.140376 6.07127-0.150403 5.91084-0.150403 5.56992-0.150403 5.28415-0.0752015 5.05354 0.0752015 4.82293 0.225605 4.67253 0.38102 4.60233 0.541451L4.51209 0.767055C4.50206 0.777083 4.48201 0.772068 4.45193 0.752015 4.43188 0.731962 4.41182 0.711907 4.39177 0.691854 3.80019 0.130349 3.19858-0.150403 2.58693-0.150403 2.03545-0.150403 1.54915 0.0501343 1.12802 0.451209 0.706894 0.852284 0.49633 1.48899 0.49633 2.36133ZM5.27915 4.93322C5.27915 4.99338 5.25407 5.10367 5.20394 5.26411 5.15381 5.42454 5.0385 5.6 4.85802 5.79052 4.67753 5.98103 4.44692 6.08129 4.16616 6.09132 3.81523 6.09132 3.47932 5.93591 3.15846 5.62507 2.83761 5.31424 2.58693 4.90815 2.40645 4.40681 2.11567 3.61468 1.91012 2.79249 1.7898 1.9402 1.7898 1.91012 1.7898 1.85497 1.7898 1.77476 1.7898 1.69455 1.78479 1.63438 1.77476 1.59427 1.77476 1.14306 1.865 0.83223 2.04548 0.661773 2.22596 0.491317 2.44154 0.401075 2.69221 0.391048 3.07323 0.391048 3.44924 0.556491 3.82024 0.887378 4.19124 1.21826 4.41182 1.47395 4.48201 1.65443 4.50206 1.69455 4.63742 2.23097 4.8881 3.26375 5.13877 4.29652 5.26911 4.85301 5.27915 4.93322Z" transform="matrix(1 0 0 -1.20021 170.79 59.41)"/><path d="M0.391048 5.79052C0.320859 5.86071 0.285766 5.91084 0.285766 5.94092 0.285766 5.98103 0.300806 6.06124 0.330887 6.18156 0.360967 6.30189 0.386035 6.37208 0.406088 6.39213 0.426141 6.44226 0.471262 6.46733 0.541451 6.46733 0.611639 6.46733 0.867325 6.47234 1.30851 6.48237L2.10564 6.48237 2.39141 7.68559C2.42149 7.79588 2.45658 7.94128 2.49669 8.12176 2.5368 8.30225 2.57189 8.4326 2.60197 8.51281 2.63205 8.59302 2.66213 8.69329 2.69221 8.81362 2.72229 8.93394 2.76241 9.01917 2.81254 9.0693 2.86267 9.11943 2.91281 9.17959 2.96294 9.24979 3.01307 9.31998 3.08326 9.3651 3.1735 9.38515 3.26375 9.4052 3.35399 9.41523 3.44423 9.41523 3.62471 9.4052 3.75004 9.35006 3.82024 9.24979 3.89043 9.14951 3.92552 9.05426 3.92552 8.96402 3.92552 8.89383 3.8804 8.65821 3.79016 8.25713 3.69991 7.85605 3.59964 7.45999 3.48935 7.06894L3.33895 6.51245C3.33895 6.4924 3.58962 6.48237 4.09096 6.48237L4.85802 6.48237C4.92821 6.41218 4.9633 6.35704 4.9633 6.31693 4.9633 6.09633 4.89813 5.92087 4.76778 5.79052L3.15846 5.79052 2.61701 3.60967C2.22596 2.00537 2.03044 1.14306 2.03044 1.02274 2.03044 0.601612 2.1658 0.391048 2.43653 0.391048 2.78746 0.391048 3.12838 0.561504 3.45927 0.902418 3.79016 1.24333 4.05587 1.66447 4.25641 2.1658 4.27645 2.22596 4.30153 2.26105 4.33161 2.27109 4.36169 2.28112 4.43689 2.29113 4.55721 2.30117L4.61737 2.30117C4.76778 2.30117 4.84298 2.26105 4.84298 2.18084 4.84298 2.15076 4.82794 2.0906 4.79786 2.00036 4.74773 1.83993 4.65749 1.64942 4.52713 1.42883 4.39678 1.20824 4.22632 0.972607 4.01576 0.721934 3.8052 0.471262 3.54951 0.260698 3.24871 0.0902418 2.9479-0.0802149 2.64208-0.165443 2.33125-0.165443 2.03044-0.165443 1.74468-0.0902418 1.47395 0.0601612 1.20322 0.210564 1.0077 0.471262 0.887378 0.842257 0.867325 0.922471 0.857297 1.05783 0.857297 1.24835L0.857297 1.51907 1.38371 3.62471C1.73464 5.0385 1.91513 5.7504 1.92516 5.76044 1.92516 5.78048 1.66947 5.79052 1.1581 5.79052L0.391048 5.79052Z" transform="matrix(1 0 0 -1.20021 178.746 59.41)"/><path d="M0.586572 2.52677C0.586572 3.0983 0.681827 3.6197 0.872338 4.09096 1.06285 4.56222 1.30851 4.95327 1.60931 5.26411 1.91012 5.57494 2.24601 5.83564 2.61701 6.0462 2.98801 6.25677 3.33895 6.41218 3.66983 6.51245 4.00072 6.61272 4.31657 6.65785 4.61737 6.64781L4.66249 6.64781C5.1137 6.64781 5.50475 6.53752 5.83564 6.31693 6.16652 6.09633 6.33197 5.77047 6.33197 5.33931 6.33197 4.43689 5.77548 3.84531 4.66249 3.56455 4.17117 3.4342 3.49938 3.36402 2.64709 3.35399 2.27609 3.35399 2.08559 3.34396 2.07556 3.32391 2.07556 3.30386 2.04548 3.12838 1.98532 2.7975 1.92516 2.46661 1.89007 2.17584 1.88004 1.92516 1.88004 1.4539 1.98532 1.0829 2.19588 0.812176 2.40645 0.541451 2.72229 0.401075 3.14342 0.391048 3.56455 0.38102 4.0308 0.476277 4.54217 0.676814 5.05354 0.87735 5.51478 1.20824 5.92588 1.66947 6.01612 1.76975 6.07628 1.81988 6.10636 1.81988 6.14647 1.81988 6.21164 1.77476 6.30189 1.68451 6.39213 1.59427 6.44226 1.52408 6.45229 1.47395 6.46232 1.42382 6.4172 1.3436 6.31693 1.2333 6.21665 1.12301 6.06625 0.987647 5.86572 0.827217 5.66518 0.666786 5.43456 0.51137 5.17386 0.360967 4.91317 0.210564 4.59732 0.0852284 4.22632-0.0150403 3.85533-0.115309 3.47431-0.165443 3.08326-0.165443 2.29113-0.165443 1.67951 0.100269 1.24835 0.631693 0.817189 1.16312 0.596599 1.7948 0.586572 2.52677ZM5.61003 5.30923C5.54987 5.83063 5.20895 6.09132 4.58729 6.09132 4.25641 6.09132 3.95059 6.02113 3.66983 5.88076 3.38908 5.74039 3.16347 5.56992 2.99302 5.36939 2.82257 5.16886 2.67717 4.9633 2.55685 4.75274 2.43653 4.54217 2.35632 4.36169 2.31621 4.21128 2.27609 4.06088 2.25104 3.96563 2.241 3.92552 2.241 3.91549 2.34128 3.91048 2.54181 3.91048 3.67484 3.91048 4.46697 4.0308 4.91818 4.27145 5.36939 4.51209 5.6 4.85802 5.61003 5.30923Z" transform="matrix(1 0 0 -1.20021 184.176 59.41)"/><path d="M1.26339 3.76008C1.26339 4.98335 1.67448 5.98604 2.49669 6.76814 3.3189 7.55023 4.29149 7.99643 5.41451 8.10672 5.42454 8.10672 5.50976 8.10672 5.67019 8.10672 5.83063 8.10672 6.04119 8.11173 6.30189 8.12176 6.56258 8.13179 6.81326 8.13179 7.0539 8.12176L8.54289 8.12176C8.69329 8.04155 8.7685 7.94128 8.7685 7.82096 8.7685 7.73072 8.70333 7.63546 8.57297 7.53519L7.00878 7.52015C5.8958 7.51012 5.20895 7.48004 4.94826 7.42991 4.45694 7.30959 4.02077 7.1291 3.63975 6.88846 3.25874 6.64781 2.96294 6.40216 2.75238 6.15148 2.54181 5.90081 2.36133 5.62507 2.21092 5.32427 2.06052 5.02346 1.97028 4.78282 1.9402 4.60233 1.91012 4.42185 1.88505 4.2514 1.865 4.09096L1.865 4.06088 8.54289 4.06088C8.69329 3.98067 8.7685 3.8804 8.7685 3.76008 8.7685 3.63975 8.69329 3.53948 8.54289 3.45927L1.865 3.45927 1.865 3.42919C1.865 3.21862 1.91513 2.96294 2.0154 2.66213 2.11567 2.36133 2.28112 2.03545 2.51173 1.68451 2.74234 1.33357 3.06321 1.01271 3.47431 0.721934 3.88541 0.431156 4.37172 0.225605 4.93322 0.105282 5.20394 0.0451209 5.8958 0.0100269 7.00878 0L8.57297 0C8.70333-0.100269 8.7685-0.200537 8.7685-0.300806 8.7685-0.421128 8.69329-0.521398 8.54289-0.601612L7.08398-0.601612C7.01379-0.601612 6.88846-0.601612 6.70797-0.601612 6.52749-0.601612 6.3821-0.606625 6.27181-0.616652 4.71765-0.616652 3.48935-0.185497 2.58693 0.676814 1.70456 1.49902 1.26339 2.52677 1.26339 3.76008Z" transform="matrix(1 0 0 -1.20021 191.185 59.41)"/><path d="M0.752015 3.79016C0.752015 4.94325 1.08791 6.05121 1.75972 7.11406 2.43152 8.17692 3.27879 9.01917 4.30153 9.64083 5.32427 10.2625 6.34701 10.5783 7.36975 10.5884 8.27217 10.5884 8.98909 10.3327 9.52051 9.82132 9.61075 9.72104 9.68595 9.63583 9.74612 9.56563 9.80628 9.49544 9.84639 9.44531 9.86644 9.41523L9.88148 9.37011C9.91156 9.37011 10.0469 9.50046 10.2876 9.76116 10.3578 9.82132 10.433 9.89151 10.5132 9.97172 10.5934 10.0519 10.6736 10.1322 10.7538 10.2124 10.834 10.2926 10.8842 10.3477 10.9042 10.3778L11.1298 10.6034 11.2201 10.6034C11.3604 10.6034 11.4306 10.5683 11.4306 10.4981 11.4306 10.458 11.2702 9.77119 10.9493 8.43761 10.5884 7.04387 10.4079 6.342 10.4079 6.33197 10.3878 6.28184 10.3628 6.25176 10.3327 6.24173 10.3026 6.23169 10.2124 6.22168 10.062 6.21164L9.82132 6.21164C9.76116 6.27181 9.73108 6.31693 9.73108 6.34701 9.73108 6.35704 9.73608 6.39213 9.74612 6.45229 9.75615 6.51245 9.76616 6.61272 9.7762 6.7531 9.78623 6.89347 9.79124 7.0539 9.79124 7.23439 9.79124 7.94629 9.6308 8.56796 9.30995 9.09938 8.98909 9.6308 8.44262 9.90153 7.67055 9.91156 7.40986 9.91156 7.1291 9.87647 6.8283 9.80628 6.52749 9.73608 6.16652 9.61576 5.7454 9.44531 5.32427 9.27486 4.90815 8.9941 4.49705 8.60305 4.08595 8.212 3.71996 7.74576 3.39911 7.2043 3.07825 6.63277 2.82257 5.96599 2.63205 5.20394 2.44154 4.4419 2.34629 3.82024 2.34629 3.33895 2.34629 2.19588 2.7273 1.37368 3.48935 0.872338 3.97064 0.531424 4.56222 0.360967 5.26411 0.360967 6.17656 0.360967 6.98873 0.701881 7.70063 1.38371 8.41254 2.06553 8.88381 2.80753 9.11442 3.60967 9.15454 3.74003 9.18462 3.81523 9.20466 3.83528 9.22471 3.85533 9.30494 3.86536 9.44531 3.86536 9.64584 3.86536 9.74612 3.82024 9.74612 3.72999 9.74612 3.67987 9.74111 3.63474 9.73108 3.59463 9.4403 2.52176 8.81863 1.59928 7.86608 0.827217 6.91353 0.0551478 5.89079-0.330887 4.79786-0.330887 3.66483-0.330887 2.70725 0.0451209 1.92516 0.797136 1.14306 1.54915 0.752015 2.54682 0.752015 3.79016Z" transform="matrix(1 0 0 -1.20021 201.217 59.41)"/><path d="M3.12838 1.11298C3.12838 0.872338 3.359 0.731962 3.82024 0.691854 4.00072 0.691854 4.09096 0.636706 4.09096 0.526411 4.09096 0.516383 4.08093 0.451209 4.06088 0.330887 4.0308 0.190511 4.00072 0.100269 3.97064 0.0601612 3.94056 0.0200537 3.87539 0 3.77512 0 3.75507 0 3.69491 0 3.59463 0 3.49436 0 3.32391 0.00501343 3.08326 0.0150403 2.84262 0.0250672 2.52176 0.0300806 2.12068 0.0300806 1.40878 0.0300806 0.952552 0.0200537 0.752015 0L0.631693 0C0.561504 0.0701881 0.526411 0.125336 0.526411 0.165443 0.546464 0.436169 0.611639 0.611639 0.721934 0.691854L0.932499 0.691854C1.63438 0.721934 2.14575 0.972607 2.46661 1.44387 2.52677 1.50403 3.4342 3.03313 5.1889 6.03116 6.94361 9.02919 7.836 10.5483 7.86608 10.5884 7.93627 10.7087 8.05659 10.7689 8.22705 10.7689L8.34737 10.7689 8.60305 10.7689C8.66321 10.6786 8.69329 10.6285 8.69329 10.6185L9.11442 5.76044C9.39518 2.52176 9.54558 0.887378 9.56563 0.857297 9.61576 0.747002 9.94164 0.691854 10.5433 0.691854 10.7939 0.691854 10.9193 0.64172 10.9193 0.541451 10.9193 0.521398 10.9042 0.451209 10.8741 0.330887 10.8441 0.180484 10.819 0.0902418 10.7989 0.0601612 10.7789 0.0300806 10.7087 0.0100269 10.5884 0 10.5583 0 10.4881 0 10.3778 0 10.2675 0 10.072 0.00501343 9.79124 0.0150403 9.51048 0.0250672 9.1445 0.0300806 8.69329 0.0300806 7.75076 0.0300806 7.13411 0.0200537 6.84334 0L6.66285 0C6.60269 0.0601612 6.57261 0.105282 6.57261 0.135363 6.57261 0.165443 6.58264 0.255685 6.60269 0.406088 6.6428 0.536438 6.67289 0.616652 6.69293 0.646733L6.7531 0.691854 7.0539 0.691854C7.59535 0.721934 7.91621 0.807163 8.01648 0.947539L7.836 3.20358 4.25641 3.20358 3.74504 2.33125C3.33394 1.63939 3.12838 1.2333 3.12838 1.11298ZM7.7608 3.91048C7.7608 4.02077 7.70063 4.80286 7.58031 6.25677 7.45999 7.71067 7.3898 8.44262 7.36975 8.45265L6.96366 7.80592C6.80323 7.53519 6.48738 6.99875 6.01612 6.1966L4.66249 3.91048 6.21164 3.89544C7.24442 3.89544 7.7608 3.90045 7.7608 3.91048Z" transform="matrix(1 0 0 -1.20021 212.647 59.41)"/><path d="M0.601612 6.57261C0.411101 6.57261 0.315846 6.61272 0.315846 6.69293 0.315846 6.74306 0.396061 7.02382 0.556491 7.53519 0.716922 8.04656 0.887378 8.55292 1.06786 9.05426L1.32355 9.79124C1.37368 9.97172 1.43886 10.1021 1.51907 10.1823L8.55793 10.1823 9.91156 10.1823C10.2324 10.1823 10.4229 10.1773 10.4831 10.1672 10.5433 10.1572 10.5783 10.1121 10.5884 10.0319 10.5884 9.97172 10.5031 9.40019 10.3327 8.31729 10.1622 7.23439 10.067 6.68793 10.0469 6.67789 10.0469 6.6077 9.95167 6.57261 9.76116 6.57261 9.67091 6.57261 9.61075 6.57261 9.58067 6.57261 9.55059 6.57261 9.52051 6.59768 9.49043 6.64781L9.46035 6.69293C9.46035 6.7531 9.49043 6.9787 9.55059 7.36975 9.61075 7.7608 9.64083 8.06661 9.64083 8.28721 9.64083 8.63814 9.57566 8.90386 9.44531 9.08434 9.31496 9.26483 9.03922 9.39016 8.61809 9.46035 8.56796 9.47038 8.27717 9.4804 7.74576 9.49043 7.28451 9.49043 6.99374 9.48542 6.87342 9.47539 6.7531 9.46536 6.66285 9.42526 6.60269 9.35507 6.59266 9.34504 6.23672 7.94629 5.53483 5.15882 4.83295 2.37136 4.48201 0.952552 4.48201 0.902418 4.48201 0.782096 4.92319 0.711907 5.80556 0.691854 6.12641 0.691854 6.33197 0.686841 6.42221 0.676814 6.51245 0.666786 6.55757 0.621665 6.55757 0.541451 6.55757 0.491317 6.54253 0.421128 6.51245 0.330887 6.47234 0.150403 6.42722 0.0451209 6.37709 0.0150403L6.34701 0C6.31693 0 6.28184 0 6.24173 0 6.1916 0 5.93089 0.00501343 5.45963 0.0150403 4.98837 0.0250672 4.31156 0.0300806 3.42919 0.0300806 2.13572 0.0300806 1.31352 0.0200537 0.962579 0L0.736975 0C0.676814 0.0601612 0.646733 0.105282 0.646733 0.135363 0.646733 0.165443 0.65676 0.255685 0.676814 0.406088 0.716922 0.536438 0.767055 0.631693 0.827217 0.691854L1.24835 0.691854 1.41379 0.691854C2.21593 0.691854 2.69221 0.736975 2.84262 0.827217 2.85265 0.837244 2.86267 0.842257 2.8727 0.842257 2.92283 0.872338 2.97297 0.972607 3.0231 1.14306 3.07323 1.31352 3.27378 2.10063 3.62471 3.50439 3.79516 4.18621 3.93555 4.7427 4.04584 5.17386 4.74773 7.93125 5.09866 9.34003 5.09866 9.40019 5.09866 9.45032 4.95327 9.47539 4.66249 9.47539L4.19624 9.47539C3.52444 9.47539 3.08326 9.44531 2.8727 9.38515 2.42149 9.28487 2.07055 9.07933 1.81988 8.7685 1.5692 8.45766 1.29848 7.87611 1.0077 7.02382 0.937512 6.80323 0.887378 6.67289 0.857297 6.63277 0.827217 6.59266 0.757028 6.57261 0.646733 6.57261L0.601612 6.57261Z" transform="matrix(1 0 0 -1.20021 223.927 59.41)"/><path d="M7.39983 3.20358C7.1993 3.20358 7.09902 3.26875 7.09902 3.39911 7.09902 3.43922 7.12409 3.55954 7.17422 3.76008 7.22435 3.96061 7.24943 4.13608 7.24943 4.28649 7.24943 4.59732 7.14414 4.78782 6.93358 4.85802 6.72301 4.92821 6.23672 4.9633 5.47467 4.9633L4.69257 4.9633C4.68254 4.94325 4.50708 4.2514 4.16616 2.88774 3.82524 1.52408 3.65479 0.822204 3.65479 0.782096 3.65479 0.741988 3.70995 0.721934 3.82024 0.721934 3.93053 0.721934 4.33161 0.711907 5.02346 0.691854 5.96599 0.691854 6.58765 0.701881 6.88846 0.721934 7.18926 0.741988 7.49007 0.807163 7.79088 0.917458 8.2822 1.07789 8.68829 1.35864 9.00914 1.75972 9.33 2.1608 9.68595 2.81754 10.077 3.72999 10.1773 3.95059 10.2424 4.07091 10.2725 4.09096 10.3427 4.11101 10.4179 4.12104 10.4981 4.12104 10.6987 4.12104 10.7989 4.05587 10.7989 3.92552 9.74612 1.37869 9.19463 0.0802149 9.1445 0.0300806 9.11442 0.0100269 7.68059 0 4.84298 0L2.00036 0C0.97762 0 0.466249 0.0551478 0.466249 0.165443 0.466249 0.185497 0.48129 0.255685 0.51137 0.376008 0.551478 0.536438 0.591585 0.62668 0.631693 0.646733 0.671801 0.666786 0.787109 0.681827 0.97762 0.691854 1.24835 0.691854 1.54915 0.706894 1.88004 0.736975 2.02041 0.767055 2.11567 0.827217 2.1658 0.917458 2.18585 0.967592 2.54181 2.37637 3.23366 5.14378 3.92552 7.9112 4.27645 9.31496 4.28649 9.35507 4.28649 9.42526 4.26644 9.46035 4.22632 9.46035 4.14611 9.49043 3.8804 9.5155 3.42919 9.53555L2.96294 9.53555C2.90278 9.59571 2.8727 9.63583 2.8727 9.65587 2.8727 9.67592 2.88273 9.76116 2.90278 9.91156 2.94289 10.082 2.99302 10.1873 3.05318 10.2274L11.3855 10.2274C11.4557 10.1873 11.4908 10.1322 11.4908 10.062 11.4908 10.0118 11.4256 9.45032 11.2953 8.37745 11.1649 7.30458 11.0947 6.7531 11.0847 6.72301 11.0647 6.65282 10.9644 6.61773 10.7839 6.61773L10.6034 6.61773C10.5332 6.66786 10.4981 6.73305 10.4981 6.81326L10.5433 7.15918C10.5733 7.39983 10.5884 7.66052 10.5884 7.94128 10.5884 8.24209 10.5533 8.49276 10.4831 8.69329 10.4129 8.89383 10.3176 9.04925 10.1973 9.15954 10.077 9.26983 9.90153 9.35006 9.67091 9.40019 9.4403 9.45032 9.20466 9.48542 8.96402 9.50547 8.72338 9.52552 8.40252 9.53555 8.00144 9.53555L7.29455 9.53555C6.41218 9.52552 5.94593 9.51048 5.8958 9.49043 5.85569 9.47038 5.82561 9.42526 5.80556 9.35507 5.79552 9.32499 5.64011 8.70833 5.33931 7.50511 5.0385 6.30189 4.88309 5.69024 4.87306 5.67019 5.10367 5.66016 5.34432 5.65515 5.59499 5.65515L5.98604 5.65515C6.64781 5.65515 7.10403 5.73035 7.35471 5.88076 7.60538 6.03116 7.83099 6.43725 8.03152 7.09902 8.07163 7.25946 8.10171 7.3497 8.12176 7.36975 8.14181 7.3898 8.22705 7.40484 8.37745 7.41487 8.42758 7.41487 8.46769 7.41487 8.49777 7.41487 8.52785 7.41487 8.55292 7.40986 8.57297 7.39983 8.59302 7.3898 8.60305 7.38479 8.60305 7.38479 8.60305 7.38479 8.61308 7.36474 8.63313 7.32463 8.65318 7.28451 8.66822 7.26447 8.67825 7.26447L8.18192 5.27915C7.85104 3.94557 7.67055 3.26875 7.64047 3.24871 7.61039 3.21862 7.53018 3.20358 7.39983 3.20358Z" transform="matrix(1 0 0 -1.20021 234.516 59.41)"/><path d="M1.9997 5.31835C1.9997 6.29693 2.07061 7.22588 2.21243 8.10517 2.35426 8.98446 2.51735 9.74322 2.70172 10.3814 2.8861 11.0196 3.14846 11.6436 3.48884 12.2535 3.82921 12.8633 4.09868 13.3384 4.29723 13.6788 4.49577 14.0192 4.7936 14.3879 5.19071 14.785 5.58782 15.1821 5.82183 15.4232 5.89274 15.5083 5.96364 15.5934 6.14093 15.7423 6.42457 15.9551L6.70112 15.9551 6.78622 15.9551C6.98476 15.9551 7.08405 15.8912 7.08405 15.7636 7.08405 15.7211 6.96349 15.5721 6.7224 15.3169 6.48131 15.0616 6.19056 14.6857 5.85019 14.1894 5.50981 13.693 5.16235 13.0831 4.80779 12.3599 4.45323 11.6366 4.1554 10.658 3.91431 9.42412 3.67322 8.19026 3.55266 6.82168 3.55266 5.31835 3.55266 3.81502 3.67322 2.45353 3.91431 1.23386 4.1554 0.0141823 4.44614-0.971487 4.78652-1.72315 5.12689-2.4748 5.47435-3.08464 5.82891-3.55266 6.18348-4.02067 6.48131-4.39651 6.7224-4.68015 6.96349-4.96379 7.08405-5.1127 7.08405-5.12689 7.08405-5.25453 6.97768-5.31835 6.76495-5.31835L6.70112-5.31835 6.42457-5.31835 5.82891-4.80779C4.49577-3.60229 3.5243-2.09898 2.91446-0.297828 2.30461 1.50332 1.9997 3.37539 1.9997 5.31835Z" transform="matrix(1 0 0 -1.20021 247.082 55.5112)"/><path d="M4.97798 13.5512C4.93543 13.5512 4.8787 13.5512 4.80779 13.5512 4.45323 13.5512 4.24049 13.5582 4.16959 13.5724 4.09868 13.5866 4.06322 13.6646 4.06322 13.8064 4.06322 14.1894 4.14123 14.4234 4.29723 14.5085 4.32559 14.5227 5.01344 14.5297 6.36075 14.5297 7.45278 14.5297 8.07681 14.5297 8.23281 14.5297 8.38881 14.5297 8.48809 14.4872 8.53064 14.4021 11.5231 7.36768 13.0477 3.75831 13.1044 3.57393L14.2532 8.10517C15.0048 11.0976 15.3807 12.6931 15.3807 12.8917 15.3807 13.2746 14.9269 13.4944 14.0192 13.5512 13.6788 13.5512 13.5086 13.6292 13.5086 13.7852 13.5086 13.8135 13.5228 13.8986 13.5512 14.0405 13.6079 14.2674 13.6504 14.4021 13.6788 14.4446 13.7072 14.4872 13.7781 14.5156 13.8915 14.5297 13.9341 14.5297 14.1539 14.5227 14.551 14.5085 14.9481 14.4943 15.5367 14.4801 16.3167 14.4659 17.0258 14.4659 17.5648 14.473 17.9335 14.4872 18.3022 14.5014 18.515 14.5085 18.5717 14.5085 18.7844 14.5085 18.8908 14.4376 18.8908 14.2957 18.8908 13.9837 18.8341 13.771 18.7206 13.6575 18.6922 13.5866 18.5362 13.5512 18.2526 13.5512 17.2457 13.4944 16.6145 13.2108 16.3593 12.7002L13.1895 0.148914C13.1612 0.0496379 13.0122 0 12.7428 0 12.5442 0 12.4237 0.0141823 12.3811 0.0425468 12.3386 0.0850936 11.4238 2.23371 9.63686 6.48839L6.93513 12.8491 5.55236 7.31805C4.63052 3.68738 4.16959 1.80824 4.16959 1.6806 4.24049 1.21258 4.75105 0.978577 5.70127 0.978577L5.91401 0.978577C5.9991 0.907666 6.04165 0.850936 6.04165 0.80839 6.04165 0.765843 6.02746 0.631112 5.9991 0.404195 5.94237 0.219825 5.87146 0.0850936 5.78637 0L5.50981 0C5.07016 0.0283645 4.30431 0.0425468 3.21229 0.0425468 2.81517 0.0425468 2.45353 0.0425468 2.12734 0.0425468 1.80115 0.0425468 1.53878 0.0425468 1.34022 0.0425468 1.14167 0.0425468 1.02112 0.0354558 0.978577 0.0212734 0.765843 0.0212734 0.659476 0.0850936 0.659476 0.212734 0.659476 0.269464 0.680749 0.382921 0.723296 0.553109 0.765843 0.723296 0.801299 0.822573 0.829663 0.850936 0.858027 0.93603 1.02112 0.978577 1.31895 0.978577 2.28334 1.02112 2.90737 1.29768 3.19101 1.80824 3.24775 1.89333 3.7512 3.85757 4.70142 7.70097L6.14802 13.4873C6.11966 13.5015 5.72963 13.5228 4.97798 13.5512Z" transform="matrix(1 0 0 -1.20021 255.358 55.5112)"/><path d="M0.446742 6.10547C0.446742 6.21892 0.510562 6.43876 0.638202 6.76495 0.765843 7.09113 0.943121 7.45988 1.17004 7.87116 1.39695 8.28244 1.70896 8.637 2.10607 8.93483 2.50318 9.23266 2.92154 9.38866 3.3612 9.40285 4.01359 9.40285 4.50288 9.22558 4.82906 8.87101 5.15525 8.51645 5.31835 8.09809 5.31835 7.61588 5.31835 7.3606 5.07726 6.5664 4.59506 5.23326 4.11285 3.90012 3.87176 2.90027 3.87176 2.23371 3.87176 1.62387 3.97104 1.1984 4.16959 0.957304 4.36813 0.716206 4.66596 0.588565 5.06307 0.574382 5.46018 0.560199 5.836 0.680749 6.19056 0.93603 6.54513 1.19131 6.80749 1.43241 6.97768 1.65933L7.21169 2.02097C7.24004 2.0777 7.50951 3.15555 8.02008 5.25453 8.44554 6.95641 8.70083 7.94917 8.78592 8.23281 8.87101 8.51645 8.9703 8.7221 9.08375 8.84974 9.32484 9.06247 9.58012 9.16884 9.84959 9.16884 10.0907 9.16884 10.268 9.09794 10.3814 8.95611 10.4949 8.81428 10.5516 8.67955 10.5516 8.55191L8.93483 1.78697C8.92064 1.71606 8.91356 1.6026 8.91356 1.44659 8.91356 1.09203 8.96319 0.858027 9.06247 0.744569 9.16176 0.631112 9.31067 0.567292 9.50922 0.553109 9.82123 0.595656 10.0694 0.81548 10.2538 1.21258 10.4382 1.60969 10.6509 2.23371 10.892 3.08464 10.9203 3.1981 11.0622 3.25483 11.3175 3.25483 11.5869 3.25483 11.7217 3.19101 11.7217 3.06337 11.7075 2.99247 11.6933 2.89318 11.6791 2.76554 11.6649 2.6379 11.6011 2.41098 11.4876 2.08479 11.3742 1.7586 11.2536 1.45368 11.126 1.17004 10.9984 0.886393 10.8211 0.616929 10.5942 0.361648 10.3672 0.106367 10.112-0.0709113 9.82832-0.170187 9.71486-0.198552 9.54468-0.212734 9.31775-0.212734 8.38172-0.212734 7.73644 0.18437 7.38187 0.978577 7.35352 0.964394 7.27551 0.893483 7.14787 0.765843 7.02023 0.638202 6.89259 0.531835 6.76495 0.446742 6.6373 0.361648 6.48131 0.255281 6.29693 0.12764 6.11255 0 5.90692-0.0850936 5.68-0.12764 5.45308-0.170187 5.21199-0.205643 4.95671-0.234008 4.33269-0.234008 3.77958-0.106367 3.29738 0.148914 2.55989 0.588565 2.19116 1.34022 2.19116 2.4039 2.19116 3.21229 2.43936 4.26887 2.93573 5.57363 3.4321 6.8784 3.6803 7.70806 3.6803 8.06262 3.6803 8.07681 3.6803 8.09098 3.6803 8.10517 3.6803 8.23281 3.6803 8.3179 3.6803 8.36045 3.6803 8.403 3.65194 8.45263 3.59521 8.50937 3.53847 8.5661 3.46048 8.59446 3.3612 8.59446L3.27611 8.59446C2.94992 8.59446 2.65209 8.45973 2.38262 8.19026 2.11316 7.92079 1.90042 7.63007 1.74442 7.31805 1.58842 7.00604 1.46787 6.70821 1.38277 6.42457 1.29768 6.14093 1.24095 5.98491 1.21258 5.95656 1.18422 5.9282 1.07076 5.91401 0.87221 5.91401L0.574382 5.91401C0.489288 5.9991 0.446742 6.06292 0.446742 6.10547Z" transform="matrix(1 0 0 -1.20021 274.248 55.5112)"/><path d="M0.446742 6.10547C0.460925 6.19056 0.482198 6.30401 0.510562 6.44584 0.538926 6.58767 0.624019 6.85712 0.765843 7.25423 0.907666 7.65134 1.04949 7.98461 1.19131 8.25408 1.33313 8.52355 1.56005 8.78592 1.87206 9.0412 2.18408 9.29648 2.49607 9.41704 2.80809 9.40285 3.12011 9.38866 3.42502 9.33903 3.72285 9.25393 4.02067 9.16884 4.23341 9.0412 4.36105 8.87101 4.48869 8.70083 4.60214 8.54483 4.70142 8.403 4.80071 8.26117 4.85742 8.12644 4.87161 7.9988L4.91416 7.84989C4.91416 7.82153 4.92124 7.80734 4.93543 7.80734L5.16944 8.04135C6.02038 8.94902 7.02023 9.40285 8.16899 9.40285 8.41008 9.40285 8.62992 9.38866 8.82847 9.3603 9.02701 9.33194 9.21139 9.28229 9.38157 9.21139 9.55176 9.14048 9.68649 9.06956 9.78577 8.99865 9.88505 8.92775 9.99142 8.84266 10.1049 8.74337 10.2183 8.64409 10.2892 8.55191 10.3176 8.46682 10.346 8.38172 10.4027 8.28955 10.4878 8.19026 10.5729 8.09098 10.6012 8.00589 10.5729 7.93498 10.5445 7.86408 10.5658 7.80026 10.6367 7.74352 10.7076 7.68679 10.7218 7.63716 10.6793 7.59461L10.8494 7.80734C11.7429 8.87101 12.7995 9.40285 14.0192 9.40285 14.785 9.40285 15.4019 9.21139 15.87 8.82847 16.338 8.44554 16.5791 7.88535 16.5933 7.14787 16.5933 6.42457 16.3238 5.30416 15.7849 3.78667 15.246 2.26917 14.9765 1.3615 14.9765 1.06367 14.9907 0.865119 15.0261 0.730386 15.0828 0.659476 15.1396 0.588565 15.246 0.553109 15.4019 0.553109 15.7991 0.553109 16.1678 0.765843 16.5082 1.19131 16.8485 1.61678 17.1251 2.19825 17.3378 2.93573 17.3804 3.09173 17.4229 3.18393 17.4655 3.21229 17.508 3.24064 17.6215 3.25483 17.8058 3.25483 18.0895 3.25483 18.2313 3.1981 18.2313 3.08464 18.2313 3.07046 18.203 2.96409 18.1462 2.76554 18.0328 2.35426 17.8768 1.95006 17.6782 1.55296 17.4797 1.15585 17.1535 0.758752 16.6996 0.361648 16.2458-0.0354558 15.7565-0.226917 15.2318-0.212734 14.5652-0.212734 14.083-0.0212734 13.7852 0.361648 13.4873 0.744569 13.3384 1.14167 13.3384 1.55296 13.3384 1.82242 13.5937 2.67337 14.1043 4.10577 14.6148 5.53817 14.8772 6.61603 14.8914 7.33933 14.8914 8.17607 14.5794 8.59446 13.9554 8.59446L13.849 8.59446C12.6293 8.59446 11.6011 7.87825 10.7643 6.44584L10.6154 6.19056 9.91341 3.33993C9.44539 1.48205 9.17592 0.482198 9.10502 0.340375 8.92064-0.0425468 8.61573-0.234008 8.19026-0.234008 8.00589-0.234008 7.85697-0.18437 7.74352-0.0850936 7.63007 0.0141823 7.55206 0.099276 7.50951 0.170187 7.46697 0.241098 7.44569 0.312011 7.44569 0.382921 7.44569 0.538926 7.68679 1.55296 8.16899 3.42502L8.93483 6.53094C8.97738 6.74367 8.99865 7.01314 8.99865 7.33933 8.99865 8.17607 8.68664 8.59446 8.06262 8.59446L7.95626 8.59446C6.73659 8.59446 5.70836 7.87825 4.87161 6.44584L4.7227 6.19056 4.02067 3.33993C3.55266 1.48205 3.28319 0.482198 3.21229 0.340375 3.02791-0.0425468 2.723-0.234008 2.29753-0.234008 2.11316-0.234008 1.96424-0.191461 1.85079-0.106367 1.73733-0.0212734 1.65933 0.0638202 1.61678 0.148914 1.57423 0.234008 1.56005 0.304918 1.57423 0.361648 1.57423 0.546018 1.8437 1.70896 2.38262 3.85049 2.93573 6.03456 3.21229 7.17622 3.21229 7.27551 3.25483 7.48824 3.27611 7.6797 3.27611 7.84989 3.27611 8.36045 3.09883 8.61573 2.74427 8.61573 2.43225 8.61573 2.16989 8.41719 1.95715 8.02008 1.74442 7.62297 1.58132 7.19041 1.46787 6.7224 1.35441 6.25438 1.26931 5.9991 1.21258 5.95656 1.18422 5.9282 1.07076 5.91401 0.87221 5.91401L0.574382 5.91401C0.489288 5.9991 0.446742 6.06292 0.446742 6.10547Z" transform="matrix(1 0 0 -1.20021 286.417 55.5112)"/><path d="M1.9997 5.31835C1.9997 6.29693 2.07061 7.22588 2.21243 8.10517 2.35426 8.98446 2.51735 9.74322 2.70172 10.3814 2.8861 11.0196 3.14846 11.6436 3.48884 12.2535 3.82921 12.8633 4.09868 13.3384 4.29723 13.6788 4.49577 14.0192 4.7936 14.3879 5.19071 14.785 5.58782 15.1821 5.82183 15.4232 5.89274 15.5083 5.96364 15.5934 6.14093 15.7423 6.42457 15.9551L6.70112 15.9551 6.78622 15.9551C6.98476 15.9551 7.08405 15.8912 7.08405 15.7636 7.08405 15.7211 6.96349 15.5721 6.7224 15.3169 6.48131 15.0616 6.19056 14.6857 5.85019 14.1894 5.50981 13.693 5.16235 13.0831 4.80779 12.3599 4.45323 11.6366 4.1554 10.658 3.91431 9.42412 3.67322 8.19026 3.55266 6.82168 3.55266 5.31835 3.55266 3.81502 3.67322 2.45353 3.91431 1.23386 4.1554 0.0141823 4.44614-0.971487 4.78652-1.72315 5.12689-2.4748 5.47435-3.08464 5.82891-3.55266 6.18348-4.02067 6.48131-4.39651 6.7224-4.68015 6.96349-4.96379 7.08405-5.1127 7.08405-5.12689 7.08405-5.25453 6.97768-5.31835 6.76495-5.31835L6.70112-5.31835 6.42457-5.31835 5.82891-4.80779C4.49577-3.60229 3.5243-2.09898 2.91446-0.297828 2.30461 1.50332 1.9997 3.37539 1.9997 5.31835Z" transform="matrix(1 0 0 -1.20021 305.095 55.5112)"/><path d="M2.78682 6.14802C2.78682 6.60184 2.90027 7.06277 3.12719 7.53079 3.35412 7.9988 3.7512 8.43136 4.3185 8.82847 4.8858 9.22558 5.57363 9.41704 6.38202 9.40285 7.26132 9.40285 7.89952 9.21139 8.29663 8.82847 8.69374 8.44554 8.89937 8.02008 8.91356 7.55206 8.91356 7.09824 8.793 6.76495 8.55191 6.55221 8.31082 6.33948 8.04135 6.22603 7.74352 6.21184 7.55915 6.21184 7.38896 6.26857 7.23296 6.38202 7.07696 6.49547 6.99187 6.67985 6.97768 6.93513 6.97768 7.16206 7.0415 7.3606 7.16914 7.53079 7.29678 7.70097 7.41734 7.82862 7.53079 7.91371 7.64424 7.9988 7.73644 8.04135 7.80734 8.04135 7.82153 8.04135 7.82862 8.04843 7.82862 8.06262 7.82862 8.10517 7.77898 8.16899 7.6797 8.25408 7.58042 8.33918 7.40315 8.41719 7.14787 8.48809 6.89259 8.559 6.61603 8.60154 6.3182 8.61573 5.63745 8.61573 5.14108 8.43136 4.82906 8.06262 4.51705 7.69389 4.35397 7.31805 4.33978 6.93513 4.33978 6.58057 4.4745 6.33239 4.74397 6.19056 5.01344 6.04873 5.40345 5.9282 5.91401 5.82891 6.42457 5.72963 6.7933 5.62326 7.02023 5.50981 7.95626 5.09854 8.42427 4.41779 8.42427 3.46757 8.42427 3.07046 8.34626 2.67337 8.19026 2.27626 8.03427 1.87915 7.80026 1.48205 7.48824 1.08494 7.17622 0.68784 6.72948 0.375831 6.14802 0.148914 5.56655-0.0780026 4.89997-0.198552 4.14832-0.212734 3.05629-0.212734 2.28334-0.00709113 1.82951 0.404195 1.37568 0.81548 1.14167 1.29768 1.12749 1.85079 1.12749 2.4039 1.2764 2.80101 1.57423 3.0421 1.87206 3.28319 2.18408 3.40375 2.51026 3.40375 2.723 3.40375 2.92154 3.33993 3.10592 3.21229 3.29029 3.08464 3.38956 2.86483 3.40375 2.55281 3.40375 2.18408 3.27611 1.87206 3.02082 1.61678 2.76554 1.3615 2.54573 1.23386 2.36135 1.23386 2.33299 1.21967 2.31172 1.21258 2.29753 1.21258 2.28334 1.21258 2.27626 1.1984 2.27626 1.17004 2.29044 1.12749 2.34716 1.07076 2.44644 0.99985 2.54573 0.92894 2.76554 0.836754 3.10592 0.723296 3.44629 0.609839 3.8363 0.560199 4.27596 0.574382 4.78652 0.574382 5.22618 0.652385 5.59491 0.80839 5.96364 0.964394 6.23311 1.16295 6.4033 1.40405 6.57348 1.64514 6.69404 1.86497 6.76495 2.06352 6.83585 2.26207 6.87131 2.43936 6.87131 2.59536 6.87131 2.99247 6.7224 3.29029 6.42457 3.48884 6.12674 3.68738 5.78637 3.80794 5.40345 3.85049 5.02052 3.89303 4.60214 3.9994 4.14832 4.16959 3.69449 4.33978 3.3612 4.58797 3.14846 4.91416 2.90737 5.26872 2.78682 5.68 2.78682 6.14802Z" transform="matrix(1 0 0 -1.20021 313.37 55.5112)"/><path d="M1.65933 0.744569C1.65933 0.744569 1.65933 0.921847 1.65933 1.2764 1.65933 1.63096 1.77278 1.93588 1.9997 2.19116 2.22662 2.44644 2.53154 2.57408 2.91446 2.57408 3.31157 2.57408 3.66611 2.39681 3.97813 2.04225 4.29015 1.68769 4.45323 1.06367 4.46742 0.170187 4.46742-0.326192 4.4036-0.80839 4.27596-1.2764 4.14832-1.74442 3.9994-2.14861 3.82921-2.48899 3.65903-2.82936 3.47465-3.12011 3.27611-3.3612 3.07756-3.60229 2.90737-3.79375 2.76554-3.93558 2.62371-4.07741 2.53154-4.14123 2.48899-4.12704 2.43225-4.12704 2.34008-4.06322 2.21243-3.93558 2.08479-3.80794 2.02097-3.71576 2.02097-3.65903 2.02097-3.60229 2.09898-3.48884 2.25498-3.31865 2.41098-3.14846 2.58827-2.93573 2.78682-2.68045 2.98536-2.42517 3.16974-2.07061 3.33993-1.61678 3.51011-1.16295 3.62356-0.645293 3.6803-0.0638202L3.6803 0.191461 3.65903 0.170187C3.63067 0.156005 3.59521 0.141823 3.55266 0.12764 3.51011 0.113458 3.46757 0.0921847 3.42502 0.0638202 3.38247 0.0354558 3.31865 0.0212734 3.23356 0.0212734 3.14846 0.0212734 3.06337 0.0141823 2.97828 0 2.59536 0 2.28334 0.120549 2.04225 0.361648Z" transform="matrix(1 0 0 -1.20021 323.347 55.5112)"/><path d="M0.723296 3.38247C0.723296 4.92835 1.33313 6.3182 2.55281 7.55206 3.77248 8.78592 5.09143 9.40285 6.50966 9.40285 7.30386 9.40285 7.9279 9.23266 8.38172 8.89229 8.83555 8.55191 9.06956 8.10517 9.08375 7.55206 9.08375 7.14078 8.94902 6.7933 8.67955 6.50966 8.41008 6.22603 8.06971 6.07711 7.65843 6.06292 7.38896 6.06292 7.17622 6.13383 7.02023 6.27566 6.86423 6.41749 6.78622 6.63022 6.78622 6.91386 6.78622 7.1975 6.86423 7.43861 7.02023 7.63716 7.17622 7.8357 7.33224 7.98461 7.48824 8.0839 7.64424 8.18318 7.74352 8.22573 7.78607 8.21154L7.80734 8.21154C7.80734 8.23989 7.7648 8.28244 7.6797 8.33918 7.59461 8.39591 7.44569 8.45263 7.23296 8.50937 7.02023 8.5661 6.77913 8.59446 6.50966 8.59446 6.0842 8.59446 5.68 8.49518 5.29708 8.29663 4.99925 8.16899 4.69434 7.94917 4.38232 7.63716 3.75831 7.01314 3.30446 6.13383 3.02082 4.99925 2.73719 3.86468 2.58827 3.0421 2.57408 2.53154 2.57408 1.87915 2.75846 1.38986 3.12719 1.06367 3.43921 0.723296 3.85049 0.553109 4.36105 0.553109L4.44614 0.553109C6.03456 0.553109 7.34641 1.15585 8.38172 2.36135 8.50937 2.50318 8.59446 2.57408 8.637 2.57408 8.69374 2.57408 8.78592 2.51026 8.91356 2.38262 9.0412 2.25498 9.1121 2.1557 9.12629 2.08479 9.14048 2.01388 9.07666 1.90752 8.93483 1.76569 8.793 1.62387 8.58737 1.42532 8.3179 1.17004 8.04843 0.914757 7.72933 0.702023 7.3606 0.531835 6.99187 0.361648 6.53802 0.18437 5.9991 0 5.46018-0.18437 4.89288-0.262371 4.29723-0.234008 3.23356-0.234008 2.37554 0.106367 1.72315 0.787116 1.07076 1.46787 0.737479 2.33299 0.723296 3.38247Z" transform="matrix(1 0 0 -1.20021 332.808 55.5112)"/><path d="M0.702023 3.33993C0.702023 4.77233 1.24095 6.13383 2.3188 7.42442 3.39666 8.71501 4.60925 9.36739 5.95656 9.38157 6.67985 9.38157 7.31805 9.03412 7.87116 8.33918 8.09809 8.76465 8.42427 8.97738 8.84974 8.97738 9.03412 8.97738 9.1972 8.92064 9.33903 8.80719 9.48086 8.69374 9.55176 8.55191 9.55176 8.38172 9.55176 8.19735 9.2894 7.06277 8.76465 4.97798 8.23989 2.89318 7.97045 1.71606 7.95626 1.44659 7.95626 1.09203 8.00589 0.858027 8.10517 0.744569 8.20445 0.631112 8.35337 0.567292 8.55191 0.553109 8.67955 0.567292 8.82138 0.631112 8.97738 0.744569 9.27521 1.02821 9.56595 1.70896 9.84959 2.78682 9.93468 3.07046 10.0056 3.21937 10.0623 3.23356 10.0907 3.24775 10.1616 3.25483 10.2751 3.25483L10.3602 3.25483C10.6296 3.25483 10.7643 3.19101 10.7643 3.06337 10.7643 2.97828 10.7289 2.78682 10.658 2.48899 10.5871 2.19116 10.4452 1.80824 10.2325 1.34022 10.0198 0.87221 9.79285 0.517652 9.55176 0.276554 9.36739 0.0921847 9.14048-0.0567292 8.87101-0.170187 8.75756-0.198552 8.58737-0.212734 8.36045-0.212734 7.87825-0.212734 7.47405-0.106367 7.14787 0.106367 6.82168 0.319101 6.60895 0.538926 6.50966 0.765843L6.38202 1.08494C6.36783 1.09913 6.33948 1.09203 6.29693 1.06367 6.26857 1.03531 6.24019 1.00694 6.21184 0.978577 5.37509 0.18437 4.52415-0.212734 3.65903-0.212734 2.87899-0.212734 2.19116 0.0709113 1.59551 0.638202 0.99985 1.20549 0.702023 2.10607 0.702023 3.33993ZM7.46697 6.97768C7.46697 7.06277 7.4315 7.21877 7.3606 7.44569 7.2897 7.67262 7.12659 7.92079 6.87131 8.19026 6.61603 8.45973 6.28985 8.60154 5.89274 8.61573 5.39636 8.61573 4.92124 8.39591 4.46742 7.95626 4.01359 7.5166 3.65903 6.94222 3.40375 6.23311 2.99247 5.1127 2.70172 3.94977 2.53154 2.74427 2.53154 2.70172 2.53154 2.62371 2.53154 2.51026 2.53154 2.39681 2.52445 2.31172 2.51026 2.25498 2.51026 1.61678 2.6379 1.17713 2.89318 0.93603 3.14846 0.694932 3.45338 0.567292 3.80794 0.553109 4.34686 0.553109 4.8787 0.787116 5.40345 1.25513 5.9282 1.72315 6.24019 2.08479 6.33948 2.34008 6.36783 2.39681 6.5593 3.15555 6.91386 4.61633 7.26842 6.07711 7.45278 6.86423 7.46697 6.97768Z" transform="matrix(1 0 0 -1.20021 342.019 55.5112)"/><path d="M0.553109 8.19026C0.453832 8.28955 0.404195 8.36045 0.404195 8.403 0.404195 8.45973 0.425468 8.57318 0.468015 8.74337 0.510562 8.91356 0.546018 9.01284 0.574382 9.0412 0.602746 9.1121 0.666566 9.14757 0.765843 9.14757 0.865119 9.14757 1.22677 9.15465 1.85079 9.16884L2.97828 9.16884 3.38247 10.8707C3.42502 11.0267 3.47465 11.2324 3.53139 11.4876 3.58812 11.7429 3.63775 11.9273 3.6803 12.0408 3.72285 12.1542 3.76539 12.296 3.80794 12.4662 3.85049 12.6364 3.90722 12.757 3.97813 12.8279 4.04903 12.8988 4.11996 12.9839 4.19086 13.0831 4.26177 13.1824 4.36105 13.2463 4.48869 13.2746 4.61633 13.303 4.74397 13.3172 4.87161 13.3172 5.12689 13.303 5.30416 13.225 5.40345 13.0831 5.50273 12.9413 5.55236 12.8066 5.55236 12.679 5.55236 12.5797 5.48854 12.2464 5.3609 11.6791 5.23326 11.1118 5.09143 10.5516 4.93543 9.9985L4.7227 9.21139C4.7227 9.18303 5.07726 9.16884 5.78637 9.16884L6.87131 9.16884C6.97059 9.06956 7.02023 8.99157 7.02023 8.93483 7.02023 8.62282 6.92805 8.37464 6.74367 8.19026L4.46742 8.19026 3.70157 5.10562C3.14846 2.83645 2.87191 1.61678 2.87191 1.44659 2.87191 0.850936 3.06337 0.553109 3.44629 0.553109 3.94267 0.553109 4.42487 0.794207 4.89288 1.2764 5.3609 1.7586 5.73674 2.35426 6.02038 3.06337 6.04873 3.14846 6.0842 3.1981 6.12674 3.21229 6.16929 3.22647 6.27566 3.24064 6.44584 3.25483L6.53094 3.25483C6.74367 3.25483 6.85004 3.1981 6.85004 3.08464 6.85004 3.0421 6.82877 2.957 6.78622 2.82936 6.71531 2.60244 6.58767 2.33299 6.4033 2.02097 6.21892 1.70896 5.97783 1.37568 5.68 1.02112 5.38217 0.666566 5.02052 0.368738 4.59506 0.12764 4.16959-0.113458 3.73704-0.234008 3.29738-0.234008 2.87191-0.234008 2.46772-0.12764 2.08479 0.0850936 1.70187 0.297828 1.42532 0.666566 1.25513 1.19131 1.22677 1.30477 1.21258 1.49623 1.21258 1.76569L1.21258 2.14861 1.95715 5.12689C2.45353 7.12659 2.70881 8.13353 2.723 8.14772 2.723 8.17607 2.36135 8.19026 1.63805 8.19026L0.553109 8.19026Z" transform="matrix(1 0 0 -1.20021 353.273 55.5112)"/><path d="M0.829663 3.57393C0.829663 4.38232 0.964394 5.11981 1.23386 5.78637 1.50332 6.45293 1.85079 7.00604 2.27626 7.44569 2.70172 7.88535 3.17682 8.25408 3.70157 8.55191 4.22633 8.84974 4.7227 9.06956 5.19071 9.21139 5.65873 9.35322 6.10547 9.41704 6.53094 9.40285L6.59476 9.40285C7.23296 9.40285 7.78607 9.24685 8.25408 8.93483 8.7221 8.62282 8.95611 8.16191 8.95611 7.55206 8.95611 6.27566 8.16899 5.43891 6.59476 5.0418 5.89982 4.85742 4.94962 4.75816 3.74412 4.74397 3.21937 4.74397 2.94992 4.72978 2.93573 4.70142 2.93573 4.67307 2.89318 4.42487 2.80809 3.95685 2.723 3.48884 2.67337 3.07756 2.65918 2.723 2.65918 2.05643 2.80809 1.53169 3.10592 1.14876 3.40375 0.765843 3.85049 0.567292 4.44614 0.553109 5.0418 0.538926 5.70127 0.673659 6.42457 0.957304 7.14787 1.24095 7.80026 1.70896 8.38172 2.36135 8.50937 2.50318 8.59446 2.57408 8.637 2.57408 8.69374 2.57408 8.78592 2.51026 8.91356 2.38262 9.0412 2.25498 9.1121 2.1557 9.12629 2.08479 9.14048 2.01388 9.07666 1.90042 8.93483 1.74442 8.793 1.58842 8.58027 1.39695 8.29663 1.17004 8.01299 0.943121 7.68679 0.723296 7.31805 0.510562 6.94932 0.297828 6.50258 0.120549 5.97783-0.0212734 5.45308-0.163096 4.91416-0.234008 4.36105-0.234008 3.24064-0.234008 2.37554 0.141823 1.76569 0.893483 1.15585 1.64514 0.843846 2.53862 0.829663 3.57393ZM7.93498 7.50951C7.84989 8.247 7.36768 8.61573 6.48839 8.61573 6.02038 8.61573 5.58782 8.51645 5.19071 8.3179 4.7936 8.11936 4.4745 7.87825 4.23341 7.59461 3.99232 7.31097 3.78667 7.02023 3.61648 6.7224 3.44629 6.42457 3.33284 6.16929 3.27611 5.95656 3.21937 5.74382 3.18393 5.6091 3.16974 5.55236 3.16974 5.53817 3.31157 5.53109 3.59521 5.53109 5.1978 5.53109 6.3182 5.70127 6.95641 6.04165 7.59461 6.38202 7.92079 6.87131 7.93498 7.50951Z" transform="matrix(1 0 0 -1.20021 360.952 55.5112)"/><path d="M1.18818 0.646733C1.12802 0.646733 0.99266 0.676814 0.782096 0.736975 0.571531 0.797136 0.461236 0.857297 0.451209 0.917458 0.451209 0.987647 0.726947 2.15076 1.27843 4.40681 1.82991 6.66285 2.13572 7.84101 2.19588 7.94128 2.34629 8.26213 2.60698 8.42257 2.97798 8.42257 3.17851 8.42257 3.38908 8.34737 3.60967 8.19696 3.83027 8.04656 3.94056 7.82597 3.94056 7.53519 3.94056 7.48506 3.93053 7.40986 3.91048 7.30959 3.90045 7.23939 3.46428 6.1214 2.60197 3.9556 1.73967 1.7898 1.29347 0.696867 1.26339 0.676814 1.2333 0.65676 1.20824 0.646733 1.18818 0.646733Z" transform="matrix(1 0 0 -1.20021 371.568 48.1323)"/><path d="M1.2764 15.9338 1.3615 15.9551C1.43241 15.9551 1.50332 15.9551 1.57423 15.9551L1.82951 15.9551 2.42517 15.4445C3.75831 14.239 4.72978 12.7357 5.33963 10.9345 5.94947 9.13338 6.25438 7.26132 6.25438 5.31835 6.25438 4.35397 6.18348 3.42502 6.04165 2.53154 5.89982 1.63805 5.73674 0.8793 5.55236 0.255281 5.36798-0.368738 5.10562-0.99276 4.76524-1.61678 4.42487-2.24079 4.1554-2.71591 3.95685-3.0421 3.75831-3.36828 3.46757-3.72993 3.08464-4.12704 2.70172-4.52415 2.4748-4.75816 2.4039-4.82906 2.33299-4.89997 2.16989-5.03471 1.91461-5.23326 1.87206-5.27581 1.8437-5.30416 1.82951-5.31835L1.57423-5.31835C1.46078-5.31835 1.38277-5.31835 1.34022-5.31835 1.29768-5.31835 1.26222-5.29708 1.23386-5.25453 1.20549-5.21199 1.18422-5.14817 1.17004-5.06307 1.18422-5.04888 1.26222-4.95671 1.40405-4.78652 3.60229-2.50318 4.70142 0.865119 4.70142 5.31835 4.70142 9.77158 3.60229 13.1399 1.40405 15.4232 1.26222 15.5934 1.18422 15.6856 1.17004 15.6998 1.17004 15.8132 1.20549 15.8912 1.2764 15.9338Z" transform="matrix(1 0 0 -1.20021 376.767 55.5112)"/><path d="M1.2764 15.9338 1.3615 15.9551C1.43241 15.9551 1.50332 15.9551 1.57423 15.9551L1.82951 15.9551 2.42517 15.4445C3.75831 14.239 4.72978 12.7357 5.33963 10.9345 5.94947 9.13338 6.25438 7.26132 6.25438 5.31835 6.25438 4.35397 6.18348 3.42502 6.04165 2.53154 5.89982 1.63805 5.73674 0.8793 5.55236 0.255281 5.36798-0.368738 5.10562-0.99276 4.76524-1.61678 4.42487-2.24079 4.1554-2.71591 3.95685-3.0421 3.75831-3.36828 3.46757-3.72993 3.08464-4.12704 2.70172-4.52415 2.4748-4.75816 2.4039-4.82906 2.33299-4.89997 2.16989-5.03471 1.91461-5.23326 1.87206-5.27581 1.8437-5.30416 1.82951-5.31835L1.57423-5.31835C1.46078-5.31835 1.38277-5.31835 1.34022-5.31835 1.29768-5.31835 1.26222-5.29708 1.23386-5.25453 1.20549-5.21199 1.18422-5.14817 1.17004-5.06307 1.18422-5.04888 1.26222-4.95671 1.40405-4.78652 3.60229-2.50318 4.70142 0.865119 4.70142 5.31835 4.70142 9.77158 3.60229 13.1399 1.40405 15.4232 1.26222 15.5934 1.18422 15.6856 1.17004 15.6998 1.17004 15.8132 1.20549 15.8912 1.2764 15.9338Z" transform="matrix(1 0 0 -1.20021 385.042 55.5112)"/><path d="M2.55281 4.68015 282.33 4.68015 282.33 5.95656 2.55281 5.95656Z" transform="matrix(1 0 0 -1.20021 113.115 37.3831)"/></g></svg>