<svg width="308" height="69" xmlns="http://www.w3.org/2000/svg" xmlns:xlink="http://www.w3.org/1999/xlink" xml:space="preserve" overflow="hidden"><g><path d="M3.26715 7.20768C3.26715 7.73973 3.40016 8.28011 3.66619 8.82879 3.93223 9.37747 4.39776 9.88458 5.06284 10.3501 5.72791 10.8157 6.5343 11.0401 7.48202 11.0235 8.51287 11.0235 9.26108 10.7991 9.72663 10.3501 10.1922 9.90121 10.4333 9.40241 10.4499 8.85373 10.4499 8.32168 10.3086 7.93094 10.0259 7.68154 9.74327 7.43214 9.42735 7.29914 9.07819 7.2825 8.86203 7.2825 8.66251 7.34902 8.47963 7.48202 8.29674 7.61503 8.19698 7.83118 8.18035 8.13047 8.18035 8.3965 8.25517 8.62927 8.40481 8.82879 8.55445 9.02831 8.69578 9.17795 8.82879 9.27771 8.96179 9.37747 9.06988 9.42735 9.15301 9.42735 9.16964 9.42735 9.17795 9.43566 9.17795 9.45229 9.17795 9.50217 9.11976 9.57699 9.00337 9.67675 8.88697 9.77651 8.67915 9.86797 8.37987 9.95109 8.08059 10.0342 7.75636 10.0841 7.4072 10.1007 6.60912 10.1007 6.02719 9.88458 5.6614 9.45229 5.2956 9.02 5.10441 8.57939 5.08778 8.13047 5.08778 7.71479 5.24572 7.42384 5.56164 7.25756 5.87755 7.09129 6.33478 6.94998 6.93334 6.83358 7.5319 6.71719 7.96419 6.59249 8.23023 6.45948 9.32759 5.97731 9.87627 5.17923 9.87627 4.06523 9.87627 3.59968 9.78482 3.13415 9.60193 2.66859 9.41904 2.20304 9.1447 1.73749 8.77891 1.27194 8.41311 0.806395 7.88937 0.440609 7.20768 0.174581 6.526-0.091447 5.74452-0.232774 4.86332-0.249401 3.58307-0.249401 2.67689-0.00831335 2.14485 0.473862 1.61279 0.956036 1.33845 1.52134 1.32182 2.16979 1.32182 2.81823 1.4964 3.28379 1.84557 3.56643 2.19473 3.84908 2.56052 3.99041 2.94293 3.99041 3.19233 3.99041 3.4251 3.91559 3.64125 3.76595 3.85741 3.61631 3.97378 3.35861 3.99041 2.99281 3.99041 2.56052 3.84077 2.19473 3.54149 1.89545 3.24221 1.59617 2.9845 1.44652 2.76835 1.44652 2.7351 1.4299 2.71016 1.42158 2.69353 1.42158 2.67689 1.42158 2.66859 1.40496 2.66859 1.3717 2.68522 1.32182 2.75171 1.25532 2.86811 1.17218 2.9845 1.08905 3.24221 0.980976 3.64125 0.847963 4.04029 0.71495 4.49752 0.656755 5.01296 0.673382 5.61152 0.673382 6.12695 0.76483 6.55924 0.947723 6.99153 1.13062 7.30744 1.36339 7.50696 1.64605 7.70648 1.9287 7.84782 2.18641 7.93094 2.41919 8.01407 2.65195 8.05565 2.8598 8.05565 3.04269 8.05565 3.50825 7.88106 3.85741 7.5319 4.09017 7.18274 4.32294 6.7837 4.46427 6.33478 4.51415 5.88586 4.56403 5.39536 4.68874 4.86332 4.88826 4.33127 5.08778 3.94053 5.37875 3.69113 5.76116 3.40849 6.17683 3.26715 6.659 3.26715 7.20768Z" transform="matrix(1 0 0 -1.04545 0 43.4863)"/><path d="M4.58897 14.964C4.58897 15.3631 4.74692 15.7122 5.06284 16.0115 5.37875 16.3108 5.74452 16.4688 6.1602 16.4854 6.45948 16.4854 6.70888 16.3856 6.9084 16.1861 7.10792 15.9866 7.21599 15.7372 7.23262 15.4379 7.23262 15.0555 7.06635 14.7063 6.73382 14.3904 6.4013 14.0745 6.0355 13.9083 5.63646 13.8916 5.38706 13.8916 5.15429 13.9747 4.93814 14.141 4.72198 14.3073 4.60561 14.5816 4.58897 14.964ZM0.523742 7.1578C0.523742 7.29081 0.598562 7.54854 0.748202 7.93094 0.897843 8.31335 1.09736 8.73733 1.34676 9.20289 1.59617 9.66845 1.96195 10.0924 2.44413 10.4748 2.92629 10.8572 3.4251 11.0401 3.94053 11.0235 4.58897 11.0235 5.12935 10.8323 5.56164 10.4499 5.99392 10.0675 6.21838 9.55205 6.23502 8.90361 6.23502 8.62096 6.11862 8.15541 5.88586 7.50696 5.65309 6.85852 5.32054 5.98562 4.88826 4.88826 4.45597 3.79089 4.10681 2.85147 3.84077 2.07003 3.75765 1.70424 3.71607 1.43821 3.71607 1.27194 3.71607 0.856275 3.85741 0.648442 4.14005 0.648442 4.28969 0.648442 4.44764 0.673382 4.61391 0.723262 4.78019 0.773142 4.97138 0.88953 5.18754 1.07242 5.40369 1.25532 5.62815 1.54628 5.86092 1.94533 6.09368 2.34437 6.30154 2.83486 6.48442 3.41679 6.5343 3.61631 6.57588 3.73271 6.60912 3.76595 6.64237 3.7992 6.7837 3.81583 7.0331 3.81583 7.36563 3.81583 7.5319 3.73271 7.5319 3.56643 7.5319 3.43343 7.45708 3.1757 7.30744 2.79329 7.1578 2.41088 6.94998 1.98689 6.68394 1.52134 6.41791 1.0558 6.0438 0.64013 5.56164 0.274341 5.07947-0.091447 4.56403-0.274341 4.01535-0.274341 3.48331-0.274341 2.99281-0.0997603 2.54389 0.249401 2.09497 0.598562 1.86219 1.13062 1.84557 1.84557 1.84557 2.12822 1.88713 2.39425 1.97027 2.64365 2.0534 2.89305 2.41088 3.84077 3.04269 5.48682 3.6745 7.16611 4.04029 8.17204 4.14005 8.50457 4.23981 8.83709 4.298 9.16131 4.31463 9.47723 4.31463 9.87627 4.1733 10.0758 3.89065 10.0758L3.84077 10.0758C3.34197 10.0758 2.88474 9.80145 2.46907 9.25277 2.0534 8.70409 1.73749 8.00576 1.52134 7.1578 1.50472 7.14117 1.48809 7.11623 1.47146 7.08298 1.45484 7.04974 1.44652 7.0248 1.44652 7.00816 1.44652 6.99153 1.4299 6.97492 1.39664 6.95828 1.36339 6.94165 1.33845 6.93334 1.32182 6.93334 1.3052 6.93334 1.27194 6.93334 1.22206 6.93334 1.17218 6.93334 1.10568 6.93334 1.02254 6.93334L0.673382 6.93334C0.573622 7.0331 0.523742 7.10792 0.523742 7.1578Z" transform="matrix(1 0 0 -1.04545 11.6969 43.4863)"/><path d="M0.523742 7.1578C0.540369 7.25756 0.565309 7.39057 0.598562 7.55684 0.631814 7.72312 0.731575 8.03901 0.897843 8.50457 1.06411 8.97012 1.23038 9.36084 1.39664 9.67675 1.56291 9.99267 1.82894 10.3003 2.19473 10.5995 2.56052 10.8988 2.92629 11.0401 3.29209 11.0235 3.65789 11.0069 4.01535 10.9487 4.36451 10.8489 4.71368 10.7492 4.96308 10.5995 5.11272 10.4 5.26236 10.2005 5.39536 10.0176 5.51176 9.85133 5.62815 9.68506 5.69464 9.52711 5.71128 9.37747L5.76116 9.20289C5.76116 9.16964 5.76946 9.15301 5.7861 9.15301L6.06044 9.42735C7.05804 10.4915 8.23023 11.0235 9.57699 11.0235 9.85964 11.0235 10.1174 11.0069 10.3501 10.9736 10.5829 10.9404 10.7991 10.8822 10.9986 10.7991 11.1981 10.7159 11.356 10.6328 11.4724 10.5497 11.5888 10.4665 11.7135 10.3668 11.8465 10.2504 11.9795 10.134 12.0627 10.0259 12.0959 9.92615 12.1292 9.82639 12.1957 9.71833 12.2955 9.60193 12.3952 9.48554 12.4285 9.38577 12.3952 9.30265 12.362 9.21952 12.3869 9.1447 12.47 9.07819 12.5532 9.01167 12.5698 8.95349 12.5199 8.90361L12.7194 9.15301C13.7669 10.4 15.0056 11.0235 16.4355 11.0235 17.3334 11.0235 18.0566 10.7991 18.6053 10.3501 19.154 9.90121 19.4366 9.24446 19.4533 8.37987 19.4533 7.5319 19.1373 6.21838 18.5055 4.43933 17.8737 2.66028 17.5578 1.59617 17.5578 1.247 17.5745 1.01423 17.616 0.856275 17.6825 0.773142 17.749 0.69001 17.8737 0.648442 18.0566 0.648442 18.5222 0.648442 18.9545 0.897843 19.3535 1.39664 19.7525 1.89545 20.0768 2.57713 20.3262 3.44173 20.376 3.62462 20.4259 3.73271 20.4758 3.76595 20.5257 3.7992 20.6587 3.81583 20.8748 3.81583 21.2074 3.81583 21.3736 3.74932 21.3736 3.61631 21.3736 3.59968 21.3404 3.47498 21.2739 3.24221 21.1409 2.76004 20.958 2.28617 20.7252 1.82063 20.4924 1.35508 20.11 0.88953 19.578 0.423981 19.0459-0.0415669 18.4723-0.266028 17.8571-0.249401 17.0756-0.249401 16.5103-0.0249401 16.1612 0.423981 15.812 0.872903 15.6374 1.33845 15.6374 1.82063 15.6374 2.13653 15.9367 3.13415 16.5353 4.81344 17.1338 6.49273 17.4414 7.75636 17.4581 8.60433 17.4581 9.5853 17.0923 10.0758 16.3607 10.0758L16.236 10.0758C14.8061 10.0758 13.6006 9.23613 12.6197 7.55684L12.4451 7.25756 11.6221 3.91559C11.0734 1.73749 10.7575 0.565309 10.6744 0.399041 10.4582-0.0498802 10.1007-0.274341 9.60193-0.274341 9.38577-0.274341 9.21119-0.216147 9.07819-0.0997603 8.94518 0.0166267 8.85373 0.116387 8.80385 0.199521 8.75397 0.282653 8.72903 0.365789 8.72903 0.448921 8.72903 0.631814 9.01167 1.82063 9.57699 4.01535L10.4748 7.6566C10.5247 7.906 10.5497 8.22192 10.5497 8.60433 10.5497 9.5853 10.1839 10.0758 9.45229 10.0758L9.32759 10.0758C7.8977 10.0758 6.69225 9.23613 5.71128 7.55684L5.5367 7.25756 4.71368 3.91559C4.16499 1.73749 3.84908 0.565309 3.76595 0.399041 3.5498-0.0498802 3.19233-0.274341 2.69353-0.274341 2.47738-0.274341 2.3028-0.224461 2.16979-0.1247 2.03677-0.0249401 1.94533 0.0748202 1.89545 0.174581 1.84557 0.274341 1.82894 0.357474 1.84557 0.423981 1.84557 0.64013 2.16147 2.00352 2.79329 4.51415 3.44173 7.07468 3.76595 8.41311 3.76595 8.52951 3.81583 8.77891 3.84077 9.00337 3.84077 9.20289 3.84077 9.80145 3.63295 10.1007 3.21727 10.1007 2.85147 10.1007 2.54389 9.86797 2.29449 9.40241 2.04509 8.93685 1.85388 8.42975 1.72087 7.88106 1.58785 7.33238 1.48809 7.0331 1.42158 6.98322 1.38833 6.94998 1.25532 6.93334 1.02254 6.93334L0.673382 6.93334C0.573622 7.0331 0.523742 7.10792 0.523742 7.1578Z" transform="matrix(1 0 0 -1.04545 20.3012 43.4863)"/><path d="M2.34437 6.23502C2.34437 7.38226 2.4275 8.47132 2.59377 9.50217 2.76004 10.533 2.95123 11.4226 3.16739 12.1708 3.38355 12.919 3.69113 13.6505 4.09017 14.3655 4.48921 15.0804 4.80513 15.6374 5.0379 16.0365 5.27066 16.4355 5.61982 16.8678 6.08538 17.3334 6.55094 17.7989 6.82528 18.0816 6.9084 18.1813 6.99153 18.2811 7.19938 18.4557 7.5319 18.7051L7.85612 18.7051 7.95589 18.7051C8.18865 18.7051 8.30505 18.6302 8.30505 18.4806 8.30505 18.4307 8.16371 18.2561 7.88106 17.9569 7.59842 17.6576 7.25756 17.217 6.85852 16.635 6.45948 16.0531 6.05213 15.3381 5.63646 14.4902 5.22078 13.6422 4.87162 12.495 4.58897 11.0485 4.30633 9.60193 4.16499 7.99746 4.16499 6.23502 4.16499 4.47258 4.30633 2.87641 4.58897 1.44652 4.87162 0.0166267 5.21248-1.13893 5.61152-2.02015 6.01056-2.90135 6.41791-3.61631 6.83358-4.16499 7.24926-4.71368 7.59842-5.15429 7.88106-5.48682 8.16371-5.81934 8.30505-5.99392 8.30505-6.01056 8.30505-6.1602 8.18035-6.23502 7.93094-6.23502L7.85612-6.23502 7.5319-6.23502 6.83358-5.63646C5.27066-4.22318 4.13175-2.46076 3.41679-0.349161 2.70183 1.76243 2.34437 3.95717 2.34437 6.23502Z" transform="matrix(1 0 0 -1.04545 42.1986 43.4863)"/><path d="M3.26715 7.20768C3.26715 7.73973 3.40016 8.28011 3.66619 8.82879 3.93223 9.37747 4.39776 9.88458 5.06284 10.3501 5.72791 10.8157 6.5343 11.0401 7.48202 11.0235 8.51287 11.0235 9.26108 10.7991 9.72663 10.3501 10.1922 9.90121 10.4333 9.40241 10.4499 8.85373 10.4499 8.32168 10.3086 7.93094 10.0259 7.68154 9.74327 7.43214 9.42735 7.29914 9.07819 7.2825 8.86203 7.2825 8.66251 7.34902 8.47963 7.48202 8.29674 7.61503 8.19698 7.83118 8.18035 8.13047 8.18035 8.3965 8.25517 8.62927 8.40481 8.82879 8.55445 9.02831 8.69578 9.17795 8.82879 9.27771 8.96179 9.37747 9.06988 9.42735 9.15301 9.42735 9.16964 9.42735 9.17795 9.43566 9.17795 9.45229 9.17795 9.50217 9.11976 9.57699 9.00337 9.67675 8.88697 9.77651 8.67915 9.86797 8.37987 9.95109 8.08059 10.0342 7.75636 10.0841 7.4072 10.1007 6.60912 10.1007 6.02719 9.88458 5.6614 9.45229 5.2956 9.02 5.10441 8.57939 5.08778 8.13047 5.08778 7.71479 5.24572 7.42384 5.56164 7.25756 5.87755 7.09129 6.33478 6.94998 6.93334 6.83358 7.5319 6.71719 7.96419 6.59249 8.23023 6.45948 9.32759 5.97731 9.87627 5.17923 9.87627 4.06523 9.87627 3.59968 9.78482 3.13415 9.60193 2.66859 9.41904 2.20304 9.1447 1.73749 8.77891 1.27194 8.41311 0.806395 7.88937 0.440609 7.20768 0.174581 6.526-0.091447 5.74452-0.232774 4.86332-0.249401 3.58307-0.249401 2.67689-0.00831335 2.14485 0.473862 1.61279 0.956036 1.33845 1.52134 1.32182 2.16979 1.32182 2.81823 1.4964 3.28379 1.84557 3.56643 2.19473 3.84908 2.56052 3.99041 2.94293 3.99041 3.19233 3.99041 3.4251 3.91559 3.64125 3.76595 3.85741 3.61631 3.97378 3.35861 3.99041 2.99281 3.99041 2.56052 3.84077 2.19473 3.54149 1.89545 3.24221 1.59617 2.9845 1.44652 2.76835 1.44652 2.7351 1.4299 2.71016 1.42158 2.69353 1.42158 2.67689 1.42158 2.66859 1.40496 2.66859 1.3717 2.68522 1.32182 2.75171 1.25532 2.86811 1.17218 2.9845 1.08905 3.24221 0.980976 3.64125 0.847963 4.04029 0.71495 4.49752 0.656755 5.01296 0.673382 5.61152 0.673382 6.12695 0.76483 6.55924 0.947723 6.99153 1.13062 7.30744 1.36339 7.50696 1.64605 7.70648 1.9287 7.84782 2.18641 7.93094 2.41919 8.01407 2.65195 8.05565 2.8598 8.05565 3.04269 8.05565 3.50825 7.88106 3.85741 7.5319 4.09017 7.18274 4.32294 6.7837 4.46427 6.33478 4.51415 5.88586 4.56403 5.39536 4.68874 4.86332 4.88826 4.33127 5.08778 3.94053 5.37875 3.69113 5.76116 3.40849 6.17683 3.26715 6.659 3.26715 7.20768Z" transform="matrix(1 0 0 -1.04545 51.9003 43.4863)"/><path d="M3.2444 10.5796C3.2444 10.8617 3.35607 11.1086 3.57942 11.3202 3.80278 11.5317 4.06138 11.6434 4.35526 11.6552 4.56685 11.6552 4.74318 11.5846 4.88424 11.4436 5.0253 11.3025 5.1017 11.1262 5.11346 10.9146 5.11346 10.6442 4.99591 10.3974 4.76081 10.174 4.52572 9.95068 4.2671 9.83314 3.98498 9.82138 3.80865 9.82138 3.64408 9.88015 3.49126 9.9977 3.33844 10.1153 3.25617 10.3092 3.2444 10.5796ZM0.370285 5.06057C0.370285 5.1546 0.423183 5.33682 0.528979 5.60718 0.634775 5.87754 0.775836 6.17729 0.952162 6.50644 1.12849 6.83559 1.3871 7.13535 1.728 7.40571 2.06889 7.67607 2.42154 7.80539 2.78596 7.79362 3.2444 7.79362 3.62645 7.65844 3.93208 7.38807 4.2377 7.11771 4.3964 6.7533 4.40816 6.29485 4.40816 6.09502 4.32587 5.76587 4.1613 5.30742 3.99674 4.84897 3.76162 4.23183 3.456 3.456 3.15037 2.68016 2.90351 2.01599 2.71543 1.46351 2.65666 1.2049 2.62726 1.01682 2.62726 0.899264 2.62726 0.605387 2.72719 0.458449 2.92702 0.458449 3.03281 0.458449 3.14448 0.476081 3.26204 0.511346 3.37959 0.546612 3.51477 0.628898 3.66759 0.758203 3.82041 0.887509 3.9791 1.09322 4.14367 1.37535 4.30823 1.65747 4.45519 2.00425 4.58449 2.41567 4.61975 2.55673 4.64914 2.63902 4.67265 2.66253 4.69615 2.68603 4.79608 2.69779 4.9724 2.69779 5.2075 2.69779 5.32506 2.63902 5.32506 2.52147 5.32506 2.42743 5.27216 2.24522 5.16636 1.97486 5.06057 1.70449 4.91363 1.40473 4.72555 1.07559 4.53746 0.746448 4.27297 0.452572 3.93208 0.193959 3.59119-0.0646531 3.22677-0.193959 2.83885-0.193959 2.4627-0.193959 2.11592-0.0705305 1.79853 0.176326 1.48114 0.423183 1.31657 0.799346 1.30482 1.30482 1.30482 1.50465 1.3342 1.69273 1.39298 1.86906 1.45175 2.04539 1.70449 2.71543 2.15118 3.87918 2.59787 5.06644 2.85649 5.77763 2.92702 6.01273 2.99755 6.24782 3.03868 6.47705 3.05045 6.7004 3.05045 6.98252 2.95052 7.12358 2.75069 7.12358L2.71543 7.12358C2.36277 7.12358 2.03951 6.92963 1.74563 6.54171 1.45175 6.15379 1.22841 5.66008 1.07559 5.06057 1.06384 5.04881 1.05208 5.03117 1.04033 5.00767 1.02857 4.98416 1.02269 4.96653 1.02269 4.95477 1.02269 4.94301 1.01094 4.93127 0.987428 4.91951 0.963918 4.90774 0.946285 4.90187 0.93453 4.90187 0.922774 4.90187 0.899264 4.90187 0.863999 4.90187 0.828734 4.90187 0.781713 4.90187 0.722938 4.90187L0.476081 4.90187C0.405551 4.9724 0.370285 5.0253 0.370285 5.06057Z" transform="matrix(1 0 0 -1.04545 64.4202 47.3974)"/><path d="M1.94533 0.872903C1.94533 0.872903 1.94533 1.08074 1.94533 1.4964 1.94533 1.91207 2.07834 2.26955 2.34437 2.56883 2.6104 2.86811 2.96787 3.01775 3.41679 3.01775 3.88235 3.01775 4.298 2.80992 4.66379 2.39425 5.02959 1.97858 5.22078 1.247 5.23742 0.199521 5.23742-0.382414 5.1626-0.947723 5.01296-1.4964 4.86332-2.04509 4.68874-2.51895 4.48921-2.91799 4.28969-3.31703 4.07354-3.65789 3.84077-3.94053 3.60801-4.22318 3.40849-4.44764 3.24221-4.61391 3.07593-4.78019 2.96787-4.85501 2.91799-4.83838 2.85147-4.83838 2.74341-4.76356 2.59377-4.61391 2.44413-4.46427 2.36931-4.35621 2.36931-4.28969 2.36931-4.22318 2.46076-4.09017 2.64365-3.89065 2.82653-3.69113 3.03438-3.44173 3.26715-3.14245 3.49992-2.84317 3.71607-2.4275 3.91559-1.89545 4.11511-1.36339 4.24812-0.756515 4.31463-0.0748202L4.31463 0.224461 4.28969 0.199521C4.25645 0.182894 4.21487 0.166267 4.16499 0.14964 4.11511 0.133014 4.06523 0.108074 4.01535 0.0748202 3.96547 0.0415669 3.89065 0.0249401 3.79089 0.0249401 3.69113 0.0249401 3.59137 0.0166267 3.49161 0 3.04269 0 2.67689 0.141327 2.39425 0.423981Z" transform="matrix(1 0 0 -1.04545 71.7526 43.4863)"/><path d="M3.26715 7.20768C3.26715 7.73973 3.40016 8.28011 3.66619 8.82879 3.93223 9.37747 4.39776 9.88458 5.06284 10.3501 5.72791 10.8157 6.5343 11.0401 7.48202 11.0235 8.51287 11.0235 9.26108 10.7991 9.72663 10.3501 10.1922 9.90121 10.4333 9.40241 10.4499 8.85373 10.4499 8.32168 10.3086 7.93094 10.0259 7.68154 9.74327 7.43214 9.42735 7.29914 9.07819 7.2825 8.86203 7.2825 8.66251 7.34902 8.47963 7.48202 8.29674 7.61503 8.19698 7.83118 8.18035 8.13047 8.18035 8.3965 8.25517 8.62927 8.40481 8.82879 8.55445 9.02831 8.69578 9.17795 8.82879 9.27771 8.96179 9.37747 9.06988 9.42735 9.15301 9.42735 9.16964 9.42735 9.17795 9.43566 9.17795 9.45229 9.17795 9.50217 9.11976 9.57699 9.00337 9.67675 8.88697 9.77651 8.67915 9.86797 8.37987 9.95109 8.08059 10.0342 7.75636 10.0841 7.4072 10.1007 6.60912 10.1007 6.02719 9.88458 5.6614 9.45229 5.2956 9.02 5.10441 8.57939 5.08778 8.13047 5.08778 7.71479 5.24572 7.42384 5.56164 7.25756 5.87755 7.09129 6.33478 6.94998 6.93334 6.83358 7.5319 6.71719 7.96419 6.59249 8.23023 6.45948 9.32759 5.97731 9.87627 5.17923 9.87627 4.06523 9.87627 3.59968 9.78482 3.13415 9.60193 2.66859 9.41904 2.20304 9.1447 1.73749 8.77891 1.27194 8.41311 0.806395 7.88937 0.440609 7.20768 0.174581 6.526-0.091447 5.74452-0.232774 4.86332-0.249401 3.58307-0.249401 2.67689-0.00831335 2.14485 0.473862 1.61279 0.956036 1.33845 1.52134 1.32182 2.16979 1.32182 2.81823 1.4964 3.28379 1.84557 3.56643 2.19473 3.84908 2.56052 3.99041 2.94293 3.99041 3.19233 3.99041 3.4251 3.91559 3.64125 3.76595 3.85741 3.61631 3.97378 3.35861 3.99041 2.99281 3.99041 2.56052 3.84077 2.19473 3.54149 1.89545 3.24221 1.59617 2.9845 1.44652 2.76835 1.44652 2.7351 1.4299 2.71016 1.42158 2.69353 1.42158 2.67689 1.42158 2.66859 1.40496 2.66859 1.3717 2.68522 1.32182 2.75171 1.25532 2.86811 1.17218 2.9845 1.08905 3.24221 0.980976 3.64125 0.847963 4.04029 0.71495 4.49752 0.656755 5.01296 0.673382 5.61152 0.673382 6.12695 0.76483 6.55924 0.947723 6.99153 1.13062 7.30744 1.36339 7.50696 1.64605 7.70648 1.9287 7.84782 2.18641 7.93094 2.41919 8.01407 2.65195 8.05565 2.8598 8.05565 3.04269 8.05565 3.50825 7.88106 3.85741 7.5319 4.09017 7.18274 4.32294 6.7837 4.46427 6.33478 4.51415 5.88586 4.56403 5.39536 4.68874 4.86332 4.88826 4.33127 5.08778 3.94053 5.37875 3.69113 5.76116 3.40849 6.17683 3.26715 6.659 3.26715 7.20768Z" transform="matrix(1 0 0 -1.04545 82.841 43.4863)"/><path d="M5.23689 10.5091C5.23689 10.8735 5.36032 11.1556 5.60718 11.3554 5.85403 11.5552 6.10676 11.6552 6.36538 11.6552 6.56521 11.6552 6.72979 11.5964 6.8591 11.4788 6.9884 11.3613 7.07069 11.1967 7.10595 10.9851 7.10595 10.656 6.99428 10.3798 6.77093 10.1564 6.54758 9.93305 6.28898 9.82138 5.9951 9.82138 5.7835 9.82138 5.60718 9.88015 5.46612 9.9977 5.32506 10.1153 5.24865 10.2857 5.23689 10.5091ZM5.0782 6.62987C5.0782 6.97076 4.92538 7.14122 4.61975 7.14122 4.36113 7.14122 4.11428 7.07069 3.87918 6.92963 3.64408 6.78856 3.43836 6.60637 3.26204 6.38301 3.08571 6.15966 2.94465 5.9422 2.83885 5.73061 2.73306 5.51901 2.63313 5.33093 2.5391 5.16636L2.41567 4.91951C2.39217 4.90774 2.29811 4.90187 2.13355 4.90187L1.88669 4.90187C1.81616 4.9724 1.7809 5.01943 1.7809 5.04293 1.7809 5.06644 1.8044 5.14286 1.85143 5.27216 2.09828 5.84816 2.44506 6.38889 2.89175 6.89436 3.33844 7.39984 3.85568 7.6937 4.44342 7.77599 4.45519 7.77599 4.50219 7.77599 4.58449 7.77599 4.66678 7.77599 4.73731 7.78186 4.79608 7.79362 5.0782 7.78186 5.33682 7.72309 5.57191 7.6173 5.8658 7.45273 6.08913 7.27052 6.24195 7.07069 6.39477 6.87086 6.47118 6.55934 6.47118 6.13616L6.47118 5.85403 5.60718 2.34514C5.00767-0.00587754 4.69028-1.22841 4.65502-1.32245 4.44342-1.9102 4.032-2.4333 3.42073-2.89175 2.80946-3.3502 2.11004-3.5853 1.32245-3.59706 0.734694-3.59706 0.33502-3.47363 0.123428-3.22677-0.0881632-2.97992-0.199836-2.70955-0.211592-2.41567-0.211592-2.09828-0.0999183-1.82792 0.123428-1.60457 0.346776-1.38122 0.617142-1.26367 0.93453-1.25192 1.13437-1.25192 1.30482-1.31069 1.44588-1.42824 1.58694-1.54579 1.66334-1.728 1.6751-1.97486 1.6751-2.39804 1.48702-2.7213 1.11086-2.94465 1.18139-2.95641 1.26367-2.96228 1.35771-2.96228 1.75739-2.96228 2.12179-2.79772 2.45094-2.46857 2.78008-2.13942 3.03281-1.75151 3.20914-1.30482L3.4031-0.564244C3.5324-0.0587754 3.68522 0.552489 3.86155 1.26955 4.03787 1.98662 4.22596 2.7213 4.42579 3.47363 4.62562 4.22596 4.78432 4.87837 4.90187 5.43085 5.01943 5.98334 5.08407 6.31836 5.09583 6.43591 5.09583 6.5182 5.08996 6.58284 5.0782 6.62987Z" transform="matrix(1 0 0 -1.04545 95.3609 47.3974)"/><path d="M1.4964 18.6801 1.59617 18.7051C1.6793 18.7051 1.76243 18.7051 1.84557 18.7051L2.14485 18.7051 2.84317 18.1065C4.40609 16.6932 5.545 14.9308 6.25996 12.8192 6.97492 10.7076 7.33238 8.51287 7.33238 6.23502 7.33238 5.10441 7.24926 4.01535 7.08298 2.96787 6.91671 1.92039 6.72552 1.03086 6.50936 0.299281 6.2932-0.432294 5.98562-1.16387 5.58658-1.89545 5.18754-2.62701 4.87162-3.18403 4.63885-3.56643 4.40609-3.94884 4.06523-4.37282 3.61631-4.83838 3.16739-5.30393 2.90135-5.57827 2.81823-5.6614 2.7351-5.74452 2.54389-5.90249 2.24461-6.13526 2.19473-6.18514 2.16147-6.21838 2.14485-6.23502L1.84557-6.23502C1.71255-6.23502 1.62111-6.23502 1.57122-6.23502 1.52134-6.23502 1.47978-6.21008 1.44652-6.1602 1.41327-6.11032 1.38833-6.0355 1.3717-5.93574 1.38833-5.9191 1.47978-5.81104 1.64605-5.61152 4.22318-2.93462 5.51176 1.01423 5.51176 6.23502 5.51176 11.4558 4.22318 15.4047 1.64605 18.0816 1.47978 18.2811 1.38833 18.3891 1.3717 18.4058 1.3717 18.5388 1.41327 18.6302 1.4964 18.6801Z" transform="matrix(1 0 0 -1.04545 103.873 43.4863)"/><path d="M1.39664 8.65421C1.39664 8.87036 1.51303 9.03661 1.74581 9.15301L17.6326 9.15301C17.882 9.02 18.0067 8.85373 18.0067 8.65421 18.0067 8.47132 17.8903 8.31335 17.6576 8.18035L9.72663 8.15541 1.79569 8.15541C1.52966 8.23853 1.39664 8.40481 1.39664 8.65421ZM1.39664 3.81583C1.39664 4.06523 1.52966 4.23151 1.79569 4.31463L17.6576 4.31463C17.8903 4.14836 18.0067 3.98211 18.0067 3.81583 18.0067 3.59968 17.882 3.43343 17.6326 3.31703L1.74581 3.31703C1.51303 3.43343 1.39664 3.59968 1.39664 3.81583Z" transform="matrix(1 0 0 -1.04545 120.503 43.4863)"/><path d="M7.1578 15.6624C7.1578 15.7788 6.68394 15.8536 5.73622 15.8868 5.33718 15.8868 5.07947 15.8951 4.96308 15.9118 4.84668 15.9284 4.7885 16.0115 4.7885 16.1612 4.7885 16.1778 4.80513 16.2692 4.83838 16.4355 4.93814 16.768 5.01296 16.9509 5.06284 16.9842 5.11272 17.0174 6.72552 17.0341 9.90121 17.0341 13.0603 17.0174 14.7479 16.9925 14.964 16.9593 16.0282 16.7764 16.9177 16.369 17.6326 15.7372 18.3476 15.1054 18.7134 14.2657 18.73 13.2182 18.73 11.938 18.1813 10.7658 17.084 9.70169 15.9367 8.57108 14.4569 7.85612 12.6446 7.55684 12.5282 7.54021 11.6553 7.5236 10.0259 7.50696L7.6566 7.50696 6.9084 4.53909C6.4096 2.6104 6.1602 1.58785 6.1602 1.47146 6.1602 1.40496 6.1685 1.36339 6.18514 1.34676 6.20177 1.33014 6.25996 1.29688 6.35972 1.247 6.45948 1.19712 6.60082 1.1805 6.7837 1.19712 6.96659 1.21375 7.24093 1.19712 7.60672 1.14724L8.37987 1.14724C8.47963 0.997603 8.52951 0.906155 8.52951 0.872903 8.52951 0.606874 8.47132 0.357474 8.35493 0.1247 8.2718 0.0415669 8.13877 0 7.95589 0 7.906 0 7.59842 0.00831335 7.0331 0.0249401 6.46779 0.0415669 5.63646 0.0498802 4.53909 0.0498802 3.50825 0.0498802 2.71847 0.0498802 2.16979 0.0498802 1.62111 0.0498802 1.32182 0.0415669 1.27194 0.0249401 0.972663 0.0249401 0.823023 0.108074 0.823023 0.274341 0.823023 0.307593 0.847963 0.423981 0.897843 0.623502 0.964351 0.88953 1.03086 1.03917 1.09736 1.07242 1.16387 1.10568 1.35508 1.13062 1.67099 1.14724 2.11991 1.14724 2.61871 1.17218 3.16739 1.22206 3.40016 1.27194 3.55813 1.3717 3.64125 1.52134 3.69113 1.58785 4.28969 3.89896 5.43694 8.45469 6.58418 13.0104 7.1578 15.413 7.1578 15.6624ZM16.0864 13.8168C16.0864 14.033 16.0697 14.2075 16.0365 14.3405 16.0032 14.4736 15.9284 14.6565 15.812 14.8892 15.6956 15.122 15.4878 15.3049 15.1885 15.4379 14.8892 15.5709 14.4819 15.7039 13.9664 15.837 13.85 15.8536 13.185 15.8702 11.9712 15.8868 11.6886 15.8868 11.3976 15.8868 11.0983 15.8868 10.7991 15.8868 10.558 15.8785 10.3751 15.8619 10.1922 15.8453 10.0924 15.8453 10.0758 15.8619 9.85964 15.8453 9.71 15.7704 9.62687 15.6374 9.59363 15.5377 9.43566 14.8975 9.15301 13.717 8.87036 12.5366 8.57939 11.3893 8.28011 10.2753 7.98083 9.16131 7.83118 8.59602 7.83118 8.57939 7.83118 8.54614 8.50457 8.52951 9.85133 8.52951L10.1506 8.52951 10.7242 8.52951C12.5864 8.52951 13.9166 8.94518 14.7146 9.77651 15.1636 10.2254 15.5044 10.8822 15.7372 11.7468 15.97 12.6114 16.0864 13.3014 16.0864 13.8168Z" transform="matrix(1 0 0 -1.04545 181.863 22.1424)"/><path d="M0.705305 7.70546C0.481958 7.70546 0.370285 7.75249 0.370285 7.84652 0.370285 7.90529 0.464325 8.23444 0.652408 8.83395 0.84049 9.43346 1.04033 10.0271 1.25192 10.6148L1.55167 11.4788C1.61045 11.6904 1.68686 11.8433 1.7809 11.9373L10.033 11.9373 11.6199 11.9373C11.9961 11.9373 12.2194 11.9314 12.2899 11.9197 12.3605 11.9079 12.4016 11.855 12.4134 11.761 12.4134 11.6904 12.3135 11.0204 12.1136 9.75085 11.9138 8.4813 11.8021 7.84065 11.7786 7.82889 11.7786 7.7466 11.6669 7.70546 11.4436 7.70546 11.3378 7.70546 11.2673 7.70546 11.232 7.70546 11.1967 7.70546 11.1615 7.73486 11.1262 7.79362L11.0909 7.84652C11.0909 7.91705 11.1262 8.18154 11.1967 8.63999 11.2673 9.09844 11.3025 9.45696 11.3025 9.71558 11.3025 10.127 11.2261 10.4385 11.0733 10.6501 10.9205 10.8617 10.5972 11.0086 10.1035 11.0909 10.0447 11.1027 9.70382 11.1144 9.08081 11.1262 8.54007 11.1262 8.19918 11.1203 8.05811 11.1086 7.91705 11.0968 7.81126 11.0498 7.74073 10.9675 7.72897 10.9557 7.31167 9.3159 6.48881 6.04799 5.66595 2.78008 5.25453 1.11673 5.25453 1.05796 5.25453 0.916897 5.77174 0.834611 6.8062 0.811101 7.18235 0.811101 7.42334 0.805224 7.52914 0.793469 7.63493 0.781713 7.68783 0.728815 7.68783 0.634775 7.68783 0.576 7.6702 0.493714 7.63493 0.387918 7.5879 0.176326 7.53501 0.0528979 7.47624 0.0176326L7.44097 0C7.40571 0 7.36457 0 7.31754 0 7.25877 0 6.95313 0.00587754 6.40065 0.0176326 5.84816 0.0293878 5.05469 0.0352653 4.02024 0.0352653 2.50383 0.0352653 1.53992 0.0235101 1.12849 0L0.863999 0C0.793469 0.0705305 0.758203 0.123428 0.758203 0.158694 0.758203 0.193959 0.769959 0.299755 0.793469 0.476081 0.84049 0.628898 0.899264 0.740571 0.969795 0.811101L1.46351 0.811101 1.65747 0.811101C2.59787 0.811101 3.15624 0.863999 3.33257 0.969795 3.34433 0.981551 3.35607 0.987428 3.36783 0.987428 3.4266 1.02269 3.48539 1.14024 3.54416 1.34008 3.60293 1.53992 3.83804 2.4627 4.24946 4.1084 4.4493 4.90774 4.61388 5.56015 4.74318 6.06563 5.56604 9.29827 5.97746 10.9499 5.97746 11.0204 5.97746 11.0792 5.80701 11.1086 5.46612 11.1086L4.91951 11.1086C4.13191 11.1086 3.61469 11.0733 3.36783 11.0028 2.83885 10.8852 2.42743 10.6442 2.13355 10.2798 1.83967 9.91541 1.52228 9.23363 1.18139 8.23444 1.0991 7.97582 1.04033 7.82302 1.00506 7.77599 0.969795 7.72897 0.887509 7.70546 0.758203 7.70546L0.705305 7.70546Z" transform="matrix(1 0 0 -1.04545 202.8 12.6776)"/><path d="M2.30988 5.09583C2.30988 5.47199 2.40391 5.85403 2.592 6.24195 2.78008 6.62987 3.10922 6.9884 3.57942 7.31754 4.04963 7.64669 4.61975 7.80539 5.28979 7.79362 6.0186 7.79362 6.54758 7.63493 6.87673 7.31754 7.20588 7.00016 7.37631 6.6475 7.38807 6.25959 7.38807 5.88343 7.28815 5.60718 7.08832 5.43085 6.88849 5.25453 6.66514 5.16049 6.41828 5.14873 6.26546 5.14873 6.1244 5.19576 5.9951 5.28979 5.8658 5.38383 5.79527 5.53665 5.7835 5.74824 5.7835 5.93633 5.8364 6.10089 5.9422 6.24195 6.04799 6.38301 6.14792 6.48881 6.24195 6.55934 6.33599 6.62987 6.41241 6.66514 6.47118 6.66514 6.48294 6.66514 6.48881 6.67101 6.48881 6.68277 6.48881 6.71803 6.44767 6.77093 6.36538 6.84146 6.28309 6.91199 6.13616 6.97665 5.92457 7.03542 5.71297 7.09419 5.48375 7.12946 5.23689 7.14122 4.67265 7.14122 4.26123 6.9884 4.00261 6.68277 3.74399 6.37714 3.60882 6.06563 3.59706 5.74824 3.59706 5.45436 3.70872 5.24865 3.93208 5.1311 4.15543 5.01354 4.47869 4.91363 4.90187 4.83134 5.32506 4.74905 5.63068 4.66089 5.81877 4.56685 6.59461 4.22596 6.98252 3.66172 6.98252 2.87412 6.98252 2.54497 6.91786 2.21584 6.78856 1.88669 6.65926 1.55755 6.46531 1.22841 6.20669 0.899264 5.94807 0.570121 5.57778 0.31151 5.09583 0.123428 4.61388-0.0646531 4.06138-0.164571 3.43836-0.176326 2.53323-0.176326 1.89256-0.00587754 1.51641 0.33502 1.14024 0.675917 0.946285 1.07559 0.93453 1.53404 0.93453 1.99249 1.05796 2.32164 1.30482 2.52147 1.55167 2.7213 1.81029 2.82122 2.08065 2.82122 2.25698 2.82122 2.42154 2.76832 2.57436 2.66253 2.72719 2.55673 2.80946 2.37453 2.82122 2.11592 2.82122 1.81029 2.71543 1.55167 2.50383 1.34008 2.29224 1.12849 2.11004 1.02269 1.95722 1.02269 1.93372 1.01094 1.91609 1.00506 1.90432 1.00506 1.89256 1.00506 1.88669 0.993305 1.88669 0.969795 1.89845 0.93453 1.94546 0.887509 2.02775 0.828734 2.11004 0.769959 2.29224 0.69355 2.57436 0.59951 2.85649 0.50547 3.17975 0.464325 3.54416 0.476081 3.96734 0.476081 4.33176 0.540735 4.63738 0.67004 4.94301 0.799346 5.16636 0.963918 5.30742 1.16375 5.44848 1.36359 5.54841 1.54579 5.60718 1.71037 5.66595 1.87493 5.69534 2.02188 5.69534 2.15118 5.69534 2.48033 5.57191 2.72719 5.32506 2.89175 5.0782 3.05632 4.79608 3.15624 4.47869 3.19151 4.1613 3.22677 3.81452 3.31494 3.43836 3.456 3.06221 3.59706 2.78596 3.80278 2.60963 4.07314 2.4098 4.36702 2.30988 4.70791 2.30988 5.09583Z" transform="matrix(1 0 0 -1.04545 198.698 28.5826)"/><path d="M2.29379 7.47976C2.29379 7.67922 2.37274 7.85375 2.53065 8.00335 2.68856 8.15294 2.87139 8.23189 3.07917 8.24021 3.22876 8.24021 3.35343 8.19034 3.45316 8.09061 3.55289 7.99088 3.6069 7.86622 3.61522 7.71662 3.61522 7.52548 3.53211 7.35095 3.36589 7.19304 3.19968 7.03513 3.01684 6.95203 2.81738 6.94371 2.69271 6.94371 2.57637 6.98526 2.46832 7.06838 2.36028 7.15149 2.30211 7.28862 2.29379 7.47976ZM0.261792 3.57782C0.261792 3.6443 0.299191 3.77313 0.373988 3.96427 0.448786 4.15542 0.548516 4.36735 0.673179 4.60005 0.797841 4.83276 0.980681 5.04469 1.22169 5.23583 1.46271 5.42698 1.71203 5.51841 1.96967 5.51009 2.29379 5.51009 2.5639 5.41451 2.77998 5.22337 2.99606 5.03222 3.10825 4.77458 3.11657 4.45046 3.11657 4.30918 3.05839 4.07647 2.94204 3.75235 2.82569 3.42823 2.65947 2.99191 2.44339 2.44339 2.22731 1.89487 2.05278 1.42531 1.91981 1.0347 1.87826 0.851862 1.85747 0.718889 1.85747 0.63578 1.85747 0.428008 1.92812 0.324123 2.0694 0.324123 2.1442 0.324123 2.22315 0.336589 2.30626 0.361522 2.38937 0.386454 2.48494 0.444631 2.59298 0.53605 2.70103 0.627469 2.81323 0.772909 2.92957 0.972369 3.04592 1.17183 3.14982 1.417 3.24123 1.70788 3.26616 1.80761 3.28694 1.86579 3.30356 1.88241 3.32018 1.89902 3.39083 1.90734 3.51549 1.90734 3.6817 1.90734 3.76481 1.86579 3.76481 1.78268 3.76481 1.71619 3.72742 1.58737 3.65262 1.39622 3.57782 1.20507 3.47394 0.993147 3.34096 0.760443 3.20798 0.527739 3.02099 0.319968 2.77998 0.137129 2.53897-0.0457097 2.28133-0.137129 2.00707-0.137129 1.74113-0.137129 1.49595-0.0498651 1.27156 0.124663 1.04717 0.299191 0.930816 0.565137 0.922504 0.922504 0.922504 1.06379 0.943282 1.19676 0.984836 1.32142 1.02639 1.44609 1.20507 1.91981 1.52089 2.74258 1.83669 3.58197 2.01954 4.08479 2.0694 4.251 2.11927 4.41721 2.14835 4.57927 2.15667 4.73718 2.15667 4.93664 2.08602 5.03637 1.94474 5.03637L1.91981 5.03637C1.67048 5.03637 1.44194 4.89925 1.23416 4.62499 1.02639 4.35073 0.868484 4.00167 0.760443 3.57782 0.752131 3.56951 0.743821 3.55704 0.73551 3.54042 0.727199 3.5238 0.723044 3.51134 0.723044 3.50302 0.723044 3.49471 0.714733 3.48641 0.698111 3.47809 0.68149 3.46978 0.669024 3.46562 0.660712 3.46562 0.652401 3.46562 0.63578 3.46562 0.610847 3.46562 0.585915 3.46562 0.552671 3.46562 0.511117 3.46562L0.336589 3.46562C0.286724 3.51549 0.261792 3.55289 0.261792 3.57782Z" transform="matrix(1 0 0 -1.04545 207.549 31.3477)"/><path d="M5.71128 7.13286C5.49512 9.36084 5.38706 10.6078 5.38706 10.8739 5.38706 11.1732 5.58658 11.4059 5.98562 11.5722 6.00225 11.5722 6.0438 11.5722 6.11032 11.5722 6.17683 11.5722 6.22672 11.5805 6.25996 11.5971 6.45948 11.5805 6.64237 11.5057 6.80864 11.3727 6.97492 11.2397 7.05804 11.0734 7.05804 10.8739 7.05804 10.5912 7.00816 9.92615 6.9084 8.87867 6.80864 7.83118 6.75046 7.24926 6.73382 7.13286L8.18035 8.18035C9.11143 8.86203 9.61857 9.22783 9.70169 9.27771 9.78482 9.32759 9.86797 9.35253 9.95109 9.35253 10.1672 9.35253 10.3668 9.2694 10.5497 9.10313 10.7325 8.93685 10.8323 8.71239 10.8489 8.42975 10.8489 8.21359 10.7658 8.0224 10.5995 7.85612 10.5164 7.80624 9.95109 7.5319 8.90361 7.0331 7.85612 6.5343 7.29081 6.26826 7.20768 6.23502L8.85373 5.46188 10.5995 4.58897C10.7492 4.43933 10.824 4.24812 10.824 4.01535 10.824 3.76595 10.7492 3.55813 10.5995 3.39185 10.4499 3.22557 10.2504 3.13415 10.001 3.11751 9.86797 3.11751 9.71833 3.16739 9.55205 3.26715 9.38577 3.36691 8.92855 3.69944 8.18035 4.26475L6.73382 5.31224C6.94998 3.08426 7.05804 1.83725 7.05804 1.57122 7.05804 1.40496 6.99986 1.247 6.88346 1.09736 6.76707 0.947723 6.55094 0.872903 6.23502 0.872903 5.9191 0.872903 5.70297 0.947723 5.58658 1.09736 5.47018 1.247 5.40369 1.40496 5.38706 1.57122 5.38706 1.85388 5.43694 2.51895 5.5367 3.56643 5.63646 4.61391 5.69464 5.19584 5.71128 5.31224L4.26475 4.26475C3.33367 3.58307 2.82653 3.21727 2.74341 3.16739 2.67689 3.11751 2.59377 3.09257 2.49401 3.09257 2.27786 3.09257 2.07834 3.1757 1.89545 3.34197 1.71255 3.50825 1.61279 3.73271 1.59617 4.01535 1.59617 4.09848 1.59617 4.16499 1.59617 4.21487 1.59617 4.26475 1.62111 4.31463 1.67099 4.36451 1.72087 4.41439 1.76243 4.46427 1.79569 4.51415 1.82894 4.56403 1.90376 4.62222 2.02015 4.68874 2.13653 4.75525 2.24461 4.81344 2.34437 4.86332 2.44413 4.9132 2.60207 4.98802 2.81823 5.08778 3.03438 5.18754 3.24221 5.27899 3.44173 5.36212 3.64125 5.44524 3.90729 5.56994 4.23981 5.73622 4.57234 5.90249 4.90489 6.06874 5.23742 6.23502L1.84557 7.85612C1.69593 8.00576 1.62111 8.19698 1.62111 8.42975 1.62111 8.67915 1.69593 8.88697 1.84557 9.05325 1.99521 9.21952 2.19473 9.31096 2.44413 9.32759 2.57713 9.32759 2.72677 9.27771 2.89305 9.17795 3.05932 9.07819 3.51655 8.74566 4.26475 8.18035L5.71128 7.13286Z" transform="matrix(1 0 0 -1.04545 222.004 22.1424)"/><path d="M7.1578 15.6624C7.1578 15.7788 6.68394 15.8536 5.73622 15.8868 5.33718 15.8868 5.07947 15.8951 4.96308 15.9118 4.84668 15.9284 4.7885 16.0115 4.7885 16.1612 4.7885 16.1778 4.80513 16.2692 4.83838 16.4355 4.93814 16.768 5.01296 16.9509 5.06284 16.9842 5.11272 17.0174 6.72552 17.0341 9.90121 17.0341 13.0603 17.0174 14.7479 16.9925 14.964 16.9593 16.0282 16.7764 16.9177 16.369 17.6326 15.7372 18.3476 15.1054 18.7134 14.2657 18.73 13.2182 18.73 11.938 18.1813 10.7658 17.084 9.70169 15.9367 8.57108 14.4569 7.85612 12.6446 7.55684 12.5282 7.54021 11.6553 7.5236 10.0259 7.50696L7.6566 7.50696 6.9084 4.53909C6.4096 2.6104 6.1602 1.58785 6.1602 1.47146 6.1602 1.40496 6.1685 1.36339 6.18514 1.34676 6.20177 1.33014 6.25996 1.29688 6.35972 1.247 6.45948 1.19712 6.60082 1.1805 6.7837 1.19712 6.96659 1.21375 7.24093 1.19712 7.60672 1.14724L8.37987 1.14724C8.47963 0.997603 8.52951 0.906155 8.52951 0.872903 8.52951 0.606874 8.47132 0.357474 8.35493 0.1247 8.2718 0.0415669 8.13877 0 7.95589 0 7.906 0 7.59842 0.00831335 7.0331 0.0249401 6.46779 0.0415669 5.63646 0.0498802 4.53909 0.0498802 3.50825 0.0498802 2.71847 0.0498802 2.16979 0.0498802 1.62111 0.0498802 1.32182 0.0415669 1.27194 0.0249401 0.972663 0.0249401 0.823023 0.108074 0.823023 0.274341 0.823023 0.307593 0.847963 0.423981 0.897843 0.623502 0.964351 0.88953 1.03086 1.03917 1.09736 1.07242 1.16387 1.10568 1.35508 1.13062 1.67099 1.14724 2.11991 1.14724 2.61871 1.17218 3.16739 1.22206 3.40016 1.27194 3.55813 1.3717 3.64125 1.52134 3.69113 1.58785 4.28969 3.89896 5.43694 8.45469 6.58418 13.0104 7.1578 15.413 7.1578 15.6624ZM16.0864 13.8168C16.0864 14.033 16.0697 14.2075 16.0365 14.3405 16.0032 14.4736 15.9284 14.6565 15.812 14.8892 15.6956 15.122 15.4878 15.3049 15.1885 15.4379 14.8892 15.5709 14.4819 15.7039 13.9664 15.837 13.85 15.8536 13.185 15.8702 11.9712 15.8868 11.6886 15.8868 11.3976 15.8868 11.0983 15.8868 10.7991 15.8868 10.558 15.8785 10.3751 15.8619 10.1922 15.8453 10.0924 15.8453 10.0758 15.8619 9.85964 15.8453 9.71 15.7704 9.62687 15.6374 9.59363 15.5377 9.43566 14.8975 9.15301 13.717 8.87036 12.5366 8.57939 11.3893 8.28011 10.2753 7.98083 9.16131 7.83118 8.59602 7.83118 8.57939 7.83118 8.54614 8.50457 8.52951 9.85133 8.52951L10.1506 8.52951 10.7242 8.52951C12.5864 8.52951 13.9166 8.94518 14.7146 9.77651 15.1636 10.2254 15.5044 10.8822 15.7372 11.7468 15.97 12.6114 16.0864 13.3014 16.0864 13.8168Z" transform="matrix(1 0 0 -1.04545 240.016 22.1424)"/><path d="M2.30988 5.09583C2.30988 5.47199 2.40391 5.85403 2.592 6.24195 2.78008 6.62987 3.10922 6.9884 3.57942 7.31754 4.04963 7.64669 4.61975 7.80539 5.28979 7.79362 6.0186 7.79362 6.54758 7.63493 6.87673 7.31754 7.20588 7.00016 7.37631 6.6475 7.38807 6.25959 7.38807 5.88343 7.28815 5.60718 7.08832 5.43085 6.88849 5.25453 6.66514 5.16049 6.41828 5.14873 6.26546 5.14873 6.1244 5.19576 5.9951 5.28979 5.8658 5.38383 5.79527 5.53665 5.7835 5.74824 5.7835 5.93633 5.8364 6.10089 5.9422 6.24195 6.04799 6.38301 6.14792 6.48881 6.24195 6.55934 6.33599 6.62987 6.41241 6.66514 6.47118 6.66514 6.48294 6.66514 6.48881 6.67101 6.48881 6.68277 6.48881 6.71803 6.44767 6.77093 6.36538 6.84146 6.28309 6.91199 6.13616 6.97665 5.92457 7.03542 5.71297 7.09419 5.48375 7.12946 5.23689 7.14122 4.67265 7.14122 4.26123 6.9884 4.00261 6.68277 3.74399 6.37714 3.60882 6.06563 3.59706 5.74824 3.59706 5.45436 3.70872 5.24865 3.93208 5.1311 4.15543 5.01354 4.47869 4.91363 4.90187 4.83134 5.32506 4.74905 5.63068 4.66089 5.81877 4.56685 6.59461 4.22596 6.98252 3.66172 6.98252 2.87412 6.98252 2.54497 6.91786 2.21584 6.78856 1.88669 6.65926 1.55755 6.46531 1.22841 6.20669 0.899264 5.94807 0.570121 5.57778 0.31151 5.09583 0.123428 4.61388-0.0646531 4.06138-0.164571 3.43836-0.176326 2.53323-0.176326 1.89256-0.00587754 1.51641 0.33502 1.14024 0.675917 0.946285 1.07559 0.93453 1.53404 0.93453 1.99249 1.05796 2.32164 1.30482 2.52147 1.55167 2.7213 1.81029 2.82122 2.08065 2.82122 2.25698 2.82122 2.42154 2.76832 2.57436 2.66253 2.72719 2.55673 2.80946 2.37453 2.82122 2.11592 2.82122 1.81029 2.71543 1.55167 2.50383 1.34008 2.29224 1.12849 2.11004 1.02269 1.95722 1.02269 1.93372 1.01094 1.91609 1.00506 1.90432 1.00506 1.89256 1.00506 1.88669 0.993305 1.88669 0.969795 1.89845 0.93453 1.94546 0.887509 2.02775 0.828734 2.11004 0.769959 2.29224 0.69355 2.57436 0.59951 2.85649 0.50547 3.17975 0.464325 3.54416 0.476081 3.96734 0.476081 4.33176 0.540735 4.63738 0.67004 4.94301 0.799346 5.16636 0.963918 5.30742 1.16375 5.44848 1.36359 5.54841 1.54579 5.60718 1.71037 5.66595 1.87493 5.69534 2.02188 5.69534 2.15118 5.69534 2.48033 5.57191 2.72719 5.32506 2.89175 5.0782 3.05632 4.79608 3.15624 4.47869 3.19151 4.1613 3.22677 3.81452 3.31494 3.43836 3.456 3.06221 3.59706 2.78596 3.80278 2.60963 4.07314 2.4098 4.36702 2.30988 4.70791 2.30988 5.09583Z" transform="matrix(1 0 0 -1.04545 256.85 26.0534)"/><path d="M3.70248 7.4299C3.70248 7.68754 3.78975 7.887 3.96427 8.02828 4.1388 8.16956 4.31748 8.24021 4.50032 8.24021 4.6416 8.24021 4.75797 8.19866 4.84938 8.11554 4.9408 8.03243 4.99898 7.91608 5.02391 7.76649 5.02391 7.53378 4.94496 7.33848 4.78705 7.18057 4.62914 7.02266 4.44631 6.94371 4.23853 6.94371 4.08894 6.94371 3.96427 6.98526 3.86454 7.06838 3.76481 7.15149 3.7108 7.27199 3.70248 7.4299ZM3.59029 4.68732C3.59029 4.92833 3.48224 5.04884 3.26616 5.04884 3.08332 5.04884 2.90879 4.99898 2.74258 4.89925 2.57637 4.79952 2.43092 4.6707 2.30626 4.51279 2.1816 4.35488 2.08187 4.20113 2.00707 4.05154 1.93227 3.90194 1.86163 3.76897 1.79514 3.65262L1.70788 3.47809C1.69126 3.46978 1.62477 3.46562 1.50842 3.46562L1.33389 3.46562C1.28403 3.51549 1.25909 3.54874 1.25909 3.56535 1.25909 3.58197 1.27571 3.636 1.30896 3.72742 1.48349 4.13465 1.72866 4.51694 2.04447 4.87431 2.36028 5.23168 2.72596 5.43945 3.1415 5.49763 3.14982 5.49763 3.18305 5.49763 3.24123 5.49763 3.29941 5.49763 3.34928 5.50178 3.39083 5.51009 3.59029 5.50178 3.77313 5.46023 3.93934 5.38543 4.14712 5.26908 4.30502 5.14026 4.41306 4.99898 4.52111 4.8577 4.57512 4.63745 4.57512 4.33826L4.57512 4.1388 3.96427 1.65801C3.54042-0.00415542 3.31603-0.868484 3.2911-0.93497 3.1415-1.35051 2.85063-1.72035 2.41846-2.04447 1.98629-2.36859 1.4918-2.5348 0.93497-2.54312 0.519428-2.54312 0.236859-2.45586 0.0872639-2.28133-0.0623314-2.1068-0.141284-1.91565-0.149595-1.70788-0.149595-1.48349-0.0706423-1.29234 0.0872639-1.13443 0.24517-0.976524 0.43632-0.893417 0.660712-0.885105 0.801996-0.885105 0.922504-0.926659 1.02223-1.00977 1.12196-1.09288 1.17598-1.22169 1.1843-1.39622 1.1843-1.69541 1.05132-1.92396 0.785375-2.08187 0.83524-2.09018 0.893417-2.09433 0.959903-2.09433 1.24247-2.09433 1.5001-1.97799 1.73281-1.74528 1.96552-1.51257 2.1442-1.23832 2.26886-0.922504L2.40599-0.398921C2.49741-0.0415542 2.60545 0.390609 2.73011 0.897572 2.85478 1.40454 2.98775 1.92396 3.12903 2.45586 3.27031 2.98775 3.38251 3.44901 3.46562 3.83961 3.54874 4.23022 3.59444 4.46708 3.60275 4.55019 3.60275 4.60837 3.5986 4.65407 3.59029 4.68732Z" transform="matrix(1 0 0 -1.04545 265.702 28.8185)"/><path d="M3.46667-6.21008 3.41679-6.21008C3.21727-6.21008 3.06763-6.09368 2.96787-5.86092L2.96787 6.25996 2.99281 18.3808C3.15909 18.597 3.31703 18.7051 3.46667 18.7051 3.68283 18.7051 3.84908 18.5804 3.96547 18.331L3.96547-5.86092C3.83247-6.09368 3.68283-6.21008 3.51655-6.21008L3.46667-6.21008Z" transform="matrix(1 0 0 -1.04545 152.322 61.9986)"/><path d="M3.46667-6.21008 3.41679-6.21008C3.21727-6.21008 3.06763-6.09368 2.96787-5.86092L2.96787 6.25996 2.99281 18.3808C3.15909 18.597 3.31703 18.7051 3.46667 18.7051 3.68283 18.7051 3.84908 18.5804 3.96547 18.331L3.96547-5.86092C3.83247-6.09368 3.68283-6.21008 3.51655-6.21008L3.46667-6.21008Z" transform="matrix(1 0 0 -1.04545 159.255 61.9986)"/><path d="M7.1578 15.6624C7.1578 15.7788 6.68394 15.8536 5.73622 15.8868 5.33718 15.8868 5.07947 15.8951 4.96308 15.9118 4.84668 15.9284 4.7885 16.0115 4.7885 16.1612 4.7885 16.1778 4.80513 16.2692 4.83838 16.4355 4.93814 16.768 5.01296 16.9509 5.06284 16.9842 5.11272 17.0174 6.72552 17.0341 9.90121 17.0341 13.0603 17.0174 14.7479 16.9925 14.964 16.9593 16.0282 16.7764 16.9177 16.369 17.6326 15.7372 18.3476 15.1054 18.7134 14.2657 18.73 13.2182 18.73 11.938 18.1813 10.7658 17.084 9.70169 15.9367 8.57108 14.4569 7.85612 12.6446 7.55684 12.5282 7.54021 11.6553 7.5236 10.0259 7.50696L7.6566 7.50696 6.9084 4.53909C6.4096 2.6104 6.1602 1.58785 6.1602 1.47146 6.1602 1.40496 6.1685 1.36339 6.18514 1.34676 6.20177 1.33014 6.25996 1.29688 6.35972 1.247 6.45948 1.19712 6.60082 1.1805 6.7837 1.19712 6.96659 1.21375 7.24093 1.19712 7.60672 1.14724L8.37987 1.14724C8.47963 0.997603 8.52951 0.906155 8.52951 0.872903 8.52951 0.606874 8.47132 0.357474 8.35493 0.1247 8.2718 0.0415669 8.13877 0 7.95589 0 7.906 0 7.59842 0.00831335 7.0331 0.0249401 6.46779 0.0415669 5.63646 0.0498802 4.53909 0.0498802 3.50825 0.0498802 2.71847 0.0498802 2.16979 0.0498802 1.62111 0.0498802 1.32182 0.0415669 1.27194 0.0249401 0.972663 0.0249401 0.823023 0.108074 0.823023 0.274341 0.823023 0.307593 0.847963 0.423981 0.897843 0.623502 0.964351 0.88953 1.03086 1.03917 1.09736 1.07242 1.16387 1.10568 1.35508 1.13062 1.67099 1.14724 2.11991 1.14724 2.61871 1.17218 3.16739 1.22206 3.40016 1.27194 3.55813 1.3717 3.64125 1.52134 3.69113 1.58785 4.28969 3.89896 5.43694 8.45469 6.58418 13.0104 7.1578 15.413 7.1578 15.6624ZM16.0864 13.8168C16.0864 14.033 16.0697 14.2075 16.0365 14.3405 16.0032 14.4736 15.9284 14.6565 15.812 14.8892 15.6956 15.122 15.4878 15.3049 15.1885 15.4379 14.8892 15.5709 14.4819 15.7039 13.9664 15.837 13.85 15.8536 13.185 15.8702 11.9712 15.8868 11.6886 15.8868 11.3976 15.8868 11.0983 15.8868 10.7991 15.8868 10.558 15.8785 10.3751 15.8619 10.1922 15.8453 10.0924 15.8453 10.0758 15.8619 9.85964 15.8453 9.71 15.7704 9.62687 15.6374 9.59363 15.5377 9.43566 14.8975 9.15301 13.717 8.87036 12.5366 8.57939 11.3893 8.28011 10.2753 7.98083 9.16131 7.83118 8.59602 7.83118 8.57939 7.83118 8.54614 8.50457 8.52951 9.85133 8.52951L10.1506 8.52951 10.7242 8.52951C12.5864 8.52951 13.9166 8.94518 14.7146 9.77651 15.1636 10.2254 15.5044 10.8822 15.7372 11.7468 15.97 12.6114 16.0864 13.3014 16.0864 13.8168Z" transform="matrix(1 0 0 -1.04545 166.188 61.9856)"/><path d="M2.30988 5.09583C2.30988 5.47199 2.40391 5.85403 2.592 6.24195 2.78008 6.62987 3.10922 6.9884 3.57942 7.31754 4.04963 7.64669 4.61975 7.80539 5.28979 7.79362 6.0186 7.79362 6.54758 7.63493 6.87673 7.31754 7.20588 7.00016 7.37631 6.6475 7.38807 6.25959 7.38807 5.88343 7.28815 5.60718 7.08832 5.43085 6.88849 5.25453 6.66514 5.16049 6.41828 5.14873 6.26546 5.14873 6.1244 5.19576 5.9951 5.28979 5.8658 5.38383 5.79527 5.53665 5.7835 5.74824 5.7835 5.93633 5.8364 6.10089 5.9422 6.24195 6.04799 6.38301 6.14792 6.48881 6.24195 6.55934 6.33599 6.62987 6.41241 6.66514 6.47118 6.66514 6.48294 6.66514 6.48881 6.67101 6.48881 6.68277 6.48881 6.71803 6.44767 6.77093 6.36538 6.84146 6.28309 6.91199 6.13616 6.97665 5.92457 7.03542 5.71297 7.09419 5.48375 7.12946 5.23689 7.14122 4.67265 7.14122 4.26123 6.9884 4.00261 6.68277 3.74399 6.37714 3.60882 6.06563 3.59706 5.74824 3.59706 5.45436 3.70872 5.24865 3.93208 5.1311 4.15543 5.01354 4.47869 4.91363 4.90187 4.83134 5.32506 4.74905 5.63068 4.66089 5.81877 4.56685 6.59461 4.22596 6.98252 3.66172 6.98252 2.87412 6.98252 2.54497 6.91786 2.21584 6.78856 1.88669 6.65926 1.55755 6.46531 1.22841 6.20669 0.899264 5.94807 0.570121 5.57778 0.31151 5.09583 0.123428 4.61388-0.0646531 4.06138-0.164571 3.43836-0.176326 2.53323-0.176326 1.89256-0.00587754 1.51641 0.33502 1.14024 0.675917 0.946285 1.07559 0.93453 1.53404 0.93453 1.99249 1.05796 2.32164 1.30482 2.52147 1.55167 2.7213 1.81029 2.82122 2.08065 2.82122 2.25698 2.82122 2.42154 2.76832 2.57436 2.66253 2.72719 2.55673 2.80946 2.37453 2.82122 2.11592 2.82122 1.81029 2.71543 1.55167 2.50383 1.34008 2.29224 1.12849 2.11004 1.02269 1.95722 1.02269 1.93372 1.01094 1.91609 1.00506 1.90432 1.00506 1.89256 1.00506 1.88669 0.993305 1.88669 0.969795 1.89845 0.93453 1.94546 0.887509 2.02775 0.828734 2.11004 0.769959 2.29224 0.69355 2.57436 0.59951 2.85649 0.50547 3.17975 0.464325 3.54416 0.476081 3.96734 0.476081 4.33176 0.540735 4.63738 0.67004 4.94301 0.799346 5.16636 0.963918 5.30742 1.16375 5.44848 1.36359 5.54841 1.54579 5.60718 1.71037 5.66595 1.87493 5.69534 2.02188 5.69534 2.15118 5.69534 2.48033 5.57191 2.72719 5.32506 2.89175 5.0782 3.05632 4.79608 3.15624 4.47869 3.19151 4.1613 3.22677 3.81452 3.31494 3.43836 3.456 3.06221 3.59706 2.78596 3.80278 2.60963 4.07314 2.4098 4.36702 2.30988 4.70791 2.30988 5.09583Z" transform="matrix(1 0 0 -1.04545 183.023 65.8967)"/><path d="M2.29379 7.47976C2.29379 7.67922 2.37274 7.85375 2.53065 8.00335 2.68856 8.15294 2.87139 8.23189 3.07917 8.24021 3.22876 8.24021 3.35343 8.19034 3.45316 8.09061 3.55289 7.99088 3.6069 7.86622 3.61522 7.71662 3.61522 7.52548 3.53211 7.35095 3.36589 7.19304 3.19968 7.03513 3.01684 6.95203 2.81738 6.94371 2.69271 6.94371 2.57637 6.98526 2.46832 7.06838 2.36028 7.15149 2.30211 7.28862 2.29379 7.47976ZM0.261792 3.57782C0.261792 3.6443 0.299191 3.77313 0.373988 3.96427 0.448786 4.15542 0.548516 4.36735 0.673179 4.60005 0.797841 4.83276 0.980681 5.04469 1.22169 5.23583 1.46271 5.42698 1.71203 5.51841 1.96967 5.51009 2.29379 5.51009 2.5639 5.41451 2.77998 5.22337 2.99606 5.03222 3.10825 4.77458 3.11657 4.45046 3.11657 4.30918 3.05839 4.07647 2.94204 3.75235 2.82569 3.42823 2.65947 2.99191 2.44339 2.44339 2.22731 1.89487 2.05278 1.42531 1.91981 1.0347 1.87826 0.851862 1.85747 0.718889 1.85747 0.63578 1.85747 0.428008 1.92812 0.324123 2.0694 0.324123 2.1442 0.324123 2.22315 0.336589 2.30626 0.361522 2.38937 0.386454 2.48494 0.444631 2.59298 0.53605 2.70103 0.627469 2.81323 0.772909 2.92957 0.972369 3.04592 1.17183 3.14982 1.417 3.24123 1.70788 3.26616 1.80761 3.28694 1.86579 3.30356 1.88241 3.32018 1.89902 3.39083 1.90734 3.51549 1.90734 3.6817 1.90734 3.76481 1.86579 3.76481 1.78268 3.76481 1.71619 3.72742 1.58737 3.65262 1.39622 3.57782 1.20507 3.47394 0.993147 3.34096 0.760443 3.20798 0.527739 3.02099 0.319968 2.77998 0.137129 2.53897-0.0457097 2.28133-0.137129 2.00707-0.137129 1.74113-0.137129 1.49595-0.0498651 1.27156 0.124663 1.04717 0.299191 0.930816 0.565137 0.922504 0.922504 0.922504 1.06379 0.943282 1.19676 0.984836 1.32142 1.02639 1.44609 1.20507 1.91981 1.52089 2.74258 1.83669 3.58197 2.01954 4.08479 2.0694 4.251 2.11927 4.41721 2.14835 4.57927 2.15667 4.73718 2.15667 4.93664 2.08602 5.03637 1.94474 5.03637L1.91981 5.03637C1.67048 5.03637 1.44194 4.89925 1.23416 4.62499 1.02639 4.35073 0.868484 4.00167 0.760443 3.57782 0.752131 3.56951 0.743821 3.55704 0.73551 3.54042 0.727199 3.5238 0.723044 3.51134 0.723044 3.50302 0.723044 3.49471 0.714733 3.48641 0.698111 3.47809 0.68149 3.46978 0.669024 3.46562 0.660712 3.46562 0.652401 3.46562 0.63578 3.46562 0.610847 3.46562 0.585915 3.46562 0.552671 3.46562 0.511117 3.46562L0.336589 3.46562C0.286724 3.51549 0.261792 3.55289 0.261792 3.57782Z" transform="matrix(1 0 0 -1.04545 191.874 68.6618)"/><path d="M3.46667-6.21008 3.41679-6.21008C3.21727-6.21008 3.06763-6.09368 2.96787-5.86092L2.96787 6.25996 2.99281 18.3808C3.15909 18.597 3.31703 18.7051 3.46667 18.7051 3.68283 18.7051 3.84908 18.5804 3.96547 18.331L3.96547-5.86092C3.83247-6.09368 3.68283-6.21008 3.51655-6.21008L3.46667-6.21008Z" transform="matrix(1 0 0 -1.04545 198.306 61.9986)"/><path d="M3.46667-6.21008 3.41679-6.21008C3.21727-6.21008 3.06763-6.09368 2.96787-5.86092L2.96787 6.25996 2.99281 18.3808C3.15909 18.597 3.31703 18.7051 3.46667 18.7051 3.68283 18.7051 3.84908 18.5804 3.96547 18.331L3.96547-5.86092C3.83247-6.09368 3.68283-6.21008 3.51655-6.21008L3.46667-6.21008Z" transform="matrix(1 0 0 -1.04545 205.239 61.9986)"/><path d="M15.7122 0.723262C15.7122 0.390729 15.5377 0.224461 15.1885 0.224461 15.1054 0.224461 14.9225 0.357474 14.6398 0.623502 14.3572 0.88953 13.5757 1.66267 12.2955 2.94293L9.70169 5.5367 7.08298 2.91799C5.32054 1.18881 4.41439 0.307593 4.36451 0.274341 4.298 0.241088 4.23981 0.224461 4.18993 0.224461 4.05693 0.224461 3.94053 0.274341 3.84077 0.374101 3.74101 0.473862 3.68283 0.590249 3.66619 0.723262 3.66619 0.83965 3.78259 1.02254 4.01535 1.27194 4.24812 1.52134 5.02959 2.31111 6.35972 3.64125L8.95349 6.23502 6.35972 8.82879C5.01296 10.1756 4.23151 10.9653 4.01535 11.1981 3.7992 11.4309 3.68283 11.6138 3.66619 11.7468 3.66619 11.8964 3.71607 12.0128 3.81583 12.0959 3.91559 12.1791 4.04029 12.2206 4.18993 12.2206 4.27306 12.2206 4.33127 12.2123 4.36451 12.1957 4.41439 12.1625 5.32054 11.2812 7.08298 9.55205L9.70169 6.93334 12.2955 9.52711C13.5757 10.8074 14.3572 11.5805 14.6398 11.8465 14.9225 12.1126 15.1054 12.2456 15.1885 12.2456 15.5377 12.2456 15.7122 12.0793 15.7122 11.7468 15.7122 11.6304 15.6291 11.4807 15.4628 11.2979 15.2966 11.115 14.4819 10.3003 13.0187 8.85373L10.425 6.23502 13.0187 3.61631C14.4154 2.21967 15.2134 1.41327 15.413 1.19712 15.6125 0.980976 15.7122 0.823023 15.7122 0.723262Z" transform="matrix(1 0 0 -1.04545 217.714 61.9856)"/><path d="M3.46667-6.21008 3.41679-6.21008C3.21727-6.21008 3.06763-6.09368 2.96787-5.86092L2.96787 6.25996 2.99281 18.3808C3.15909 18.597 3.31703 18.7051 3.46667 18.7051 3.68283 18.7051 3.84908 18.5804 3.96547 18.331L3.96547-5.86092C3.83247-6.09368 3.68283-6.21008 3.51655-6.21008L3.46667-6.21008Z" transform="matrix(1 0 0 -1.04545 242.662 61.9986)"/><path d="M3.46667-6.21008 3.41679-6.21008C3.21727-6.21008 3.06763-6.09368 2.96787-5.86092L2.96787 6.25996 2.99281 18.3808C3.15909 18.597 3.31703 18.7051 3.46667 18.7051 3.68283 18.7051 3.84908 18.5804 3.96547 18.331L3.96547-5.86092C3.83247-6.09368 3.68283-6.21008 3.51655-6.21008L3.46667-6.21008Z" transform="matrix(1 0 0 -1.04545 249.595 61.9986)"/><path d="M7.1578 15.6624C7.1578 15.7788 6.68394 15.8536 5.73622 15.8868 5.33718 15.8868 5.07947 15.8951 4.96308 15.9118 4.84668 15.9284 4.7885 16.0115 4.7885 16.1612 4.7885 16.1778 4.80513 16.2692 4.83838 16.4355 4.93814 16.768 5.01296 16.9509 5.06284 16.9842 5.11272 17.0174 6.72552 17.0341 9.90121 17.0341 13.0603 17.0174 14.7479 16.9925 14.964 16.9593 16.0282 16.7764 16.9177 16.369 17.6326 15.7372 18.3476 15.1054 18.7134 14.2657 18.73 13.2182 18.73 11.938 18.1813 10.7658 17.084 9.70169 15.9367 8.57108 14.4569 7.85612 12.6446 7.55684 12.5282 7.54021 11.6553 7.5236 10.0259 7.50696L7.6566 7.50696 6.9084 4.53909C6.4096 2.6104 6.1602 1.58785 6.1602 1.47146 6.1602 1.40496 6.1685 1.36339 6.18514 1.34676 6.20177 1.33014 6.25996 1.29688 6.35972 1.247 6.45948 1.19712 6.60082 1.1805 6.7837 1.19712 6.96659 1.21375 7.24093 1.19712 7.60672 1.14724L8.37987 1.14724C8.47963 0.997603 8.52951 0.906155 8.52951 0.872903 8.52951 0.606874 8.47132 0.357474 8.35493 0.1247 8.2718 0.0415669 8.13877 0 7.95589 0 7.906 0 7.59842 0.00831335 7.0331 0.0249401 6.46779 0.0415669 5.63646 0.0498802 4.53909 0.0498802 3.50825 0.0498802 2.71847 0.0498802 2.16979 0.0498802 1.62111 0.0498802 1.32182 0.0415669 1.27194 0.0249401 0.972663 0.0249401 0.823023 0.108074 0.823023 0.274341 0.823023 0.307593 0.847963 0.423981 0.897843 0.623502 0.964351 0.88953 1.03086 1.03917 1.09736 1.07242 1.16387 1.10568 1.35508 1.13062 1.67099 1.14724 2.11991 1.14724 2.61871 1.17218 3.16739 1.22206 3.40016 1.27194 3.55813 1.3717 3.64125 1.52134 3.69113 1.58785 4.28969 3.89896 5.43694 8.45469 6.58418 13.0104 7.1578 15.413 7.1578 15.6624ZM16.0864 13.8168C16.0864 14.033 16.0697 14.2075 16.0365 14.3405 16.0032 14.4736 15.9284 14.6565 15.812 14.8892 15.6956 15.122 15.4878 15.3049 15.1885 15.4379 14.8892 15.5709 14.4819 15.7039 13.9664 15.837 13.85 15.8536 13.185 15.8702 11.9712 15.8868 11.6886 15.8868 11.3976 15.8868 11.0983 15.8868 10.7991 15.8868 10.558 15.8785 10.3751 15.8619 10.1922 15.8453 10.0924 15.8453 10.0758 15.8619 9.85964 15.8453 9.71 15.7704 9.62687 15.6374 9.59363 15.5377 9.43566 14.8975 9.15301 13.717 8.87036 12.5366 8.57939 11.3893 8.28011 10.2753 7.98083 9.16131 7.83118 8.59602 7.83118 8.57939 7.83118 8.54614 8.50457 8.52951 9.85133 8.52951L10.1506 8.52951 10.7242 8.52951C12.5864 8.52951 13.9166 8.94518 14.7146 9.77651 15.1636 10.2254 15.5044 10.8822 15.7372 11.7468 15.97 12.6114 16.0864 13.3014 16.0864 13.8168Z" transform="matrix(1 0 0 -1.04545 256.529 61.9856)"/><path d="M2.30988 5.09583C2.30988 5.47199 2.40391 5.85403 2.592 6.24195 2.78008 6.62987 3.10922 6.9884 3.57942 7.31754 4.04963 7.64669 4.61975 7.80539 5.28979 7.79362 6.0186 7.79362 6.54758 7.63493 6.87673 7.31754 7.20588 7.00016 7.37631 6.6475 7.38807 6.25959 7.38807 5.88343 7.28815 5.60718 7.08832 5.43085 6.88849 5.25453 6.66514 5.16049 6.41828 5.14873 6.26546 5.14873 6.1244 5.19576 5.9951 5.28979 5.8658 5.38383 5.79527 5.53665 5.7835 5.74824 5.7835 5.93633 5.8364 6.10089 5.9422 6.24195 6.04799 6.38301 6.14792 6.48881 6.24195 6.55934 6.33599 6.62987 6.41241 6.66514 6.47118 6.66514 6.48294 6.66514 6.48881 6.67101 6.48881 6.68277 6.48881 6.71803 6.44767 6.77093 6.36538 6.84146 6.28309 6.91199 6.13616 6.97665 5.92457 7.03542 5.71297 7.09419 5.48375 7.12946 5.23689 7.14122 4.67265 7.14122 4.26123 6.9884 4.00261 6.68277 3.74399 6.37714 3.60882 6.06563 3.59706 5.74824 3.59706 5.45436 3.70872 5.24865 3.93208 5.1311 4.15543 5.01354 4.47869 4.91363 4.90187 4.83134 5.32506 4.74905 5.63068 4.66089 5.81877 4.56685 6.59461 4.22596 6.98252 3.66172 6.98252 2.87412 6.98252 2.54497 6.91786 2.21584 6.78856 1.88669 6.65926 1.55755 6.46531 1.22841 6.20669 0.899264 5.94807 0.570121 5.57778 0.31151 5.09583 0.123428 4.61388-0.0646531 4.06138-0.164571 3.43836-0.176326 2.53323-0.176326 1.89256-0.00587754 1.51641 0.33502 1.14024 0.675917 0.946285 1.07559 0.93453 1.53404 0.93453 1.99249 1.05796 2.32164 1.30482 2.52147 1.55167 2.7213 1.81029 2.82122 2.08065 2.82122 2.25698 2.82122 2.42154 2.76832 2.57436 2.66253 2.72719 2.55673 2.80946 2.37453 2.82122 2.11592 2.82122 1.81029 2.71543 1.55167 2.50383 1.34008 2.29224 1.12849 2.11004 1.02269 1.95722 1.02269 1.93372 1.01094 1.91609 1.00506 1.90432 1.00506 1.89256 1.00506 1.88669 0.993305 1.88669 0.969795 1.89845 0.93453 1.94546 0.887509 2.02775 0.828734 2.11004 0.769959 2.29224 0.69355 2.57436 0.59951 2.85649 0.50547 3.17975 0.464325 3.54416 0.476081 3.96734 0.476081 4.33176 0.540735 4.63738 0.67004 4.94301 0.799346 5.16636 0.963918 5.30742 1.16375 5.44848 1.36359 5.54841 1.54579 5.60718 1.71037 5.66595 1.87493 5.69534 2.02188 5.69534 2.15118 5.69534 2.48033 5.57191 2.72719 5.32506 2.89175 5.0782 3.05632 4.79608 3.15624 4.47869 3.19151 4.1613 3.22677 3.81452 3.31494 3.43836 3.456 3.06221 3.59706 2.78596 3.80278 2.60963 4.07314 2.4098 4.36702 2.30988 4.70791 2.30988 5.09583Z" transform="matrix(1 0 0 -1.04545 273.363 65.8967)"/><path d="M2.29379 7.47976C2.29379 7.67922 2.37274 7.85375 2.53065 8.00335 2.68856 8.15294 2.87139 8.23189 3.07917 8.24021 3.22876 8.24021 3.35343 8.19034 3.45316 8.09061 3.55289 7.99088 3.6069 7.86622 3.61522 7.71662 3.61522 7.52548 3.53211 7.35095 3.36589 7.19304 3.19968 7.03513 3.01684 6.95203 2.81738 6.94371 2.69271 6.94371 2.57637 6.98526 2.46832 7.06838 2.36028 7.15149 2.30211 7.28862 2.29379 7.47976ZM0.261792 3.57782C0.261792 3.6443 0.299191 3.77313 0.373988 3.96427 0.448786 4.15542 0.548516 4.36735 0.673179 4.60005 0.797841 4.83276 0.980681 5.04469 1.22169 5.23583 1.46271 5.42698 1.71203 5.51841 1.96967 5.51009 2.29379 5.51009 2.5639 5.41451 2.77998 5.22337 2.99606 5.03222 3.10825 4.77458 3.11657 4.45046 3.11657 4.30918 3.05839 4.07647 2.94204 3.75235 2.82569 3.42823 2.65947 2.99191 2.44339 2.44339 2.22731 1.89487 2.05278 1.42531 1.91981 1.0347 1.87826 0.851862 1.85747 0.718889 1.85747 0.63578 1.85747 0.428008 1.92812 0.324123 2.0694 0.324123 2.1442 0.324123 2.22315 0.336589 2.30626 0.361522 2.38937 0.386454 2.48494 0.444631 2.59298 0.53605 2.70103 0.627469 2.81323 0.772909 2.92957 0.972369 3.04592 1.17183 3.14982 1.417 3.24123 1.70788 3.26616 1.80761 3.28694 1.86579 3.30356 1.88241 3.32018 1.89902 3.39083 1.90734 3.51549 1.90734 3.6817 1.90734 3.76481 1.86579 3.76481 1.78268 3.76481 1.71619 3.72742 1.58737 3.65262 1.39622 3.57782 1.20507 3.47394 0.993147 3.34096 0.760443 3.20798 0.527739 3.02099 0.319968 2.77998 0.137129 2.53897-0.0457097 2.28133-0.137129 2.00707-0.137129 1.74113-0.137129 1.49595-0.0498651 1.27156 0.124663 1.04717 0.299191 0.930816 0.565137 0.922504 0.922504 0.922504 1.06379 0.943282 1.19676 0.984836 1.32142 1.02639 1.44609 1.20507 1.91981 1.52089 2.74258 1.83669 3.58197 2.01954 4.08479 2.0694 4.251 2.11927 4.41721 2.14835 4.57927 2.15667 4.73718 2.15667 4.93664 2.08602 5.03637 1.94474 5.03637L1.91981 5.03637C1.67048 5.03637 1.44194 4.89925 1.23416 4.62499 1.02639 4.35073 0.868484 4.00167 0.760443 3.57782 0.752131 3.56951 0.743821 3.55704 0.73551 3.54042 0.727199 3.5238 0.723044 3.51134 0.723044 3.50302 0.723044 3.49471 0.714733 3.48641 0.698111 3.47809 0.68149 3.46978 0.669024 3.46562 0.660712 3.46562 0.652401 3.46562 0.63578 3.46562 0.610847 3.46562 0.585915 3.46562 0.552671 3.46562 0.511117 3.46562L0.336589 3.46562C0.286724 3.51549 0.261792 3.55289 0.261792 3.57782Z" transform="matrix(1 0 0 -1.04545 282.215 68.6618)"/><path d="M3.46667-6.21008 3.41679-6.21008C3.21727-6.21008 3.06763-6.09368 2.96787-5.86092L2.96787 6.25996 2.99281 18.3808C3.15909 18.597 3.31703 18.7051 3.46667 18.7051 3.68283 18.7051 3.84908 18.5804 3.96547 18.331L3.96547-5.86092C3.83247-6.09368 3.68283-6.21008 3.51655-6.21008L3.46667-6.21008Z" transform="matrix(1 0 0 -1.04545 288.646 61.9986)"/><path d="M3.46667-6.21008 3.41679-6.21008C3.21727-6.21008 3.06763-6.09368 2.96787-5.86092L2.96787 6.25996 2.99281 18.3808C3.15909 18.597 3.31703 18.7051 3.46667 18.7051 3.68283 18.7051 3.84908 18.5804 3.96547 18.331L3.96547-5.86092C3.83247-6.09368 3.68283-6.21008 3.51655-6.21008L3.46667-6.21008Z" transform="matrix(1 0 0 -1.04545 295.58 61.9986)"/><path d="M2.99281 5.48682 158.172 5.48682 158.172 6.98322 2.99281 6.98322Z" transform="matrix(1 0 0 -1.04545 146.835 43.4863)"/></g></svg>