<svg width="418" height="19" xmlns="http://www.w3.org/2000/svg" xmlns:xlink="http://www.w3.org/1999/xlink" xml:space="preserve" overflow="hidden"><g><path d="M5.52597 0.430595C6.23166 0.430595 6.87755 0.74158 7.46364 1.36355 8.04974 1.98553 8.34875 2.70916 8.36072 3.53447 8.36072 4.28801 8.04974 4.80831 7.42776 5.09537 6.15989 5.41832 5.34655 5.63959 4.98772 5.75921 4.6289 5.87882 4.37772 5.99842 4.23418 6.11804 3.51653 6.6204 3.1577 7.34403 3.1577 8.28895 3.1577 9.01858 3.34908 9.68241 3.73182 10.2805 4.11457 10.8785 4.5033 11.327 4.89802 11.6261 5.24488 11.9251 5.66353 12.1643 6.15392 12.3437 6.64431 12.5231 7.02708 12.6188 7.30217 12.6308L7.49953 12.6308 7.62512 12.6308C8.77337 12.6308 9.60465 12.248 10.119 11.4825 10.1309 11.4825 10.2087 11.5603 10.3522 11.7158 10.4958 11.8713 10.6512 12.0447 10.8187 12.2361 10.9861 12.4275 11.1058 12.559 11.1775 12.6308 11.1895 12.6308 11.2134 12.6308 11.2493 12.6308 11.2852 12.6308 11.3151 12.6368 11.339 12.6487 11.4945 12.6487 11.5722 12.6069 11.5722 12.5231 11.5722 12.4394 11.4048 11.7158 11.0699 10.3522 10.735 8.98867 10.5436 8.28298 10.4958 8.23513 10.4479 8.18728 10.3522 8.16934 10.2087 8.1813 9.96947 8.1813 9.84986 8.23513 9.84986 8.34278 9.84986 8.41454 9.85583 8.47434 9.8678 8.52219 9.8678 8.55807 9.87377 8.6717 9.88574 8.86308 9.89771 9.05446 9.90966 9.20994 9.92162 9.32956 9.92162 9.73623 9.8678 10.0891 9.76015 10.3881 9.6525 10.6871 9.54485 10.9084 9.43721 11.0519 9.32956 11.1955 9.18005 11.345 8.98867 11.5005 8.55807 11.7517 8.06768 11.8772 7.51747 11.8772 6.83569 11.8772 6.20177 11.6021 5.61568 11.0519 5.02958 10.5017 4.73057 9.8678 4.7186 9.15014 4.7186 8.79131 4.80831 8.48033 4.98772 8.21719 5.16714 7.95404 5.41234 7.76865 5.72332 7.661 5.77117 7.63708 6.1898 7.52344 6.97923 7.32011 7.76865 7.11678 8.16934 7.00913 8.1813 6.99717 8.58798 6.8656 8.98269 6.57854 9.36544 6.13598 9.74818 5.69342 9.93957 5.09537 9.93957 4.34183 9.93957 4.03085 9.89172 3.69594 9.79603 3.33711 9.73623 3.07396 9.62859 2.78093 9.47309 2.45798 9.31759 2.13503 9.10229 1.78218 8.8272 1.39943 8.5521 1.01668 8.15739 0.657854 7.64306 0.322946 7.12873-0.011961 6.56657-0.239219 5.95656-0.358829 5.81303-0.38275 5.6097-0.394712 5.34655-0.394712 4.16242-0.394712 3.24143-0.0657854 2.58357 0.592068L2.40415 0.789424 1.90179 0.233239C1.62669-0.0897073 1.45924-0.275102 1.39943-0.322946 1.33963-0.370791 1.26188-0.394712 1.16619-0.394712 1.0107-0.394712 0.932956-0.346868 0.932956-0.25118 0.932956-0.215297 1.27982 1.19012 1.97356 3.96506 1.99748 4.03683 2.11709 4.07271 2.33239 4.07271L2.56563 4.07271C2.63739 4.00094 2.67328 3.93515 2.67328 3.87535 2.67328 3.85144 2.6673 3.79761 2.65534 3.71388 2.64337 3.63015 2.61945 3.50456 2.58357 3.33711 2.54769 3.16966 2.53572 2.97231 2.54769 2.74504 2.5716 2.27856 2.67925 1.88385 2.87063 1.56091 3.06201 1.23796 3.31917 0.998742 3.64212 0.843248 3.96506 0.687755 4.27604 0.580106 4.57507 0.520302 4.8741 0.460498 5.19105 0.430595 5.52597 0.430595Z" transform="matrix(1 0 0 -1 2.01303 14.5146)"/><path d="M3.30123 10.7649C3.30123 11.0519 3.41485 11.3031 3.64212 11.5184 3.86938 11.7337 4.13251 11.8473 4.43154 11.8593 4.64684 11.8593 4.82625 11.7875 4.96978 11.644 5.11331 11.5005 5.19105 11.3211 5.20302 11.1058 5.20302 10.8307 5.08341 10.5795 4.84419 10.3522 4.60498 10.125 4.34183 10.0054 4.05477 9.99339 3.87535 9.99339 3.70791 10.0532 3.55241 10.1728 3.39691 10.2924 3.31319 10.4898 3.30123 10.7649ZM0.376771 5.1492C0.376771 5.24488 0.430595 5.43029 0.538244 5.70538 0.645892 5.98048 0.789424 6.28548 0.968839 6.6204 1.14825 6.95531 1.4114 7.26031 1.75826 7.53541 2.10512 7.81051 2.46395 7.94209 2.83475 7.93012 3.30123 7.93012 3.68997 7.79257 4.00094 7.51747 4.31192 7.24237 4.4734 6.87158 4.48536 6.4051 4.48536 6.20177 4.40163 5.86686 4.23418 5.40038 4.06674 4.9339 3.8275 4.30595 3.51653 3.51653 3.20555 2.7271 2.95437 2.0513 2.76298 1.48914 2.70319 1.226 2.67328 1.03462 2.67328 0.915014 2.67328 0.615989 2.77495 0.466478 2.97828 0.466478 3.08593 0.466478 3.19955 0.484419 3.31917 0.520302 3.43878 0.556185 3.57632 0.639912 3.73182 0.771483 3.88732 0.903053 4.04879 1.11237 4.21624 1.39943 4.38369 1.6865 4.53321 2.03935 4.66478 2.45798 4.70066 2.60151 4.73057 2.68524 4.75449 2.70916 4.7784 2.73308 4.88008 2.74504 5.05949 2.74504 5.2987 2.74504 5.41832 2.68524 5.41832 2.56563 5.41832 2.46995 5.36449 2.28454 5.25685 2.00944 5.1492 1.73434 4.99969 1.42934 4.80831 1.09443 4.61693 0.759521 4.34781 0.460498 4.00094 0.197356 3.65408-0.0657854 3.28329-0.197356 2.88857-0.197356 2.50583-0.197356 2.15297-0.0717658 1.83003 0.179415 1.50708 0.430595 1.33963 0.813345 1.32767 1.32767 1.32767 1.531 1.35757 1.72238 1.41737 1.90179 1.47718 2.08121 1.73434 2.76298 2.18886 3.94712 2.64337 5.15517 2.90652 5.87882 2.97828 6.11804 3.05005 6.35725 3.0919 6.59049 3.10387 6.81775 3.10387 7.10482 3.0022 7.24835 2.79887 7.24835L2.76298 7.24835C2.40415 7.24835 2.07523 7.05099 1.7762 6.65628 1.47718 6.26157 1.24992 5.75921 1.09443 5.1492 1.08247 5.13723 1.07051 5.11929 1.05855 5.09537 1.04658 5.07146 1.0406 5.05352 1.0406 5.04155 1.0406 5.02958 1.02864 5.01763 1.00472 5.00567 0.9808 4.9937 0.962859 4.98772 0.950897 4.98772 0.938936 4.98772 0.915014 4.98772 0.879131 4.98772 0.843248 4.98772 0.795404 4.98772 0.7356 4.98772L0.484419 4.98772C0.412653 5.05949 0.376771 5.11331 0.376771 5.1492Z" transform="matrix(1 0 0 -1 13.5853 14.5146)"/><path d="M0.376771 5.1492C0.388732 5.22096 0.406674 5.31665 0.430595 5.43626 0.454516 5.55588 0.526282 5.78312 0.645892 6.11804 0.765503 6.45295 0.885111 6.73402 1.00472 6.96128 1.12433 7.18855 1.31571 7.40982 1.57885 7.62512 1.842 7.84042 2.10512 7.94209 2.36827 7.93012 2.63142 7.91816 2.88857 7.8763 3.13975 7.80453 3.39093 7.73277 3.57035 7.62512 3.678 7.48159 3.78565 7.33805 3.88133 7.20649 3.96506 7.08687 4.04879 6.96726 4.09663 6.85364 4.10859 6.74599L4.14448 6.6204C4.14448 6.59648 4.15045 6.58451 4.16242 6.58451L4.35977 6.78187C5.07743 7.54738 5.92068 7.93012 6.88952 7.93012 7.09285 7.93012 7.27826 7.91816 7.4457 7.89424 7.61315 7.87032 7.76865 7.82845 7.91218 7.76865 8.05571 7.70885 8.16934 7.64903 8.25307 7.58924 8.3368 7.52944 8.42651 7.45767 8.52219 7.37394 8.61787 7.29021 8.67769 7.21246 8.70161 7.1407 8.72552 7.06893 8.77337 6.99119 8.84514 6.90746 8.9169 6.82373 8.94082 6.75196 8.9169 6.69216 8.89299 6.63236 8.91093 6.57854 8.97073 6.53069 9.03053 6.48284 9.04249 6.44098 9.00661 6.4051L9.15014 6.58451C9.90368 7.48159 10.7948 7.93012 11.8234 7.93012 12.4693 7.93012 12.9896 7.76865 13.3843 7.4457 13.779 7.12276 13.9824 6.6503 13.9943 6.02833 13.9943 5.41832 13.7671 4.4734 13.3126 3.19358 12.858 1.91376 12.6308 1.14825 12.6308 0.897073 12.6428 0.72962 12.6726 0.615989 12.7205 0.556185 12.7683 0.496381 12.858 0.466478 12.9896 0.466478 13.3245 0.466478 13.6355 0.645892 13.9226 1.00472 14.2096 1.36355 14.4429 1.85394 14.6223 2.47592 14.6582 2.60749 14.6941 2.68524 14.7299 2.70916 14.7658 2.73308 14.8615 2.74504 15.017 2.74504 15.2562 2.74504 15.3758 2.69719 15.3758 2.60151 15.3758 2.58954 15.3519 2.49984 15.3041 2.33239 15.2084 1.98553 15.0768 1.64463 14.9093 1.30973 14.7419 0.974818 14.4668 0.639912 14.084 0.305005 13.7013-0.0299025 13.2886-0.191376 12.8461-0.179415 12.2839-0.179415 11.8772-0.0179415 11.6261 0.305005 11.3749 0.627951 11.2493 0.962859 11.2493 1.30973 11.2493 1.53699 11.4646 2.25465 11.8952 3.4627 12.3258 4.67075 12.5471 5.57979 12.559 6.1898 12.559 6.89549 12.2959 7.24835 11.7696 7.24835L11.6799 7.24835C10.6512 7.24835 9.78407 6.64431 9.07838 5.43626L8.95279 5.22096 8.36072 2.81681C7.96601 1.24992 7.73874 0.406674 7.67894 0.287063 7.52344-0.0358829 7.26629-0.197356 6.90746-0.197356 6.75196-0.197356 6.62637-0.155493 6.53069-0.0717658 6.43501 0.011961 6.36922 0.0837268 6.33333 0.143532 6.29745 0.203336 6.27951 0.263142 6.27951 0.322946 6.27951 0.454516 6.48284 1.30973 6.88952 2.88857L7.53541 5.50803C7.57129 5.68744 7.58924 5.91471 7.58924 6.1898 7.58924 6.89549 7.32609 7.24835 6.79981 7.24835L6.7101 7.24835C5.68147 7.24835 4.81428 6.64431 4.10859 5.43626L3.983 5.22096 3.39093 2.81681C2.99622 1.24992 2.76896 0.406674 2.70916 0.287063 2.55366-0.0358829 2.29651-0.197356 1.93768-0.197356 1.78218-0.197356 1.65659-0.161473 1.56091-0.0897073 1.46522-0.0179415 1.39943 0.0538244 1.36355 0.12559 1.32767 0.197356 1.31571 0.25716 1.32767 0.305005 1.32767 0.460498 1.55493 1.4413 2.00944 3.2474 2.47592 5.0894 2.70916 6.05224 2.70916 6.13598 2.74504 6.31539 2.76298 6.47686 2.76298 6.6204 2.76298 7.05099 2.61348 7.26629 2.31445 7.26629 2.0513 7.26629 1.83003 7.09884 1.65061 6.76393 1.4712 6.42902 1.33365 6.06421 1.23796 5.6695 1.14227 5.27479 1.07051 5.05949 1.02266 5.02361 0.998742 4.99969 0.903053 4.98772 0.7356 4.98772L0.484419 4.98772C0.412653 5.05949 0.376771 5.11331 0.376771 5.1492Z" transform="matrix(1 0 0 -1 19.7751 14.5146)"/><path d="M0.266377 3.64048C0.274834 3.69122 0.287518 3.75887 0.304431 3.84344 0.321343 3.928 0.372081 4.08867 0.456646 4.32545 0.54121 4.56223 0.625774 4.76095 0.710338 4.92163 0.794903 5.0823 0.930204 5.23874 1.11625 5.39096 1.30229 5.54317 1.48832 5.61506 1.67437 5.6066 1.86041 5.59814 2.04222 5.56854 2.21981 5.5178 2.39739 5.46707 2.52424 5.39096 2.60034 5.28948 2.67645 5.188 2.7441 5.09499 2.8033 5.01042 2.8625 4.92585 2.89631 4.84552 2.90478 4.76941L2.93014 4.68062C2.93014 4.66371 2.93437 4.65525 2.94283 4.65525L3.08236 4.79478C3.58974 5.336 4.18592 5.6066 4.87089 5.6066 5.01464 5.6066 5.14573 5.59814 5.26411 5.58123 5.3825 5.56432 5.49243 5.53471 5.59391 5.49243 5.69539 5.45016 5.77572 5.40787 5.83492 5.36559 5.89412 5.32331 5.95754 5.27257 6.02519 5.21337 6.09284 5.15417 6.13513 5.09921 6.15203 5.04847 6.16894 4.99774 6.20277 4.94277 6.25351 4.88357 6.30425 4.82438 6.32116 4.77364 6.30425 4.73136 6.28734 4.68908 6.30003 4.65103 6.3423 4.6172 6.38458 4.58337 6.39304 4.55377 6.36767 4.52841L6.46915 4.65525C7.0019 5.28948 7.63191 5.6066 8.35916 5.6066 8.8158 5.6066 9.18366 5.49243 9.46272 5.26411 9.74178 5.03579 9.88553 4.70177 9.89399 4.26203 9.89399 3.83075 9.73332 3.16269 9.41198 2.25786 9.09064 1.35303 8.92996 0.811815 8.92996 0.63423 8.93842 0.515841 8.95956 0.435504 8.99339 0.393223 9.02722 0.350941 9.09064 0.3298 9.18366 0.3298 9.42044 0.3298 9.6403 0.456646 9.84326 0.710338 10.0462 0.96403 10.2111 1.31074 10.338 1.75048 10.3633 1.84349 10.3887 1.89847 10.4141 1.91538 10.4394 1.93228 10.5071 1.94074 10.617 1.94074 10.7861 1.94074 10.8707 1.90692 10.8707 1.83927 10.8707 1.83081 10.8538 1.76738 10.82 1.649 10.7523 1.40377 10.6593 1.16276 10.5409 0.925976 10.4225 0.689197 10.228 0.452418 9.95742 0.215638 9.68682-0.0211411 9.39507-0.135303 9.08218-0.126846 8.68473-0.126846 8.39721-0.0126846 8.21963 0.215638 8.04204 0.443961 7.95325 0.680741 7.95325 0.925976 7.95325 1.08665 8.10546 1.59404 8.40989 2.44813 8.71433 3.30222 8.87076 3.94491 8.87923 4.37619 8.87923 4.87511 8.69318 5.12458 8.3211 5.12458L8.25768 5.12458C7.53043 5.12458 6.91734 4.69753 6.41841 3.84344L6.32962 3.69122 5.91103 1.99148C5.63197 0.883695 5.47129 0.287518 5.42901 0.202954 5.31907-0.0253692 5.13727-0.139531 4.88357-0.139531 4.77364-0.139531 4.68484-0.109933 4.6172-0.0507384 4.54955 0.00845641 4.50304 0.0591949 4.47767 0.101477 4.4523 0.143758 4.43961 0.186041 4.43961 0.228323 4.43961 0.321343 4.58337 0.925976 4.87089 2.04222L5.32754 3.89417C5.3529 4.02102 5.36559 4.1817 5.36559 4.37619 5.36559 4.87511 5.17954 5.12458 4.80747 5.12458L4.74404 5.12458C4.0168 5.12458 3.4037 4.69753 2.90478 3.84344L2.81598 3.69122 2.39739 1.99148C2.11833 0.883695 1.95765 0.287518 1.91538 0.202954 1.80544-0.0253692 1.62363-0.139531 1.36994-0.139531 1.26-0.139531 1.17121-0.114161 1.10356-0.063423 1.03591-0.0126846 0.989399 0.0380538 0.96403 0.0887923 0.938661 0.139531 0.930204 0.181812 0.938661 0.215638 0.938661 0.325572 1.09933 1.019 1.42068 2.29591 1.75048 3.5982 1.91538 4.27894 1.91538 4.33814 1.94074 4.46498 1.95343 4.57914 1.95343 4.68062 1.95343 4.98505 1.84773 5.13727 1.63631 5.13727 1.45027 5.13727 1.29383 5.01888 1.16698 4.7821 1.04014 4.54531 0.942889 4.2874 0.875238 4.00834 0.807587 3.72927 0.756849 3.57706 0.723023 3.55169 0.70611 3.53478 0.638458 3.52632 0.520069 3.52632L0.342484 3.52632C0.291746 3.57706 0.266377 3.61511 0.266377 3.64048Z" transform="matrix(1 0 0 -1 36.1197 17.2059)"/><path d="M1.6865 4.48536C1.6865 5.31067 1.7463 6.09412 1.86591 6.83569 1.98553 7.57727 2.12307 8.21719 2.27856 8.75543 2.43406 9.29367 2.65534 9.81995 2.9424 10.3343 3.22946 10.8486 3.45673 11.2493 3.62417 11.5364 3.79162 11.8234 4.0428 12.1344 4.37772 12.4693 4.71263 12.8042 4.90998 13.0076 4.96978 13.0793 5.02958 13.1511 5.17911 13.2767 5.41832 13.4561L5.65156 13.4561 5.72332 13.4561C5.89077 13.4561 5.9745 13.4023 5.9745 13.2946 5.9745 13.2587 5.87283 13.1331 5.6695 12.9178 5.46617 12.7025 5.22096 12.3856 4.9339 11.967 4.64684 11.5483 4.3538 11.034 4.05477 10.424 3.75574 9.81398 3.50456 8.98867 3.30123 7.94806 3.0979 6.90746 2.99622 5.75323 2.99622 4.48536 2.99622 3.21749 3.0979 2.06924 3.30123 1.0406 3.50456 0.011961 3.74976-0.819327 4.03683-1.45326 4.32389-2.08718 4.61693-2.60151 4.91596-2.99622 5.21499-3.39093 5.46617-3.70791 5.6695-3.94712 5.87283-4.18633 5.9745-4.31192 5.9745-4.32389 5.9745-4.43154 5.8848-4.48536 5.70538-4.48536L5.65156-4.48536 5.41832-4.48536 4.91596-4.05477C3.79162-3.03808 2.97231-1.77022 2.45798-0.25118 1.94365 1.26786 1.6865 2.84672 1.6865 4.48536Z" transform="matrix(1 0 0 -1 48.1549 14.5146)"/><path d="M2.35033 5.18508C2.35033 5.56783 2.44601 5.95656 2.63739 6.35127 2.82878 6.74599 3.16367 7.11079 3.64212 7.4457 4.12056 7.78062 4.70066 7.94209 5.38244 7.93012 6.12401 7.93012 6.66225 7.76865 6.99717 7.4457 7.33208 7.12276 7.5055 6.76393 7.51747 6.36922 7.51747 5.98647 7.4158 5.70538 7.21246 5.52597 7.00913 5.34655 6.78187 5.25087 6.53069 5.2389 6.37519 5.2389 6.23166 5.28675 6.10009 5.38244 5.96853 5.47812 5.89676 5.63362 5.8848 5.84891 5.8848 6.0403 5.93862 6.20774 6.04627 6.35127 6.15392 6.49481 6.25559 6.60246 6.35127 6.67422 6.44696 6.74599 6.52471 6.78187 6.58451 6.78187 6.59648 6.78187 6.60246 6.78784 6.60246 6.79981 6.60246 6.83569 6.5606 6.88952 6.47686 6.96128 6.39313 7.03305 6.24363 7.09884 6.02833 7.15864 5.81303 7.21844 5.57979 7.25432 5.32861 7.26629 4.75449 7.26629 4.33586 7.11079 4.07271 6.79981 3.80956 6.48883 3.67202 6.17186 3.66006 5.84891 3.66006 5.54988 3.77368 5.34058 4.00094 5.22096 4.22821 5.10135 4.55713 4.99969 4.98772 4.91596 5.41832 4.83223 5.7293 4.74252 5.92068 4.64684 6.7101 4.29997 7.10482 3.72585 7.10482 2.92446 7.10482 2.58954 7.03902 2.25465 6.90746 1.91974 6.7759 1.58483 6.57854 1.24992 6.31539 0.915014 6.05224 0.580106 5.67547 0.316966 5.18508 0.12559 4.69469-0.0657854 4.13251-0.167454 3.49858-0.179415 2.57759-0.179415 1.92571-0.00598048 1.54297 0.340888 1.16021 0.687755 0.962859 1.09443 0.950897 1.56091 0.950897 2.02738 1.07649 2.3623 1.32767 2.56563 1.57885 2.76896 1.842 2.87063 2.11709 2.87063 2.29651 2.87063 2.46395 2.81681 2.61945 2.70916 2.77495 2.60151 2.85867 2.41612 2.87063 2.15297 2.87063 1.842 2.76298 1.57885 2.54769 1.36355 2.33239 1.14825 2.147 1.0406 1.9915 1.0406 1.96759 1.02864 1.94964 1.02266 1.93768 1.02266 1.92571 1.02266 1.91974 1.0107 1.91974 0.98678 1.9317 0.950897 1.97953 0.903053 2.06327 0.843248 2.147 0.783444 2.33239 0.705697 2.61945 0.610009 2.90652 0.514322 3.23544 0.472458 3.60623 0.484419 4.03683 0.484419 4.40762 0.550205 4.7186 0.681775 5.02958 0.813345 5.25685 0.9808 5.40038 1.18414 5.54391 1.38747 5.64558 1.57287 5.70538 1.74032 5.76518 1.90777 5.79509 2.05729 5.79509 2.18886 5.79509 2.52377 5.6695 2.77495 5.41832 2.9424 5.16714 3.10985 4.88008 3.21152 4.55713 3.2474 4.23418 3.28329 3.88133 3.37299 3.49858 3.51653 3.11584 3.66006 2.83475 3.86938 2.65534 4.14448 2.452 4.44351 2.35033 4.79037 2.35033 5.18508Z" transform="matrix(1 0 0 -1 55.1341 14.5146)"/><path d="M1.39943 0.627951C1.39943 0.627951 1.39943 0.777462 1.39943 1.07649 1.39943 1.37551 1.49512 1.63267 1.6865 1.84797 1.87788 2.06327 2.13503 2.17092 2.45798 2.17092 2.79289 2.17092 3.0919 2.02141 3.35505 1.72238 3.6182 1.42335 3.75574 0.897073 3.76771 0.143532 3.76771-0.275102 3.71388-0.681775 3.60623-1.07649 3.49858-1.4712 3.37299-1.81209 3.22946-2.09915 3.08593-2.38621 2.93043-2.63142 2.76298-2.83475 2.59554-3.03808 2.452-3.19955 2.33239-3.31917 2.21277-3.43878 2.13503-3.49261 2.09915-3.48064 2.0513-3.48064 1.97356-3.42682 1.86591-3.31917 1.75826-3.21152 1.70444-3.13378 1.70444-3.08593 1.70444-3.03808 1.77022-2.9424 1.90179-2.79887 2.03336-2.65534 2.18288-2.47592 2.35033-2.26062 2.51778-2.04533 2.67328-1.7463 2.81681-1.36355 2.96034-0.9808 3.05602-0.544223 3.10387-0.0538244L3.10387 0.161473 3.08593 0.143532C3.06201 0.131571 3.03211 0.11961 2.99622 0.107649 2.96034 0.0956877 2.92446 0.0777462 2.88857 0.0538244 2.85269 0.0299025 2.79887 0.0179415 2.7271 0.0179415 2.65534 0.0179415 2.58357 0.011961 2.5118 0 2.18886 0 1.92571 0.101668 1.72238 0.305005Z" transform="matrix(1 0 0 -1 63.5486 14.5146)"/><path d="M2.35033 5.18508C2.35033 5.56783 2.44601 5.95656 2.63739 6.35127 2.82878 6.74599 3.16367 7.11079 3.64212 7.4457 4.12056 7.78062 4.70066 7.94209 5.38244 7.93012 6.12401 7.93012 6.66225 7.76865 6.99717 7.4457 7.33208 7.12276 7.5055 6.76393 7.51747 6.36922 7.51747 5.98647 7.4158 5.70538 7.21246 5.52597 7.00913 5.34655 6.78187 5.25087 6.53069 5.2389 6.37519 5.2389 6.23166 5.28675 6.10009 5.38244 5.96853 5.47812 5.89676 5.63362 5.8848 5.84891 5.8848 6.0403 5.93862 6.20774 6.04627 6.35127 6.15392 6.49481 6.25559 6.60246 6.35127 6.67422 6.44696 6.74599 6.52471 6.78187 6.58451 6.78187 6.59648 6.78187 6.60246 6.78784 6.60246 6.79981 6.60246 6.83569 6.5606 6.88952 6.47686 6.96128 6.39313 7.03305 6.24363 7.09884 6.02833 7.15864 5.81303 7.21844 5.57979 7.25432 5.32861 7.26629 4.75449 7.26629 4.33586 7.11079 4.07271 6.79981 3.80956 6.48883 3.67202 6.17186 3.66006 5.84891 3.66006 5.54988 3.77368 5.34058 4.00094 5.22096 4.22821 5.10135 4.55713 4.99969 4.98772 4.91596 5.41832 4.83223 5.7293 4.74252 5.92068 4.64684 6.7101 4.29997 7.10482 3.72585 7.10482 2.92446 7.10482 2.58954 7.03902 2.25465 6.90746 1.91974 6.7759 1.58483 6.57854 1.24992 6.31539 0.915014 6.05224 0.580106 5.67547 0.316966 5.18508 0.12559 4.69469-0.0657854 4.13251-0.167454 3.49858-0.179415 2.57759-0.179415 1.92571-0.00598048 1.54297 0.340888 1.16021 0.687755 0.962859 1.09443 0.950897 1.56091 0.950897 2.02738 1.07649 2.3623 1.32767 2.56563 1.57885 2.76896 1.842 2.87063 2.11709 2.87063 2.29651 2.87063 2.46395 2.81681 2.61945 2.70916 2.77495 2.60151 2.85867 2.41612 2.87063 2.15297 2.87063 1.842 2.76298 1.57885 2.54769 1.36355 2.33239 1.14825 2.147 1.0406 1.9915 1.0406 1.96759 1.02864 1.94964 1.02266 1.93768 1.02266 1.92571 1.02266 1.91974 1.0107 1.91974 0.98678 1.9317 0.950897 1.97953 0.903053 2.06327 0.843248 2.147 0.783444 2.33239 0.705697 2.61945 0.610009 2.90652 0.514322 3.23544 0.472458 3.60623 0.484419 4.03683 0.484419 4.40762 0.550205 4.7186 0.681775 5.02958 0.813345 5.25685 0.9808 5.40038 1.18414 5.54391 1.38747 5.64558 1.57287 5.70538 1.74032 5.76518 1.90777 5.79509 2.05729 5.79509 2.18886 5.79509 2.52377 5.6695 2.77495 5.41832 2.9424 5.16714 3.10985 4.88008 3.21152 4.55713 3.2474 4.23418 3.28329 3.88133 3.37299 3.49858 3.51653 3.11584 3.66006 2.83475 3.86938 2.65534 4.14448 2.452 4.44351 2.35033 4.79037 2.35033 5.18508Z" transform="matrix(1 0 0 -1 71.5272 14.5146)"/><path d="M1.00208 0.545438C0.951346 0.545438 0.837184 0.570807 0.6596 0.621546 0.482015 0.672284 0.388995 0.723023 0.380538 0.773761 0.380538 0.832956 0.613089 1.8139 1.07819 3.71659 1.5433 5.61928 1.80121 6.6129 1.85195 6.69747 1.9788 6.96807 2.19866 7.10338 2.51155 7.10338 2.68068 7.10338 2.85826 7.03996 3.04431 6.91311 3.23035 6.78627 3.32337 6.60022 3.32337 6.35499 3.32337 6.31271 3.31491 6.24929 3.298 6.16472 3.28954 6.10552 2.92168 5.16264 2.19444 3.33605 1.46719 1.50947 1.09088 0.58772 1.06551 0.570807 1.04014 0.553895 1.019 0.545438 1.00208 0.545438Z" transform="matrix(1 0 0 -1 80.5338 7.10482)"/><path d="M1.07649 13.4381 1.14825 13.4561C1.20806 13.4561 1.26786 13.4561 1.32767 13.4561L1.54297 13.4561 2.04533 13.0255C3.16966 12.0088 3.98898 10.741 4.5033 9.22191 5.01763 7.70286 5.27479 6.12401 5.27479 4.48536 5.27479 3.67202 5.21499 2.88857 5.09537 2.13503 4.97576 1.38149 4.83822 0.74158 4.68272 0.215297 4.52722-0.310985 4.30595-0.837268 4.01889-1.36355 3.73182-1.88983 3.50456-2.29053 3.33711-2.56563 3.16966-2.84072 2.92446-3.14573 2.60151-3.48064 2.27856-3.81556 2.08718-4.01291 2.02738-4.07271 1.96759-4.13251 1.83003-4.24615 1.61473-4.4136 1.57885-4.44948 1.55493-4.4734 1.54297-4.48536L1.32767-4.48536C1.23198-4.48536 1.16619-4.48536 1.13031-4.48536 1.09443-4.48536 1.06453-4.46742 1.0406-4.43154 1.01668-4.39566 0.998742-4.34183 0.98678-4.27007 0.998742-4.2581 1.06453-4.18036 1.18414-4.03683 3.03808-2.11112 3.96506 0.72962 3.96506 4.48536 3.96506 8.2411 3.03808 11.0818 1.18414 13.0076 1.06453 13.1511 0.998742 13.2288 0.98678 13.2408 0.98678 13.3365 1.01668 13.4023 1.07649 13.4381Z" transform="matrix(1 0 0 -1 84.9205 14.5146)"/><path d="M1.00472 6.22568C1.00472 6.38118 1.08845 6.50078 1.2559 6.58451L12.6846 6.58451C12.864 6.48883 12.9537 6.36922 12.9537 6.22568 12.9537 6.09412 12.87 5.98048 12.7025 5.8848L6.99717 5.86686 1.29178 5.86686C1.10041 5.92665 1.00472 6.04627 1.00472 6.22568ZM1.00472 2.74504C1.00472 2.92446 1.10041 3.04407 1.29178 3.10387L12.7025 3.10387C12.87 2.98426 12.9537 2.86466 12.9537 2.74504 12.9537 2.58954 12.864 2.46995 12.6846 2.38621L1.2559 2.38621C1.08845 2.46995 1.00472 2.58954 1.00472 2.74504Z" transform="matrix(1 0 0 -1 96.8821 14.5146)"/><path d="M2.97828 12.0746C2.97828 12.2181 3.07996 12.3437 3.28329 12.4514L3.62417 12.4514C4.70066 12.4155 5.38244 12.1165 5.6695 11.5543 5.74127 11.3749 6.08215 10.43 6.69216 8.71955 7.30217 7.00913 7.90621 5.34058 8.50425 3.71388 9.10229 2.08718 9.40132 1.24992 9.40132 1.20208 9.48505 0.962859 9.5628 0.765503 9.63456 0.610009 9.70633 0.454516 9.76015 0.340888 9.79603 0.269122 9.83192 0.197356 9.86182 0.143532 9.88574 0.107649 9.90966 0.0717658 9.93359 0.0478439 9.95751 0.0358829 9.98142 0.0239219 9.98742 0 9.97545-0.0358829 9.96348-0.0717658 9.9276-0.12559 9.8678-0.197356L8.64778-0.197356C8.34875-0.0299025 8.15739 0.143532 8.07365 0.322946 7.98992 0.502361 7.68492 1.30375 7.15864 2.7271L6.35127 4.96978 6.10009 4.70066C5.9446 4.50928 5.66353 4.18036 5.25685 3.71388 4.85017 3.2474 4.50928 2.85269 4.23418 2.52975 3.93515 2.18288 3.56438 1.75228 3.12181 1.23796 2.5118 0.520302 2.13503 0.101668 1.9915-0.0179415 1.84797-0.137551 1.68052-0.203336 1.48914-0.215297 1.05855-0.215297 0.843248-0.0239219 0.843248 0.358829 0.843248 0.562165 0.926976 0.753541 1.09443 0.932956 1.26188 1.11237 2.08718 1.91974 3.57035 3.35505 3.92918 3.70191 4.32986 4.09065 4.77243 4.52125 5.21499 4.95184 5.54391 5.27479 5.75921 5.49009L6.06421 5.77715C6.06421 5.78911 5.76518 6.62637 5.16714 8.28895 4.5691 9.95153 4.24615 10.8486 4.1983 10.9802 3.95909 11.5184 3.65408 11.7875 3.28329 11.7875 3.07996 11.7875 2.97828 11.8832 2.97828 12.0746Z" transform="matrix(1 0 0 -1 115.825 14.5146)"/><path d="M5.52597 0.430595C6.23166 0.430595 6.87755 0.74158 7.46364 1.36355 8.04974 1.98553 8.34875 2.70916 8.36072 3.53447 8.36072 4.28801 8.04974 4.80831 7.42776 5.09537 6.15989 5.41832 5.34655 5.63959 4.98772 5.75921 4.6289 5.87882 4.37772 5.99842 4.23418 6.11804 3.51653 6.6204 3.1577 7.34403 3.1577 8.28895 3.1577 9.01858 3.34908 9.68241 3.73182 10.2805 4.11457 10.8785 4.5033 11.327 4.89802 11.6261 5.24488 11.9251 5.66353 12.1643 6.15392 12.3437 6.64431 12.5231 7.02708 12.6188 7.30217 12.6308L7.49953 12.6308 7.62512 12.6308C8.77337 12.6308 9.60465 12.248 10.119 11.4825 10.1309 11.4825 10.2087 11.5603 10.3522 11.7158 10.4958 11.8713 10.6512 12.0447 10.8187 12.2361 10.9861 12.4275 11.1058 12.559 11.1775 12.6308 11.1895 12.6308 11.2134 12.6308 11.2493 12.6308 11.2852 12.6308 11.3151 12.6368 11.339 12.6487 11.4945 12.6487 11.5722 12.6069 11.5722 12.5231 11.5722 12.4394 11.4048 11.7158 11.0699 10.3522 10.735 8.98867 10.5436 8.28298 10.4958 8.23513 10.4479 8.18728 10.3522 8.16934 10.2087 8.1813 9.96947 8.1813 9.84986 8.23513 9.84986 8.34278 9.84986 8.41454 9.85583 8.47434 9.8678 8.52219 9.8678 8.55807 9.87377 8.6717 9.88574 8.86308 9.89771 9.05446 9.90966 9.20994 9.92162 9.32956 9.92162 9.73623 9.8678 10.0891 9.76015 10.3881 9.6525 10.6871 9.54485 10.9084 9.43721 11.0519 9.32956 11.1955 9.18005 11.345 8.98867 11.5005 8.55807 11.7517 8.06768 11.8772 7.51747 11.8772 6.83569 11.8772 6.20177 11.6021 5.61568 11.0519 5.02958 10.5017 4.73057 9.8678 4.7186 9.15014 4.7186 8.79131 4.80831 8.48033 4.98772 8.21719 5.16714 7.95404 5.41234 7.76865 5.72332 7.661 5.77117 7.63708 6.1898 7.52344 6.97923 7.32011 7.76865 7.11678 8.16934 7.00913 8.1813 6.99717 8.58798 6.8656 8.98269 6.57854 9.36544 6.13598 9.74818 5.69342 9.93957 5.09537 9.93957 4.34183 9.93957 4.03085 9.89172 3.69594 9.79603 3.33711 9.73623 3.07396 9.62859 2.78093 9.47309 2.45798 9.31759 2.13503 9.10229 1.78218 8.8272 1.39943 8.5521 1.01668 8.15739 0.657854 7.64306 0.322946 7.12873-0.011961 6.56657-0.239219 5.95656-0.358829 5.81303-0.38275 5.6097-0.394712 5.34655-0.394712 4.16242-0.394712 3.24143-0.0657854 2.58357 0.592068L2.40415 0.789424 1.90179 0.233239C1.62669-0.0897073 1.45924-0.275102 1.39943-0.322946 1.33963-0.370791 1.26188-0.394712 1.16619-0.394712 1.0107-0.394712 0.932956-0.346868 0.932956-0.25118 0.932956-0.215297 1.27982 1.19012 1.97356 3.96506 1.99748 4.03683 2.11709 4.07271 2.33239 4.07271L2.56563 4.07271C2.63739 4.00094 2.67328 3.93515 2.67328 3.87535 2.67328 3.85144 2.6673 3.79761 2.65534 3.71388 2.64337 3.63015 2.61945 3.50456 2.58357 3.33711 2.54769 3.16966 2.53572 2.97231 2.54769 2.74504 2.5716 2.27856 2.67925 1.88385 2.87063 1.56091 3.06201 1.23796 3.31917 0.998742 3.64212 0.843248 3.96506 0.687755 4.27604 0.580106 4.57507 0.520302 4.8741 0.460498 5.19105 0.430595 5.52597 0.430595Z" transform="matrix(1 0 0 -1 126.285 14.5146)"/><path d="M3.30123 10.7649C3.30123 11.0519 3.41485 11.3031 3.64212 11.5184 3.86938 11.7337 4.13251 11.8473 4.43154 11.8593 4.64684 11.8593 4.82625 11.7875 4.96978 11.644 5.11331 11.5005 5.19105 11.3211 5.20302 11.1058 5.20302 10.8307 5.08341 10.5795 4.84419 10.3522 4.60498 10.125 4.34183 10.0054 4.05477 9.99339 3.87535 9.99339 3.70791 10.0532 3.55241 10.1728 3.39691 10.2924 3.31319 10.4898 3.30123 10.7649ZM0.376771 5.1492C0.376771 5.24488 0.430595 5.43029 0.538244 5.70538 0.645892 5.98048 0.789424 6.28548 0.968839 6.6204 1.14825 6.95531 1.4114 7.26031 1.75826 7.53541 2.10512 7.81051 2.46395 7.94209 2.83475 7.93012 3.30123 7.93012 3.68997 7.79257 4.00094 7.51747 4.31192 7.24237 4.4734 6.87158 4.48536 6.4051 4.48536 6.20177 4.40163 5.86686 4.23418 5.40038 4.06674 4.9339 3.8275 4.30595 3.51653 3.51653 3.20555 2.7271 2.95437 2.0513 2.76298 1.48914 2.70319 1.226 2.67328 1.03462 2.67328 0.915014 2.67328 0.615989 2.77495 0.466478 2.97828 0.466478 3.08593 0.466478 3.19955 0.484419 3.31917 0.520302 3.43878 0.556185 3.57632 0.639912 3.73182 0.771483 3.88732 0.903053 4.04879 1.11237 4.21624 1.39943 4.38369 1.6865 4.53321 2.03935 4.66478 2.45798 4.70066 2.60151 4.73057 2.68524 4.75449 2.70916 4.7784 2.73308 4.88008 2.74504 5.05949 2.74504 5.2987 2.74504 5.41832 2.68524 5.41832 2.56563 5.41832 2.46995 5.36449 2.28454 5.25685 2.00944 5.1492 1.73434 4.99969 1.42934 4.80831 1.09443 4.61693 0.759521 4.34781 0.460498 4.00094 0.197356 3.65408-0.0657854 3.28329-0.197356 2.88857-0.197356 2.50583-0.197356 2.15297-0.0717658 1.83003 0.179415 1.50708 0.430595 1.33963 0.813345 1.32767 1.32767 1.32767 1.531 1.35757 1.72238 1.41737 1.90179 1.47718 2.08121 1.73434 2.76298 2.18886 3.94712 2.64337 5.15517 2.90652 5.87882 2.97828 6.11804 3.05005 6.35725 3.0919 6.59049 3.10387 6.81775 3.10387 7.10482 3.0022 7.24835 2.79887 7.24835L2.76298 7.24835C2.40415 7.24835 2.07523 7.05099 1.7762 6.65628 1.47718 6.26157 1.24992 5.75921 1.09443 5.1492 1.08247 5.13723 1.07051 5.11929 1.05855 5.09537 1.04658 5.07146 1.0406 5.05352 1.0406 5.04155 1.0406 5.02958 1.02864 5.01763 1.00472 5.00567 0.9808 4.9937 0.962859 4.98772 0.950897 4.98772 0.938936 4.98772 0.915014 4.98772 0.879131 4.98772 0.843248 4.98772 0.795404 4.98772 0.7356 4.98772L0.484419 4.98772C0.412653 5.05949 0.376771 5.11331 0.376771 5.1492Z" transform="matrix(1 0 0 -1 137.857 14.5146)"/><path d="M0.376771 5.1492C0.388732 5.22096 0.406674 5.31665 0.430595 5.43626 0.454516 5.55588 0.526282 5.78312 0.645892 6.11804 0.765503 6.45295 0.885111 6.73402 1.00472 6.96128 1.12433 7.18855 1.31571 7.40982 1.57885 7.62512 1.842 7.84042 2.10512 7.94209 2.36827 7.93012 2.63142 7.91816 2.88857 7.8763 3.13975 7.80453 3.39093 7.73277 3.57035 7.62512 3.678 7.48159 3.78565 7.33805 3.88133 7.20649 3.96506 7.08687 4.04879 6.96726 4.09663 6.85364 4.10859 6.74599L4.14448 6.6204C4.14448 6.59648 4.15045 6.58451 4.16242 6.58451L4.35977 6.78187C5.07743 7.54738 5.92068 7.93012 6.88952 7.93012 7.09285 7.93012 7.27826 7.91816 7.4457 7.89424 7.61315 7.87032 7.76865 7.82845 7.91218 7.76865 8.05571 7.70885 8.16934 7.64903 8.25307 7.58924 8.3368 7.52944 8.42651 7.45767 8.52219 7.37394 8.61787 7.29021 8.67769 7.21246 8.70161 7.1407 8.72552 7.06893 8.77337 6.99119 8.84514 6.90746 8.9169 6.82373 8.94082 6.75196 8.9169 6.69216 8.89299 6.63236 8.91093 6.57854 8.97073 6.53069 9.03053 6.48284 9.04249 6.44098 9.00661 6.4051L9.15014 6.58451C9.90368 7.48159 10.7948 7.93012 11.8234 7.93012 12.4693 7.93012 12.9896 7.76865 13.3843 7.4457 13.779 7.12276 13.9824 6.6503 13.9943 6.02833 13.9943 5.41832 13.7671 4.4734 13.3126 3.19358 12.858 1.91376 12.6308 1.14825 12.6308 0.897073 12.6428 0.72962 12.6726 0.615989 12.7205 0.556185 12.7683 0.496381 12.858 0.466478 12.9896 0.466478 13.3245 0.466478 13.6355 0.645892 13.9226 1.00472 14.2096 1.36355 14.4429 1.85394 14.6223 2.47592 14.6582 2.60749 14.6941 2.68524 14.7299 2.70916 14.7658 2.73308 14.8615 2.74504 15.017 2.74504 15.2562 2.74504 15.3758 2.69719 15.3758 2.60151 15.3758 2.58954 15.3519 2.49984 15.3041 2.33239 15.2084 1.98553 15.0768 1.64463 14.9093 1.30973 14.7419 0.974818 14.4668 0.639912 14.084 0.305005 13.7013-0.0299025 13.2886-0.191376 12.8461-0.179415 12.2839-0.179415 11.8772-0.0179415 11.6261 0.305005 11.3749 0.627951 11.2493 0.962859 11.2493 1.30973 11.2493 1.53699 11.4646 2.25465 11.8952 3.4627 12.3258 4.67075 12.5471 5.57979 12.559 6.1898 12.559 6.89549 12.2959 7.24835 11.7696 7.24835L11.6799 7.24835C10.6512 7.24835 9.78407 6.64431 9.07838 5.43626L8.95279 5.22096 8.36072 2.81681C7.96601 1.24992 7.73874 0.406674 7.67894 0.287063 7.52344-0.0358829 7.26629-0.197356 6.90746-0.197356 6.75196-0.197356 6.62637-0.155493 6.53069-0.0717658 6.43501 0.011961 6.36922 0.0837268 6.33333 0.143532 6.29745 0.203336 6.27951 0.263142 6.27951 0.322946 6.27951 0.454516 6.48284 1.30973 6.88952 2.88857L7.53541 5.50803C7.57129 5.68744 7.58924 5.91471 7.58924 6.1898 7.58924 6.89549 7.32609 7.24835 6.79981 7.24835L6.7101 7.24835C5.68147 7.24835 4.81428 6.64431 4.10859 5.43626L3.983 5.22096 3.39093 2.81681C2.99622 1.24992 2.76896 0.406674 2.70916 0.287063 2.55366-0.0358829 2.29651-0.197356 1.93768-0.197356 1.78218-0.197356 1.65659-0.161473 1.56091-0.0897073 1.46522-0.0179415 1.39943 0.0538244 1.36355 0.12559 1.32767 0.197356 1.31571 0.25716 1.32767 0.305005 1.32767 0.460498 1.55493 1.4413 2.00944 3.2474 2.47592 5.0894 2.70916 6.05224 2.70916 6.13598 2.74504 6.31539 2.76298 6.47686 2.76298 6.6204 2.76298 7.05099 2.61348 7.26629 2.31445 7.26629 2.0513 7.26629 1.83003 7.09884 1.65061 6.76393 1.4712 6.42902 1.33365 6.06421 1.23796 5.6695 1.14227 5.27479 1.07051 5.05949 1.02266 5.02361 0.998742 4.99969 0.903053 4.98772 0.7356 4.98772L0.484419 4.98772C0.412653 5.05949 0.376771 5.11331 0.376771 5.1492Z" transform="matrix(1 0 0 -1 144.047 14.5146)"/><path d="M1.6865 4.48536C1.6865 5.31067 1.7463 6.09412 1.86591 6.83569 1.98553 7.57727 2.12307 8.21719 2.27856 8.75543 2.43406 9.29367 2.65534 9.81995 2.9424 10.3343 3.22946 10.8486 3.45673 11.2493 3.62417 11.5364 3.79162 11.8234 4.0428 12.1344 4.37772 12.4693 4.71263 12.8042 4.90998 13.0076 4.96978 13.0793 5.02958 13.1511 5.17911 13.2767 5.41832 13.4561L5.65156 13.4561 5.72332 13.4561C5.89077 13.4561 5.9745 13.4023 5.9745 13.2946 5.9745 13.2587 5.87283 13.1331 5.6695 12.9178 5.46617 12.7025 5.22096 12.3856 4.9339 11.967 4.64684 11.5483 4.3538 11.034 4.05477 10.424 3.75574 9.81398 3.50456 8.98867 3.30123 7.94806 3.0979 6.90746 2.99622 5.75323 2.99622 4.48536 2.99622 3.21749 3.0979 2.06924 3.30123 1.0406 3.50456 0.011961 3.74976-0.819327 4.03683-1.45326 4.32389-2.08718 4.61693-2.60151 4.91596-2.99622 5.21499-3.39093 5.46617-3.70791 5.6695-3.94712 5.87283-4.18633 5.9745-4.31192 5.9745-4.32389 5.9745-4.43154 5.8848-4.48536 5.70538-4.48536L5.65156-4.48536 5.41832-4.48536 4.91596-4.05477C3.79162-3.03808 2.97231-1.77022 2.45798-0.25118 1.94365 1.26786 1.6865 2.84672 1.6865 4.48536Z" transform="matrix(1 0 0 -1 159.799 14.5146)"/><path d="M2.35033 5.18508C2.35033 5.56783 2.44601 5.95656 2.63739 6.35127 2.82878 6.74599 3.16367 7.11079 3.64212 7.4457 4.12056 7.78062 4.70066 7.94209 5.38244 7.93012 6.12401 7.93012 6.66225 7.76865 6.99717 7.4457 7.33208 7.12276 7.5055 6.76393 7.51747 6.36922 7.51747 5.98647 7.4158 5.70538 7.21246 5.52597 7.00913 5.34655 6.78187 5.25087 6.53069 5.2389 6.37519 5.2389 6.23166 5.28675 6.10009 5.38244 5.96853 5.47812 5.89676 5.63362 5.8848 5.84891 5.8848 6.0403 5.93862 6.20774 6.04627 6.35127 6.15392 6.49481 6.25559 6.60246 6.35127 6.67422 6.44696 6.74599 6.52471 6.78187 6.58451 6.78187 6.59648 6.78187 6.60246 6.78784 6.60246 6.79981 6.60246 6.83569 6.5606 6.88952 6.47686 6.96128 6.39313 7.03305 6.24363 7.09884 6.02833 7.15864 5.81303 7.21844 5.57979 7.25432 5.32861 7.26629 4.75449 7.26629 4.33586 7.11079 4.07271 6.79981 3.80956 6.48883 3.67202 6.17186 3.66006 5.84891 3.66006 5.54988 3.77368 5.34058 4.00094 5.22096 4.22821 5.10135 4.55713 4.99969 4.98772 4.91596 5.41832 4.83223 5.7293 4.74252 5.92068 4.64684 6.7101 4.29997 7.10482 3.72585 7.10482 2.92446 7.10482 2.58954 7.03902 2.25465 6.90746 1.91974 6.7759 1.58483 6.57854 1.24992 6.31539 0.915014 6.05224 0.580106 5.67547 0.316966 5.18508 0.12559 4.69469-0.0657854 4.13251-0.167454 3.49858-0.179415 2.57759-0.179415 1.92571-0.00598048 1.54297 0.340888 1.16021 0.687755 0.962859 1.09443 0.950897 1.56091 0.950897 2.02738 1.07649 2.3623 1.32767 2.56563 1.57885 2.76896 1.842 2.87063 2.11709 2.87063 2.29651 2.87063 2.46395 2.81681 2.61945 2.70916 2.77495 2.60151 2.85867 2.41612 2.87063 2.15297 2.87063 1.842 2.76298 1.57885 2.54769 1.36355 2.33239 1.14825 2.147 1.0406 1.9915 1.0406 1.96759 1.02864 1.94964 1.02266 1.93768 1.02266 1.92571 1.02266 1.91974 1.0107 1.91974 0.98678 1.9317 0.950897 1.97953 0.903053 2.06327 0.843248 2.147 0.783444 2.33239 0.705697 2.61945 0.610009 2.90652 0.514322 3.23544 0.472458 3.60623 0.484419 4.03683 0.484419 4.40762 0.550205 4.7186 0.681775 5.02958 0.813345 5.25685 0.9808 5.40038 1.18414 5.54391 1.38747 5.64558 1.57287 5.70538 1.74032 5.76518 1.90777 5.79509 2.05729 5.79509 2.18886 5.79509 2.52377 5.6695 2.77495 5.41832 2.9424 5.16714 3.10985 4.88008 3.21152 4.55713 3.2474 4.23418 3.28329 3.88133 3.37299 3.49858 3.51653 3.11584 3.66006 2.83475 3.86938 2.65534 4.14448 2.452 4.44351 2.35033 4.79037 2.35033 5.18508Z" transform="matrix(1 0 0 -1 166.778 14.5146)"/><path d="M1.39943 0.627951C1.39943 0.627951 1.39943 0.777462 1.39943 1.07649 1.39943 1.37551 1.49512 1.63267 1.6865 1.84797 1.87788 2.06327 2.13503 2.17092 2.45798 2.17092 2.79289 2.17092 3.0919 2.02141 3.35505 1.72238 3.6182 1.42335 3.75574 0.897073 3.76771 0.143532 3.76771-0.275102 3.71388-0.681775 3.60623-1.07649 3.49858-1.4712 3.37299-1.81209 3.22946-2.09915 3.08593-2.38621 2.93043-2.63142 2.76298-2.83475 2.59554-3.03808 2.452-3.19955 2.33239-3.31917 2.21277-3.43878 2.13503-3.49261 2.09915-3.48064 2.0513-3.48064 1.97356-3.42682 1.86591-3.31917 1.75826-3.21152 1.70444-3.13378 1.70444-3.08593 1.70444-3.03808 1.77022-2.9424 1.90179-2.79887 2.03336-2.65534 2.18288-2.47592 2.35033-2.26062 2.51778-2.04533 2.67328-1.7463 2.81681-1.36355 2.96034-0.9808 3.05602-0.544223 3.10387-0.0538244L3.10387 0.161473 3.08593 0.143532C3.06201 0.131571 3.03211 0.11961 2.99622 0.107649 2.96034 0.0956877 2.92446 0.0777462 2.88857 0.0538244 2.85269 0.0299025 2.79887 0.0179415 2.7271 0.0179415 2.65534 0.0179415 2.58357 0.011961 2.5118 0 2.18886 0 1.92571 0.101668 1.72238 0.305005Z" transform="matrix(1 0 0 -1 175.193 14.5146)"/><path d="M2.35033 5.18508C2.35033 5.56783 2.44601 5.95656 2.63739 6.35127 2.82878 6.74599 3.16367 7.11079 3.64212 7.4457 4.12056 7.78062 4.70066 7.94209 5.38244 7.93012 6.12401 7.93012 6.66225 7.76865 6.99717 7.4457 7.33208 7.12276 7.5055 6.76393 7.51747 6.36922 7.51747 5.98647 7.4158 5.70538 7.21246 5.52597 7.00913 5.34655 6.78187 5.25087 6.53069 5.2389 6.37519 5.2389 6.23166 5.28675 6.10009 5.38244 5.96853 5.47812 5.89676 5.63362 5.8848 5.84891 5.8848 6.0403 5.93862 6.20774 6.04627 6.35127 6.15392 6.49481 6.25559 6.60246 6.35127 6.67422 6.44696 6.74599 6.52471 6.78187 6.58451 6.78187 6.59648 6.78187 6.60246 6.78784 6.60246 6.79981 6.60246 6.83569 6.5606 6.88952 6.47686 6.96128 6.39313 7.03305 6.24363 7.09884 6.02833 7.15864 5.81303 7.21844 5.57979 7.25432 5.32861 7.26629 4.75449 7.26629 4.33586 7.11079 4.07271 6.79981 3.80956 6.48883 3.67202 6.17186 3.66006 5.84891 3.66006 5.54988 3.77368 5.34058 4.00094 5.22096 4.22821 5.10135 4.55713 4.99969 4.98772 4.91596 5.41832 4.83223 5.7293 4.74252 5.92068 4.64684 6.7101 4.29997 7.10482 3.72585 7.10482 2.92446 7.10482 2.58954 7.03902 2.25465 6.90746 1.91974 6.7759 1.58483 6.57854 1.24992 6.31539 0.915014 6.05224 0.580106 5.67547 0.316966 5.18508 0.12559 4.69469-0.0657854 4.13251-0.167454 3.49858-0.179415 2.57759-0.179415 1.92571-0.00598048 1.54297 0.340888 1.16021 0.687755 0.962859 1.09443 0.950897 1.56091 0.950897 2.02738 1.07649 2.3623 1.32767 2.56563 1.57885 2.76896 1.842 2.87063 2.11709 2.87063 2.29651 2.87063 2.46395 2.81681 2.61945 2.70916 2.77495 2.60151 2.85867 2.41612 2.87063 2.15297 2.87063 1.842 2.76298 1.57885 2.54769 1.36355 2.33239 1.14825 2.147 1.0406 1.9915 1.0406 1.96759 1.02864 1.94964 1.02266 1.93768 1.02266 1.92571 1.02266 1.91974 1.0107 1.91974 0.98678 1.9317 0.950897 1.97953 0.903053 2.06327 0.843248 2.147 0.783444 2.33239 0.705697 2.61945 0.610009 2.90652 0.514322 3.23544 0.472458 3.60623 0.484419 4.03683 0.484419 4.40762 0.550205 4.7186 0.681775 5.02958 0.813345 5.25685 0.9808 5.40038 1.18414 5.54391 1.38747 5.64558 1.57287 5.70538 1.74032 5.76518 1.90777 5.79509 2.05729 5.79509 2.18886 5.79509 2.52377 5.6695 2.77495 5.41832 2.9424 5.16714 3.10985 4.88008 3.21152 4.55713 3.2474 4.23418 3.28329 3.88133 3.37299 3.49858 3.51653 3.11584 3.66006 2.83475 3.86938 2.65534 4.14448 2.452 4.44351 2.35033 4.79037 2.35033 5.18508Z" transform="matrix(1 0 0 -1 183.171 14.5146)"/><path d="M1.00208 0.545438C0.951346 0.545438 0.837184 0.570807 0.6596 0.621546 0.482015 0.672284 0.388995 0.723023 0.380538 0.773761 0.380538 0.832956 0.613089 1.8139 1.07819 3.71659 1.5433 5.61928 1.80121 6.6129 1.85195 6.69747 1.9788 6.96807 2.19866 7.10338 2.51155 7.10338 2.68068 7.10338 2.85826 7.03996 3.04431 6.91311 3.23035 6.78627 3.32337 6.60022 3.32337 6.35499 3.32337 6.31271 3.31491 6.24929 3.298 6.16472 3.28954 6.10552 2.92168 5.16264 2.19444 3.33605 1.46719 1.50947 1.09088 0.58772 1.06551 0.570807 1.04014 0.553895 1.019 0.545438 1.00208 0.545438Z" transform="matrix(1 0 0 -1 192.178 7.10482)"/><path d="M1.07649 13.4381 1.14825 13.4561C1.20806 13.4561 1.26786 13.4561 1.32767 13.4561L1.54297 13.4561 2.04533 13.0255C3.16966 12.0088 3.98898 10.741 4.5033 9.22191 5.01763 7.70286 5.27479 6.12401 5.27479 4.48536 5.27479 3.67202 5.21499 2.88857 5.09537 2.13503 4.97576 1.38149 4.83822 0.74158 4.68272 0.215297 4.52722-0.310985 4.30595-0.837268 4.01889-1.36355 3.73182-1.88983 3.50456-2.29053 3.33711-2.56563 3.16966-2.84072 2.92446-3.14573 2.60151-3.48064 2.27856-3.81556 2.08718-4.01291 2.02738-4.07271 1.96759-4.13251 1.83003-4.24615 1.61473-4.4136 1.57885-4.44948 1.55493-4.4734 1.54297-4.48536L1.32767-4.48536C1.23198-4.48536 1.16619-4.48536 1.13031-4.48536 1.09443-4.48536 1.06453-4.46742 1.0406-4.43154 1.01668-4.39566 0.998742-4.34183 0.98678-4.27007 0.998742-4.2581 1.06453-4.18036 1.18414-4.03683 3.03808-2.11112 3.96506 0.72962 3.96506 4.48536 3.96506 8.2411 3.03808 11.0818 1.18414 13.0076 1.06453 13.1511 0.998742 13.2288 0.98678 13.2408 0.98678 13.3365 1.01668 13.4023 1.07649 13.4381Z" transform="matrix(1 0 0 -1 196.563 14.5146)"/><path d="M1.00472 4.25212C1.00472 4.25212 1.00472 4.32986 1.00472 4.48536 1.00472 4.64086 1.08845 4.76046 1.2559 4.84419L6.6204 4.84419 6.6204 7.53541 6.63834 10.2266C6.75795 10.3821 6.87158 10.4599 6.97923 10.4599 7.13472 10.4599 7.25432 10.3702 7.33805 10.1907L7.33805 4.84419 12.6846 4.84419C12.864 4.74851 12.9537 4.6289 12.9537 4.48536 12.9537 4.34183 12.864 4.22222 12.6846 4.12653L7.33805 4.12653 7.33805-1.22002C7.24237-1.38747 7.13472-1.4712 7.01511-1.4712L6.97923-1.4712 6.94334-1.4712C6.79981-1.4712 6.69216-1.38747 6.6204-1.22002L6.6204 4.12653 1.2559 4.12653C1.08845 4.21027 1.00472 4.32986 1.00472 4.48536Z" transform="matrix(1 0 0 -1 207.531 14.5146)"/><path d="M1.6865 4.48536C1.6865 5.31067 1.7463 6.09412 1.86591 6.83569 1.98553 7.57727 2.12307 8.21719 2.27856 8.75543 2.43406 9.29367 2.65534 9.81995 2.9424 10.3343 3.22946 10.8486 3.45673 11.2493 3.62417 11.5364 3.79162 11.8234 4.0428 12.1344 4.37772 12.4693 4.71263 12.8042 4.90998 13.0076 4.96978 13.0793 5.02958 13.1511 5.17911 13.2767 5.41832 13.4561L5.65156 13.4561 5.72332 13.4561C5.89077 13.4561 5.9745 13.4023 5.9745 13.2946 5.9745 13.2587 5.87283 13.1331 5.6695 12.9178 5.46617 12.7025 5.22096 12.3856 4.9339 11.967 4.64684 11.5483 4.3538 11.034 4.05477 10.424 3.75574 9.81398 3.50456 8.98867 3.30123 7.94806 3.0979 6.90746 2.99622 5.75323 2.99622 4.48536 2.99622 3.21749 3.0979 2.06924 3.30123 1.0406 3.50456 0.011961 3.74976-0.819327 4.03683-1.45326 4.32389-2.08718 4.61693-2.60151 4.91596-2.99622 5.21499-3.39093 5.46617-3.70791 5.6695-3.94712 5.87283-4.18633 5.9745-4.31192 5.9745-4.32389 5.9745-4.43154 5.8848-4.48536 5.70538-4.48536L5.65156-4.48536 5.41832-4.48536 4.91596-4.05477C3.79162-3.03808 2.97231-1.77022 2.45798-0.25118 1.94365 1.26786 1.6865 2.84672 1.6865 4.48536Z" transform="matrix(1 0 0 -1 225.476 14.5146)"/><path d="M3.82153 10.3702 3.58829 10.2805C3.42084 10.2207 3.18161 10.1608 2.87063 10.101 2.55965 10.0412 2.21277 9.99936 1.83003 9.97545L1.48914 9.97545 1.48914 10.8008 1.83003 10.8008C2.39219 10.8247 2.91249 10.9144 3.39093 11.0699 3.86938 11.2254 4.20427 11.3689 4.39566 11.5005 4.58704 11.632 4.75449 11.7636 4.89802 11.8952 4.92193 11.9311 4.9937 11.949 5.11331 11.949 5.22096 11.949 5.32264 11.9131 5.41832 11.8414L5.41832 6.47686 5.43626 1.09443C5.51999 1.0107 5.59176 0.956877 5.65156 0.932956 5.71136 0.909034 5.85489 0.885111 6.08215 0.86119 6.30942 0.837268 6.6802 0.825307 7.19452 0.825307L7.661 0.825307 7.661 0 7.46364 0C7.21246 0.0358829 6.26157 0.0538244 4.61095 0.0538244 2.98426 0.0538244 2.04533 0.0358829 1.79415 0L1.57885 0 1.57885 0.825307 2.04533 0.825307C2.30847 0.825307 2.53572 0.825307 2.7271 0.825307 2.91848 0.825307 3.06799 0.831287 3.17564 0.843248 3.28329 0.85521 3.37897 0.873151 3.4627 0.897073 3.54643 0.920994 3.59427 0.932956 3.60623 0.932956 3.6182 0.932956 3.65408 0.962859 3.71388 1.02266 3.77368 1.08247 3.80956 1.10639 3.82153 1.09443L3.82153 10.3702Z" transform="matrix(1 0 0 -1 232.455 14.5146)"/><path d="M1.50708 4.25212C1.50708 4.25212 1.50708 4.32986 1.50708 4.48536 1.50708 4.64086 1.59081 4.76046 1.75826 4.84419L12.1822 4.84419C12.3617 4.74851 12.4514 4.6289 12.4514 4.48536 12.4514 4.34183 12.3617 4.22222 12.1822 4.12653L1.75826 4.12653C1.59081 4.21027 1.50708 4.32986 1.50708 4.48536Z" transform="matrix(1 0 0 -1 245.412 14.5146)"/><path d="M2.97828 12.0746C2.97828 12.2181 3.07996 12.3437 3.28329 12.4514L3.62417 12.4514C4.70066 12.4155 5.38244 12.1165 5.6695 11.5543 5.74127 11.3749 6.08215 10.43 6.69216 8.71955 7.30217 7.00913 7.90621 5.34058 8.50425 3.71388 9.10229 2.08718 9.40132 1.24992 9.40132 1.20208 9.48505 0.962859 9.5628 0.765503 9.63456 0.610009 9.70633 0.454516 9.76015 0.340888 9.79603 0.269122 9.83192 0.197356 9.86182 0.143532 9.88574 0.107649 9.90966 0.0717658 9.93359 0.0478439 9.95751 0.0358829 9.98142 0.0239219 9.98742 0 9.97545-0.0358829 9.96348-0.0717658 9.9276-0.12559 9.8678-0.197356L8.64778-0.197356C8.34875-0.0299025 8.15739 0.143532 8.07365 0.322946 7.98992 0.502361 7.68492 1.30375 7.15864 2.7271L6.35127 4.96978 6.10009 4.70066C5.9446 4.50928 5.66353 4.18036 5.25685 3.71388 4.85017 3.2474 4.50928 2.85269 4.23418 2.52975 3.93515 2.18288 3.56438 1.75228 3.12181 1.23796 2.5118 0.520302 2.13503 0.101668 1.9915-0.0179415 1.84797-0.137551 1.68052-0.203336 1.48914-0.215297 1.05855-0.215297 0.843248-0.0239219 0.843248 0.358829 0.843248 0.562165 0.926976 0.753541 1.09443 0.932956 1.26188 1.11237 2.08718 1.91974 3.57035 3.35505 3.92918 3.70191 4.32986 4.09065 4.77243 4.52125 5.21499 4.95184 5.54391 5.27479 5.75921 5.49009L6.06421 5.77715C6.06421 5.78911 5.76518 6.62637 5.16714 8.28895 4.5691 9.95153 4.24615 10.8486 4.1983 10.9802 3.95909 11.5184 3.65408 11.7875 3.28329 11.7875 3.07996 11.7875 2.97828 11.8832 2.97828 12.0746Z" transform="matrix(1 0 0 -1 263.357 14.5146)"/><path d="M1.07649 13.4381 1.14825 13.4561C1.20806 13.4561 1.26786 13.4561 1.32767 13.4561L1.54297 13.4561 2.04533 13.0255C3.16966 12.0088 3.98898 10.741 4.5033 9.22191 5.01763 7.70286 5.27479 6.12401 5.27479 4.48536 5.27479 3.67202 5.21499 2.88857 5.09537 2.13503 4.97576 1.38149 4.83822 0.74158 4.68272 0.215297 4.52722-0.310985 4.30595-0.837268 4.01889-1.36355 3.73182-1.88983 3.50456-2.29053 3.33711-2.56563 3.16966-2.84072 2.92446-3.14573 2.60151-3.48064 2.27856-3.81556 2.08718-4.01291 2.02738-4.07271 1.96759-4.13251 1.83003-4.24615 1.61473-4.4136 1.57885-4.44948 1.55493-4.4734 1.54297-4.48536L1.32767-4.48536C1.23198-4.48536 1.16619-4.48536 1.13031-4.48536 1.09443-4.48536 1.06453-4.46742 1.0406-4.43154 1.01668-4.39566 0.998742-4.34183 0.98678-4.27007 0.998742-4.2581 1.06453-4.18036 1.18414-4.03683 3.03808-2.11112 3.96506 0.72962 3.96506 4.48536 3.96506 8.2411 3.03808 11.0818 1.18414 13.0076 1.06453 13.1511 0.998742 13.2288 0.98678 13.2408 0.98678 13.3365 1.01668 13.4023 1.07649 13.4381Z" transform="matrix(1 0 0 -1 273.817 14.5146)"/><path d="M2.35033 5.18508C2.35033 5.56783 2.44601 5.95656 2.63739 6.35127 2.82878 6.74599 3.16367 7.11079 3.64212 7.4457 4.12056 7.78062 4.70066 7.94209 5.38244 7.93012 6.12401 7.93012 6.66225 7.76865 6.99717 7.4457 7.33208 7.12276 7.5055 6.76393 7.51747 6.36922 7.51747 5.98647 7.4158 5.70538 7.21246 5.52597 7.00913 5.34655 6.78187 5.25087 6.53069 5.2389 6.37519 5.2389 6.23166 5.28675 6.10009 5.38244 5.96853 5.47812 5.89676 5.63362 5.8848 5.84891 5.8848 6.0403 5.93862 6.20774 6.04627 6.35127 6.15392 6.49481 6.25559 6.60246 6.35127 6.67422 6.44696 6.74599 6.52471 6.78187 6.58451 6.78187 6.59648 6.78187 6.60246 6.78784 6.60246 6.79981 6.60246 6.83569 6.5606 6.88952 6.47686 6.96128 6.39313 7.03305 6.24363 7.09884 6.02833 7.15864 5.81303 7.21844 5.57979 7.25432 5.32861 7.26629 4.75449 7.26629 4.33586 7.11079 4.07271 6.79981 3.80956 6.48883 3.67202 6.17186 3.66006 5.84891 3.66006 5.54988 3.77368 5.34058 4.00094 5.22096 4.22821 5.10135 4.55713 4.99969 4.98772 4.91596 5.41832 4.83223 5.7293 4.74252 5.92068 4.64684 6.7101 4.29997 7.10482 3.72585 7.10482 2.92446 7.10482 2.58954 7.03902 2.25465 6.90746 1.91974 6.7759 1.58483 6.57854 1.24992 6.31539 0.915014 6.05224 0.580106 5.67547 0.316966 5.18508 0.12559 4.69469-0.0657854 4.13251-0.167454 3.49858-0.179415 2.57759-0.179415 1.92571-0.00598048 1.54297 0.340888 1.16021 0.687755 0.962859 1.09443 0.950897 1.56091 0.950897 2.02738 1.07649 2.3623 1.32767 2.56563 1.57885 2.76896 1.842 2.87063 2.11709 2.87063 2.29651 2.87063 2.46395 2.81681 2.61945 2.70916 2.77495 2.60151 2.85867 2.41612 2.87063 2.15297 2.87063 1.842 2.76298 1.57885 2.54769 1.36355 2.33239 1.14825 2.147 1.0406 1.9915 1.0406 1.96759 1.02864 1.94964 1.02266 1.93768 1.02266 1.92571 1.02266 1.91974 1.0107 1.91974 0.98678 1.9317 0.950897 1.97953 0.903053 2.06327 0.843248 2.147 0.783444 2.33239 0.705697 2.61945 0.610009 2.90652 0.514322 3.23544 0.472458 3.60623 0.484419 4.03683 0.484419 4.40762 0.550205 4.7186 0.681775 5.02958 0.813345 5.25685 0.9808 5.40038 1.18414 5.54391 1.38747 5.64558 1.57287 5.70538 1.74032 5.76518 1.90777 5.79509 2.05729 5.79509 2.18886 5.79509 2.52377 5.6695 2.77495 5.41832 2.9424 5.16714 3.10985 4.88008 3.21152 4.55713 3.2474 4.23418 3.28329 3.88133 3.37299 3.49858 3.51653 3.11584 3.66006 2.83475 3.86938 2.65534 4.14448 2.452 4.44351 2.35033 4.79037 2.35033 5.18508Z" transform="matrix(1 0 0 -1 280.796 14.5146)"/><path d="M0.592068 2.81681C0.592068 4.02486 1.04658 5.17311 1.95562 6.26157 2.86466 7.35002 3.88732 7.90021 5.02361 7.91218 5.63362 7.91218 6.17186 7.61914 6.63834 7.03305 6.82972 7.39188 7.10482 7.57129 7.46364 7.57129 7.61914 7.57129 7.75668 7.52344 7.8763 7.42776 7.99591 7.33208 8.05571 7.21246 8.05571 7.06893 8.05571 6.91343 7.83444 5.95656 7.39188 4.1983 6.94932 2.44004 6.72207 1.44728 6.7101 1.22002 6.7101 0.920994 6.75196 0.723638 6.83569 0.627951 6.91943 0.532264 7.04502 0.478439 7.21246 0.466478 7.32011 0.478439 7.43973 0.532264 7.57129 0.627951 7.82247 0.86717 8.06768 1.4413 8.30689 2.35033 8.37866 2.58954 8.43846 2.71513 8.48631 2.7271 8.51022 2.73907 8.57004 2.74504 8.66572 2.74504L8.73749 2.74504C8.96475 2.74504 9.07838 2.69122 9.07838 2.58357 9.07838 2.5118 9.04847 2.35033 8.98867 2.09915 8.92887 1.84797 8.80925 1.52502 8.62984 1.13031 8.45043 0.7356 8.25904 0.436575 8.05571 0.233239 7.90021 0.0777462 7.70885-0.0478439 7.48159-0.143532 7.3859-0.167454 7.24237-0.179415 7.05099-0.179415 6.64431-0.179415 6.30343-0.0897073 6.02833 0.0897073 5.75323 0.269122 5.57382 0.454516 5.49009 0.645892L5.38244 0.915014C5.37047 0.926976 5.34655 0.920994 5.31067 0.897073 5.28675 0.873151 5.26282 0.849228 5.2389 0.825307 4.53321 0.155493 3.81556-0.179415 3.08593-0.179415 2.42807-0.179415 1.84797 0.0598048 1.34561 0.538244 0.843248 1.01668 0.592068 1.7762 0.592068 2.81681ZM6.29745 5.8848C6.29745 5.95656 6.26754 6.08813 6.20774 6.27951 6.14794 6.47089 6.01039 6.6802 5.79509 6.90746 5.57979 7.13472 5.3047 7.25432 4.96978 7.26629 4.55116 7.26629 4.15045 7.0809 3.76771 6.7101 3.38496 6.33931 3.08593 5.85489 2.87063 5.25685 2.52377 4.31192 2.27856 3.33114 2.13503 2.31445 2.13503 2.27856 2.13503 2.21277 2.13503 2.11709 2.13503 2.02141 2.12906 1.94964 2.11709 1.90179 2.11709 1.36355 2.22474 0.99276 2.44004 0.789424 2.65534 0.586088 2.91249 0.478439 3.21152 0.466478 3.66603 0.466478 4.11457 0.663834 4.55713 1.05855 4.99969 1.45326 5.26282 1.75826 5.34655 1.97356 5.37047 2.02141 5.53194 2.66131 5.83097 3.8933 6.13 5.12528 6.28548 5.78911 6.29745 5.8848Z" transform="matrix(1 0 0 -1 289.211 14.5146)"/><path d="M0.376771 5.1492C0.388732 5.22096 0.406674 5.31665 0.430595 5.43626 0.454516 5.55588 0.526282 5.78312 0.645892 6.11804 0.765503 6.45295 0.885111 6.73402 1.00472 6.96128 1.12433 7.18855 1.31571 7.40982 1.57885 7.62512 1.842 7.84042 2.10512 7.94209 2.36827 7.93012 2.63142 7.91816 2.88857 7.8763 3.13975 7.80453 3.39093 7.73277 3.57035 7.62512 3.678 7.48159 3.78565 7.33805 3.88133 7.20649 3.96506 7.08687 4.04879 6.96726 4.09663 6.85364 4.10859 6.74599L4.14448 6.6204C4.14448 6.59648 4.15045 6.58451 4.16242 6.58451L4.35977 6.78187C5.07743 7.54738 5.92068 7.93012 6.88952 7.93012 7.09285 7.93012 7.27826 7.91816 7.4457 7.89424 7.61315 7.87032 7.76865 7.82845 7.91218 7.76865 8.05571 7.70885 8.16934 7.64903 8.25307 7.58924 8.3368 7.52944 8.42651 7.45767 8.52219 7.37394 8.61787 7.29021 8.67769 7.21246 8.70161 7.1407 8.72552 7.06893 8.77337 6.99119 8.84514 6.90746 8.9169 6.82373 8.94082 6.75196 8.9169 6.69216 8.89299 6.63236 8.91093 6.57854 8.97073 6.53069 9.03053 6.48284 9.04249 6.44098 9.00661 6.4051L9.15014 6.58451C9.90368 7.48159 10.7948 7.93012 11.8234 7.93012 12.4693 7.93012 12.9896 7.76865 13.3843 7.4457 13.779 7.12276 13.9824 6.6503 13.9943 6.02833 13.9943 5.41832 13.7671 4.4734 13.3126 3.19358 12.858 1.91376 12.6308 1.14825 12.6308 0.897073 12.6428 0.72962 12.6726 0.615989 12.7205 0.556185 12.7683 0.496381 12.858 0.466478 12.9896 0.466478 13.3245 0.466478 13.6355 0.645892 13.9226 1.00472 14.2096 1.36355 14.4429 1.85394 14.6223 2.47592 14.6582 2.60749 14.6941 2.68524 14.7299 2.70916 14.7658 2.73308 14.8615 2.74504 15.017 2.74504 15.2562 2.74504 15.3758 2.69719 15.3758 2.60151 15.3758 2.58954 15.3519 2.49984 15.3041 2.33239 15.2084 1.98553 15.0768 1.64463 14.9093 1.30973 14.7419 0.974818 14.4668 0.639912 14.084 0.305005 13.7013-0.0299025 13.2886-0.191376 12.8461-0.179415 12.2839-0.179415 11.8772-0.0179415 11.6261 0.305005 11.3749 0.627951 11.2493 0.962859 11.2493 1.30973 11.2493 1.53699 11.4646 2.25465 11.8952 3.4627 12.3258 4.67075 12.5471 5.57979 12.559 6.1898 12.559 6.89549 12.2959 7.24835 11.7696 7.24835L11.6799 7.24835C10.6512 7.24835 9.78407 6.64431 9.07838 5.43626L8.95279 5.22096 8.36072 2.81681C7.96601 1.24992 7.73874 0.406674 7.67894 0.287063 7.52344-0.0358829 7.26629-0.197356 6.90746-0.197356 6.75196-0.197356 6.62637-0.155493 6.53069-0.0717658 6.43501 0.011961 6.36922 0.0837268 6.33333 0.143532 6.29745 0.203336 6.27951 0.263142 6.27951 0.322946 6.27951 0.454516 6.48284 1.30973 6.88952 2.88857L7.53541 5.50803C7.57129 5.68744 7.58924 5.91471 7.58924 6.1898 7.58924 6.89549 7.32609 7.24835 6.79981 7.24835L6.7101 7.24835C5.68147 7.24835 4.81428 6.64431 4.10859 5.43626L3.983 5.22096 3.39093 2.81681C2.99622 1.24992 2.76896 0.406674 2.70916 0.287063 2.55366-0.0358829 2.29651-0.197356 1.93768-0.197356 1.78218-0.197356 1.65659-0.161473 1.56091-0.0897073 1.46522-0.0179415 1.39943 0.0538244 1.36355 0.12559 1.32767 0.197356 1.31571 0.25716 1.32767 0.305005 1.32767 0.460498 1.55493 1.4413 2.00944 3.2474 2.47592 5.0894 2.70916 6.05224 2.70916 6.13598 2.74504 6.31539 2.76298 6.47686 2.76298 6.6204 2.76298 7.05099 2.61348 7.26629 2.31445 7.26629 2.0513 7.26629 1.83003 7.09884 1.65061 6.76393 1.4712 6.42902 1.33365 6.06421 1.23796 5.6695 1.14227 5.27479 1.07051 5.05949 1.02266 5.02361 0.998742 4.99969 0.903053 4.98772 0.7356 4.98772L0.484419 4.98772C0.412653 5.05949 0.376771 5.11331 0.376771 5.1492Z" transform="matrix(1 0 0 -1 298.702 14.5146)"/><path d="M0.699717 3.01416C0.699717 3.69594 0.813345 4.31792 1.0406 4.88008 1.26786 5.44224 1.56091 5.90871 1.91974 6.27951 2.27856 6.6503 2.67925 6.96128 3.12181 7.21246 3.56438 7.46364 3.983 7.64903 4.37772 7.76865 4.77243 7.88827 5.1492 7.94209 5.50803 7.93012L5.56185 7.93012C6.10009 7.93012 6.56657 7.79856 6.96128 7.53541 7.356 7.27226 7.55335 6.88354 7.55335 6.36922 7.55335 5.29273 6.88952 4.58704 5.56185 4.25212 4.97576 4.09663 4.17438 4.01291 3.1577 4.00094 2.71513 4.00094 2.48789 3.98898 2.47592 3.96506 2.47592 3.94115 2.44004 3.73182 2.36827 3.33711 2.29651 2.9424 2.25465 2.59554 2.24268 2.29651 2.24268 1.73434 2.36827 1.29178 2.61945 0.968839 2.87063 0.645892 3.2474 0.478439 3.74976 0.466478 4.25212 0.454516 4.80831 0.568147 5.41832 0.807365 6.02833 1.04658 6.57854 1.4413 7.06893 1.9915 7.17658 2.11112 7.24835 2.17092 7.28423 2.17092 7.33208 2.17092 7.40982 2.11709 7.51747 2.00944 7.62512 1.90179 7.68492 1.81806 7.69688 1.75826 7.70885 1.69846 7.65503 1.60277 7.53541 1.4712 7.4158 1.33963 7.23638 1.17816 6.99717 0.98678 6.75795 0.795404 6.48284 0.610009 6.17186 0.430595 5.86088 0.25118 5.48411 0.101668 5.04155-0.0179415 4.59899-0.137551 4.14448-0.197356 3.678-0.197356 2.73308-0.197356 2.00347 0.11961 1.48914 0.753541 0.974818 1.38747 0.711678 2.14101 0.699717 3.01416ZM6.69216 6.33333C6.6204 6.95531 6.21372 7.26629 5.47214 7.26629 5.07743 7.26629 4.71263 7.18256 4.37772 7.01511 4.0428 6.84766 3.77368 6.64431 3.57035 6.4051 3.36702 6.16589 3.19358 5.92068 3.05005 5.6695 2.90652 5.41832 2.81083 5.20302 2.76298 5.02361 2.71513 4.84419 2.68524 4.73057 2.67328 4.68272 2.67328 4.67075 2.79289 4.66478 3.03211 4.66478 4.38369 4.66478 5.32861 4.80831 5.86686 5.09537 6.4051 5.38244 6.6802 5.79509 6.69216 6.33333Z" transform="matrix(1 0 0 -1 314.454 14.5146)"/><path d="M0.376771 5.1492C0.388732 5.22096 0.406674 5.31665 0.430595 5.43626 0.454516 5.55588 0.526282 5.78312 0.645892 6.11804 0.765503 6.45295 0.885111 6.73402 1.00472 6.96128 1.12433 7.18855 1.31571 7.40982 1.57885 7.62512 1.842 7.84042 2.10512 7.94209 2.36827 7.93012 2.63142 7.91816 2.88857 7.8763 3.13975 7.80453 3.39093 7.73277 3.57035 7.62512 3.678 7.48159 3.78565 7.33805 3.88133 7.20649 3.96506 7.08687 4.04879 6.96726 4.09663 6.85364 4.10859 6.74599L4.14448 6.6204C4.14448 6.59648 4.15045 6.58451 4.16242 6.58451L4.35977 6.78187C5.07743 7.54738 5.92068 7.93012 6.88952 7.93012 7.09285 7.93012 7.27826 7.91816 7.4457 7.89424 7.61315 7.87032 7.76865 7.82845 7.91218 7.76865 8.05571 7.70885 8.16934 7.64903 8.25307 7.58924 8.3368 7.52944 8.42651 7.45767 8.52219 7.37394 8.61787 7.29021 8.67769 7.21246 8.70161 7.1407 8.72552 7.06893 8.77337 6.99119 8.84514 6.90746 8.9169 6.82373 8.94082 6.75196 8.9169 6.69216 8.89299 6.63236 8.91093 6.57854 8.97073 6.53069 9.03053 6.48284 9.04249 6.44098 9.00661 6.4051L9.15014 6.58451C9.90368 7.48159 10.7948 7.93012 11.8234 7.93012 12.4693 7.93012 12.9896 7.76865 13.3843 7.4457 13.779 7.12276 13.9824 6.6503 13.9943 6.02833 13.9943 5.41832 13.7671 4.4734 13.3126 3.19358 12.858 1.91376 12.6308 1.14825 12.6308 0.897073 12.6428 0.72962 12.6726 0.615989 12.7205 0.556185 12.7683 0.496381 12.858 0.466478 12.9896 0.466478 13.3245 0.466478 13.6355 0.645892 13.9226 1.00472 14.2096 1.36355 14.4429 1.85394 14.6223 2.47592 14.6582 2.60749 14.6941 2.68524 14.7299 2.70916 14.7658 2.73308 14.8615 2.74504 15.017 2.74504 15.2562 2.74504 15.3758 2.69719 15.3758 2.60151 15.3758 2.58954 15.3519 2.49984 15.3041 2.33239 15.2084 1.98553 15.0768 1.64463 14.9093 1.30973 14.7419 0.974818 14.4668 0.639912 14.084 0.305005 13.7013-0.0299025 13.2886-0.191376 12.8461-0.179415 12.2839-0.179415 11.8772-0.0179415 11.6261 0.305005 11.3749 0.627951 11.2493 0.962859 11.2493 1.30973 11.2493 1.53699 11.4646 2.25465 11.8952 3.4627 12.3258 4.67075 12.5471 5.57979 12.559 6.1898 12.559 6.89549 12.2959 7.24835 11.7696 7.24835L11.6799 7.24835C10.6512 7.24835 9.78407 6.64431 9.07838 5.43626L8.95279 5.22096 8.36072 2.81681C7.96601 1.24992 7.73874 0.406674 7.67894 0.287063 7.52344-0.0358829 7.26629-0.197356 6.90746-0.197356 6.75196-0.197356 6.62637-0.155493 6.53069-0.0717658 6.43501 0.011961 6.36922 0.0837268 6.33333 0.143532 6.29745 0.203336 6.27951 0.263142 6.27951 0.322946 6.27951 0.454516 6.48284 1.30973 6.88952 2.88857L7.53541 5.50803C7.57129 5.68744 7.58924 5.91471 7.58924 6.1898 7.58924 6.89549 7.32609 7.24835 6.79981 7.24835L6.7101 7.24835C5.68147 7.24835 4.81428 6.64431 4.10859 5.43626L3.983 5.22096 3.39093 2.81681C2.99622 1.24992 2.76896 0.406674 2.70916 0.287063 2.55366-0.0358829 2.29651-0.197356 1.93768-0.197356 1.78218-0.197356 1.65659-0.161473 1.56091-0.0897073 1.46522-0.0179415 1.39943 0.0538244 1.36355 0.12559 1.32767 0.197356 1.31571 0.25716 1.32767 0.305005 1.32767 0.460498 1.55493 1.4413 2.00944 3.2474 2.47592 5.0894 2.70916 6.05224 2.70916 6.13598 2.74504 6.31539 2.76298 6.47686 2.76298 6.6204 2.76298 7.05099 2.61348 7.26629 2.31445 7.26629 2.0513 7.26629 1.83003 7.09884 1.65061 6.76393 1.4712 6.42902 1.33365 6.06421 1.23796 5.6695 1.14227 5.27479 1.07051 5.05949 1.02266 5.02361 0.998742 4.99969 0.903053 4.98772 0.7356 4.98772L0.484419 4.98772C0.412653 5.05949 0.376771 5.11331 0.376771 5.1492Z" transform="matrix(1 0 0 -1 322.815 14.5146)"/><path d="M0.592068 2.81681C0.592068 4.02486 1.04658 5.17311 1.95562 6.26157 2.86466 7.35002 3.88732 7.90021 5.02361 7.91218 5.63362 7.91218 6.17186 7.61914 6.63834 7.03305 6.82972 7.39188 7.10482 7.57129 7.46364 7.57129 7.61914 7.57129 7.75668 7.52344 7.8763 7.42776 7.99591 7.33208 8.05571 7.21246 8.05571 7.06893 8.05571 6.91343 7.83444 5.95656 7.39188 4.1983 6.94932 2.44004 6.72207 1.44728 6.7101 1.22002 6.7101 0.920994 6.75196 0.723638 6.83569 0.627951 6.91943 0.532264 7.04502 0.478439 7.21246 0.466478 7.32011 0.478439 7.43973 0.532264 7.57129 0.627951 7.82247 0.86717 8.06768 1.4413 8.30689 2.35033 8.37866 2.58954 8.43846 2.71513 8.48631 2.7271 8.51022 2.73907 8.57004 2.74504 8.66572 2.74504L8.73749 2.74504C8.96475 2.74504 9.07838 2.69122 9.07838 2.58357 9.07838 2.5118 9.04847 2.35033 8.98867 2.09915 8.92887 1.84797 8.80925 1.52502 8.62984 1.13031 8.45043 0.7356 8.25904 0.436575 8.05571 0.233239 7.90021 0.0777462 7.70885-0.0478439 7.48159-0.143532 7.3859-0.167454 7.24237-0.179415 7.05099-0.179415 6.64431-0.179415 6.30343-0.0897073 6.02833 0.0897073 5.75323 0.269122 5.57382 0.454516 5.49009 0.645892L5.38244 0.915014C5.37047 0.926976 5.34655 0.920994 5.31067 0.897073 5.28675 0.873151 5.26282 0.849228 5.2389 0.825307 4.53321 0.155493 3.81556-0.179415 3.08593-0.179415 2.42807-0.179415 1.84797 0.0598048 1.34561 0.538244 0.843248 1.01668 0.592068 1.7762 0.592068 2.81681ZM6.29745 5.8848C6.29745 5.95656 6.26754 6.08813 6.20774 6.27951 6.14794 6.47089 6.01039 6.6802 5.79509 6.90746 5.57979 7.13472 5.3047 7.25432 4.96978 7.26629 4.55116 7.26629 4.15045 7.0809 3.76771 6.7101 3.38496 6.33931 3.08593 5.85489 2.87063 5.25685 2.52377 4.31192 2.27856 3.33114 2.13503 2.31445 2.13503 2.27856 2.13503 2.21277 2.13503 2.11709 2.13503 2.02141 2.12906 1.94964 2.11709 1.90179 2.11709 1.36355 2.22474 0.99276 2.44004 0.789424 2.65534 0.586088 2.91249 0.478439 3.21152 0.466478 3.66603 0.466478 4.11457 0.663834 4.55713 1.05855 4.99969 1.45326 5.26282 1.75826 5.34655 1.97356 5.37047 2.02141 5.53194 2.66131 5.83097 3.8933 6.13 5.12528 6.28548 5.78911 6.29745 5.8848Z" transform="matrix(1 0 0 -1 338.568 14.5146)"/><path d="M5.32861 10.6931C5.32861 11.0639 5.4542 11.351 5.70538 11.5543 5.95656 11.7576 6.21372 11.8593 6.47686 11.8593 6.6802 11.8593 6.84766 11.7995 6.97923 11.6799 7.11079 11.5603 7.19452 11.3928 7.23041 11.1775 7.23041 10.8426 7.11678 10.5615 6.88952 10.3343 6.66225 10.107 6.39912 9.99339 6.10009 9.99339 5.8848 9.99339 5.70538 10.0532 5.56185 10.1728 5.41832 10.2924 5.34058 10.4658 5.32861 10.6931ZM5.16714 6.74599C5.16714 7.09285 5.01164 7.26629 4.70066 7.26629 4.43751 7.26629 4.18633 7.19452 3.94712 7.05099 3.70791 6.90746 3.49858 6.72207 3.31917 6.49481 3.13975 6.26754 2.99622 6.04627 2.88857 5.83097 2.78093 5.61568 2.67925 5.42429 2.58357 5.25685L2.45798 5.00567C2.43406 4.9937 2.33836 4.98772 2.17092 4.98772L1.91974 4.98772C1.84797 5.05949 1.81209 5.10734 1.81209 5.13126 1.81209 5.15517 1.836 5.23293 1.88385 5.36449 2.13503 5.95059 2.48789 6.50078 2.9424 7.01511 3.39691 7.52944 3.9232 7.82845 4.52125 7.91218 4.53321 7.91218 4.58105 7.91218 4.66478 7.91218 4.74851 7.91218 4.82028 7.91816 4.88008 7.93012 5.16714 7.91816 5.43029 7.85836 5.6695 7.75071 5.96853 7.58326 6.19578 7.39785 6.35127 7.19452 6.50677 6.99119 6.58451 6.67422 6.58451 6.24363L6.58451 5.95656 5.70538 2.38621C5.09537-0.00598048 4.77243-1.24992 4.73654-1.34561 4.52125-1.94365 4.10262-2.47592 3.48064-2.9424 2.85867-3.40888 2.147-3.64809 1.34561-3.66006 0.747561-3.66006 0.340888-3.53447 0.12559-3.28329-0.0897073-3.03211-0.203336-2.75701-0.215297-2.45798-0.215297-2.13503-0.101668-1.85994 0.12559-1.63267 0.352849-1.40541 0.627951-1.2858 0.950897-1.27384 1.15423-1.27384 1.32767-1.33365 1.4712-1.45326 1.61473-1.57287 1.69248-1.75826 1.70444-2.00944 1.70444-2.44004 1.51306-2.76896 1.13031-2.99622 1.20208-3.00819 1.2858-3.01416 1.38149-3.01416 1.78817-3.01416 2.15895-2.84672 2.49386-2.5118 2.82878-2.17689 3.08593-1.78218 3.26534-1.32767L3.4627-0.574127C3.59427-0.0598048 3.74976 0.562165 3.92918 1.29178 4.10859 2.02141 4.29997 2.76896 4.5033 3.53447 4.70664 4.29997 4.86811 4.96381 4.98772 5.52597 5.10734 6.08813 5.17311 6.42902 5.18508 6.54863 5.18508 6.63236 5.17911 6.69814 5.16714 6.74599Z" transform="matrix(1 0 0 -1 348.059 14.5146)"/><path d="M3.60623-0.197356C2.70916-0.197356 1.98553 0.0956877 1.43532 0.681775 0.885111 1.26786 0.610009 1.97356 0.610009 2.79887 0.610009 3.57632 0.789424 4.31192 1.14825 5.00567 1.50708 5.69941 1.99748 6.30343 2.61945 6.81775 3.52849 7.54738 4.45546 7.91218 5.40038 7.91218 5.78312 7.91218 6.02235 7.90621 6.11804 7.89424 6.27353 7.85836 6.42902 7.8165 6.58451 7.76865 6.74001 7.7208 6.94932 7.62512 7.21246 7.48159 7.47561 7.33805 7.69091 7.15864 7.85836 6.94334 8.0258 6.72805 8.1813 6.43501 8.32483 6.06421 8.46837 5.69342 8.54013 5.27479 8.54013 4.80831 8.54013 3.52849 8.0258 2.37425 6.99717 1.34561 5.96853 0.316966 4.83822-0.197356 3.60623-0.197356ZM2.17092 2.15297C2.17092 1.55493 2.32641 1.12433 2.63739 0.86119 2.94837 0.598048 3.30123 0.466478 3.69594 0.466478 4.22222 0.466478 4.7186 0.657854 5.18508 1.0406 5.65156 1.42335 6.02235 1.92571 6.29745 2.54769 6.4051 2.79887 6.54266 3.24143 6.7101 3.87535 6.87755 4.50928 6.96128 5.05949 6.96128 5.52597 6.96128 6.05224 6.85364 6.45295 6.63834 6.72805 6.35127 7.08687 5.96853 7.26629 5.49009 7.26629 4.73654 7.26629 4.07271 6.91943 3.49858 6.22568 3.05602 5.69941 2.7271 4.99969 2.5118 4.12653 2.29651 3.25338 2.18288 2.59554 2.17092 2.15297Z" transform="matrix(1 0 0 -1 355.451 14.5146)"/><path d="M0.376771 5.1492C0.388732 5.18508 0.400692 5.23293 0.412653 5.29273 0.424615 5.35253 0.454516 5.48411 0.502361 5.68744 0.550205 5.89077 0.610009 6.07618 0.681775 6.24363 0.753541 6.41107 0.843248 6.60843 0.950897 6.83569 1.05855 7.06296 1.17816 7.24237 1.30973 7.37394 1.4413 7.5055 1.59679 7.63708 1.7762 7.76865 1.95562 7.90021 2.15297 7.95404 2.36827 7.93012 2.71513 7.93012 3.02014 7.85836 3.28329 7.71483 3.54643 7.57129 3.73182 7.43973 3.83947 7.32011 3.94712 7.2005 4.01291 7.0809 4.03683 6.96128 4.06074 6.88952 4.07868 6.85364 4.09065 6.85364 4.10262 6.85364 4.15045 6.89549 4.23418 6.97923 4.80831 7.6012 5.47214 7.91218 6.22568 7.91218L6.27951 7.91218C6.85364 7.91218 7.28423 7.66698 7.57129 7.17658 7.66698 6.94932 7.71483 6.72805 7.71483 6.51275 7.71483 6.15392 7.63708 5.86686 7.48159 5.65156 7.32609 5.43626 7.17061 5.2987 7.01511 5.2389 6.85961 5.17911 6.7101 5.15517 6.56657 5.16714 6.32736 5.16714 6.13598 5.23293 5.99245 5.36449 5.84891 5.49606 5.77715 5.6695 5.77715 5.8848 5.77715 6.45892 6.11206 6.84167 6.78187 7.03305 6.51872 7.18855 6.30343 7.26629 6.13598 7.26629 5.46617 7.26629 4.85017 6.82373 4.28801 5.93862 4.16839 5.74724 4.07868 5.54988 4.01889 5.34655 3.95909 5.14322 3.75574 4.34781 3.40888 2.96034 3.0022 1.2858 2.76896 0.394712 2.70916 0.287063 2.55366-0.0358829 2.29651-0.197356 1.93768-0.197356 1.78218-0.197356 1.65659-0.161473 1.56091-0.0897073 1.46522-0.0179415 1.39943 0.0538244 1.36355 0.12559 1.32767 0.197356 1.31571 0.25716 1.32767 0.305005 1.32767 0.460498 1.56689 1.48914 2.04533 3.39093 2.52377 5.29273 2.76298 6.35127 2.76298 6.56657 2.76298 7.03305 2.60749 7.26629 2.29651 7.26629 2.04533 7.26629 1.83003 7.09884 1.65061 6.76393 1.4712 6.42902 1.32767 6.06421 1.22002 5.6695 1.11237 5.27479 1.04658 5.05949 1.02266 5.02361 0.998742 4.99969 0.903053 4.98772 0.7356 4.98772L0.484419 4.98772C0.412653 5.05949 0.376771 5.11331 0.376771 5.1492Z" transform="matrix(1 0 0 -1 364.152 14.5146)"/><path d="M1.6865 4.48536C1.6865 5.31067 1.7463 6.09412 1.86591 6.83569 1.98553 7.57727 2.12307 8.21719 2.27856 8.75543 2.43406 9.29367 2.65534 9.81995 2.9424 10.3343 3.22946 10.8486 3.45673 11.2493 3.62417 11.5364 3.79162 11.8234 4.0428 12.1344 4.37772 12.4693 4.71263 12.8042 4.90998 13.0076 4.96978 13.0793 5.02958 13.1511 5.17911 13.2767 5.41832 13.4561L5.65156 13.4561 5.72332 13.4561C5.89077 13.4561 5.9745 13.4023 5.9745 13.2946 5.9745 13.2587 5.87283 13.1331 5.6695 12.9178 5.46617 12.7025 5.22096 12.3856 4.9339 11.967 4.64684 11.5483 4.3538 11.034 4.05477 10.424 3.75574 9.81398 3.50456 8.98867 3.30123 7.94806 3.0979 6.90746 2.99622 5.75323 2.99622 4.48536 2.99622 3.21749 3.0979 2.06924 3.30123 1.0406 3.50456 0.011961 3.74976-0.819327 4.03683-1.45326 4.32389-2.08718 4.61693-2.60151 4.91596-2.99622 5.21499-3.39093 5.46617-3.70791 5.6695-3.94712 5.87283-4.18633 5.9745-4.31192 5.9745-4.32389 5.9745-4.43154 5.8848-4.48536 5.70538-4.48536L5.65156-4.48536 5.41832-4.48536 4.91596-4.05477C3.79162-3.03808 2.97231-1.77022 2.45798-0.25118 1.94365 1.26786 1.6865 2.84672 1.6865 4.48536Z" transform="matrix(1 0 0 -1 372.244 14.5146)"/><path d="M2.35033 5.18508C2.35033 5.56783 2.44601 5.95656 2.63739 6.35127 2.82878 6.74599 3.16367 7.11079 3.64212 7.4457 4.12056 7.78062 4.70066 7.94209 5.38244 7.93012 6.12401 7.93012 6.66225 7.76865 6.99717 7.4457 7.33208 7.12276 7.5055 6.76393 7.51747 6.36922 7.51747 5.98647 7.4158 5.70538 7.21246 5.52597 7.00913 5.34655 6.78187 5.25087 6.53069 5.2389 6.37519 5.2389 6.23166 5.28675 6.10009 5.38244 5.96853 5.47812 5.89676 5.63362 5.8848 5.84891 5.8848 6.0403 5.93862 6.20774 6.04627 6.35127 6.15392 6.49481 6.25559 6.60246 6.35127 6.67422 6.44696 6.74599 6.52471 6.78187 6.58451 6.78187 6.59648 6.78187 6.60246 6.78784 6.60246 6.79981 6.60246 6.83569 6.5606 6.88952 6.47686 6.96128 6.39313 7.03305 6.24363 7.09884 6.02833 7.15864 5.81303 7.21844 5.57979 7.25432 5.32861 7.26629 4.75449 7.26629 4.33586 7.11079 4.07271 6.79981 3.80956 6.48883 3.67202 6.17186 3.66006 5.84891 3.66006 5.54988 3.77368 5.34058 4.00094 5.22096 4.22821 5.10135 4.55713 4.99969 4.98772 4.91596 5.41832 4.83223 5.7293 4.74252 5.92068 4.64684 6.7101 4.29997 7.10482 3.72585 7.10482 2.92446 7.10482 2.58954 7.03902 2.25465 6.90746 1.91974 6.7759 1.58483 6.57854 1.24992 6.31539 0.915014 6.05224 0.580106 5.67547 0.316966 5.18508 0.12559 4.69469-0.0657854 4.13251-0.167454 3.49858-0.179415 2.57759-0.179415 1.92571-0.00598048 1.54297 0.340888 1.16021 0.687755 0.962859 1.09443 0.950897 1.56091 0.950897 2.02738 1.07649 2.3623 1.32767 2.56563 1.57885 2.76896 1.842 2.87063 2.11709 2.87063 2.29651 2.87063 2.46395 2.81681 2.61945 2.70916 2.77495 2.60151 2.85867 2.41612 2.87063 2.15297 2.87063 1.842 2.76298 1.57885 2.54769 1.36355 2.33239 1.14825 2.147 1.0406 1.9915 1.0406 1.96759 1.02864 1.94964 1.02266 1.93768 1.02266 1.92571 1.02266 1.91974 1.0107 1.91974 0.98678 1.9317 0.950897 1.97953 0.903053 2.06327 0.843248 2.147 0.783444 2.33239 0.705697 2.61945 0.610009 2.90652 0.514322 3.23544 0.472458 3.60623 0.484419 4.03683 0.484419 4.40762 0.550205 4.7186 0.681775 5.02958 0.813345 5.25685 0.9808 5.40038 1.18414 5.54391 1.38747 5.64558 1.57287 5.70538 1.74032 5.76518 1.90777 5.79509 2.05729 5.79509 2.18886 5.79509 2.52377 5.6695 2.77495 5.41832 2.9424 5.16714 3.10985 4.88008 3.21152 4.55713 3.2474 4.23418 3.28329 3.88133 3.37299 3.49858 3.51653 3.11584 3.66006 2.83475 3.86938 2.65534 4.14448 2.452 4.44351 2.35033 4.79037 2.35033 5.18508Z" transform="matrix(1 0 0 -1 379.223 14.5146)"/><path d="M1.39943 0.627951C1.39943 0.627951 1.39943 0.777462 1.39943 1.07649 1.39943 1.37551 1.49512 1.63267 1.6865 1.84797 1.87788 2.06327 2.13503 2.17092 2.45798 2.17092 2.79289 2.17092 3.0919 2.02141 3.35505 1.72238 3.6182 1.42335 3.75574 0.897073 3.76771 0.143532 3.76771-0.275102 3.71388-0.681775 3.60623-1.07649 3.49858-1.4712 3.37299-1.81209 3.22946-2.09915 3.08593-2.38621 2.93043-2.63142 2.76298-2.83475 2.59554-3.03808 2.452-3.19955 2.33239-3.31917 2.21277-3.43878 2.13503-3.49261 2.09915-3.48064 2.0513-3.48064 1.97356-3.42682 1.86591-3.31917 1.75826-3.21152 1.70444-3.13378 1.70444-3.08593 1.70444-3.03808 1.77022-2.9424 1.90179-2.79887 2.03336-2.65534 2.18288-2.47592 2.35033-2.26062 2.51778-2.04533 2.67328-1.7463 2.81681-1.36355 2.96034-0.9808 3.05602-0.544223 3.10387-0.0538244L3.10387 0.161473 3.08593 0.143532C3.06201 0.131571 3.03211 0.11961 2.99622 0.107649 2.96034 0.0956877 2.92446 0.0777462 2.88857 0.0538244 2.85269 0.0299025 2.79887 0.0179415 2.7271 0.0179415 2.65534 0.0179415 2.58357 0.011961 2.5118 0 2.18886 0 1.92571 0.101668 1.72238 0.305005Z" transform="matrix(1 0 0 -1 387.638 14.5146)"/><path d="M2.35033 5.18508C2.35033 5.56783 2.44601 5.95656 2.63739 6.35127 2.82878 6.74599 3.16367 7.11079 3.64212 7.4457 4.12056 7.78062 4.70066 7.94209 5.38244 7.93012 6.12401 7.93012 6.66225 7.76865 6.99717 7.4457 7.33208 7.12276 7.5055 6.76393 7.51747 6.36922 7.51747 5.98647 7.4158 5.70538 7.21246 5.52597 7.00913 5.34655 6.78187 5.25087 6.53069 5.2389 6.37519 5.2389 6.23166 5.28675 6.10009 5.38244 5.96853 5.47812 5.89676 5.63362 5.8848 5.84891 5.8848 6.0403 5.93862 6.20774 6.04627 6.35127 6.15392 6.49481 6.25559 6.60246 6.35127 6.67422 6.44696 6.74599 6.52471 6.78187 6.58451 6.78187 6.59648 6.78187 6.60246 6.78784 6.60246 6.79981 6.60246 6.83569 6.5606 6.88952 6.47686 6.96128 6.39313 7.03305 6.24363 7.09884 6.02833 7.15864 5.81303 7.21844 5.57979 7.25432 5.32861 7.26629 4.75449 7.26629 4.33586 7.11079 4.07271 6.79981 3.80956 6.48883 3.67202 6.17186 3.66006 5.84891 3.66006 5.54988 3.77368 5.34058 4.00094 5.22096 4.22821 5.10135 4.55713 4.99969 4.98772 4.91596 5.41832 4.83223 5.7293 4.74252 5.92068 4.64684 6.7101 4.29997 7.10482 3.72585 7.10482 2.92446 7.10482 2.58954 7.03902 2.25465 6.90746 1.91974 6.7759 1.58483 6.57854 1.24992 6.31539 0.915014 6.05224 0.580106 5.67547 0.316966 5.18508 0.12559 4.69469-0.0657854 4.13251-0.167454 3.49858-0.179415 2.57759-0.179415 1.92571-0.00598048 1.54297 0.340888 1.16021 0.687755 0.962859 1.09443 0.950897 1.56091 0.950897 2.02738 1.07649 2.3623 1.32767 2.56563 1.57885 2.76896 1.842 2.87063 2.11709 2.87063 2.29651 2.87063 2.46395 2.81681 2.61945 2.70916 2.77495 2.60151 2.85867 2.41612 2.87063 2.15297 2.87063 1.842 2.76298 1.57885 2.54769 1.36355 2.33239 1.14825 2.147 1.0406 1.9915 1.0406 1.96759 1.02864 1.94964 1.02266 1.93768 1.02266 1.92571 1.02266 1.91974 1.0107 1.91974 0.98678 1.9317 0.950897 1.97953 0.903053 2.06327 0.843248 2.147 0.783444 2.33239 0.705697 2.61945 0.610009 2.90652 0.514322 3.23544 0.472458 3.60623 0.484419 4.03683 0.484419 4.40762 0.550205 4.7186 0.681775 5.02958 0.813345 5.25685 0.9808 5.40038 1.18414 5.54391 1.38747 5.64558 1.57287 5.70538 1.74032 5.76518 1.90777 5.79509 2.05729 5.79509 2.18886 5.79509 2.52377 5.6695 2.77495 5.41832 2.9424 5.16714 3.10985 4.88008 3.21152 4.55713 3.2474 4.23418 3.28329 3.88133 3.37299 3.49858 3.51653 3.11584 3.66006 2.83475 3.86938 2.65534 4.14448 2.452 4.44351 2.35033 4.79037 2.35033 5.18508Z" transform="matrix(1 0 0 -1 395.616 14.5146)"/><path d="M1.00208 0.545438C0.951346 0.545438 0.837184 0.570807 0.6596 0.621546 0.482015 0.672284 0.388995 0.723023 0.380538 0.773761 0.380538 0.832956 0.613089 1.8139 1.07819 3.71659 1.5433 5.61928 1.80121 6.6129 1.85195 6.69747 1.9788 6.96807 2.19866 7.10338 2.51155 7.10338 2.68068 7.10338 2.85826 7.03996 3.04431 6.91311 3.23035 6.78627 3.32337 6.60022 3.32337 6.35499 3.32337 6.31271 3.31491 6.24929 3.298 6.16472 3.28954 6.10552 2.92168 5.16264 2.19444 3.33605 1.46719 1.50947 1.09088 0.58772 1.06551 0.570807 1.04014 0.553895 1.019 0.545438 1.00208 0.545438Z" transform="matrix(1 0 0 -1 404.623 7.10482)"/><path d="M1.07649 13.4381 1.14825 13.4561C1.20806 13.4561 1.26786 13.4561 1.32767 13.4561L1.54297 13.4561 2.04533 13.0255C3.16966 12.0088 3.98898 10.741 4.5033 9.22191 5.01763 7.70286 5.27479 6.12401 5.27479 4.48536 5.27479 3.67202 5.21499 2.88857 5.09537 2.13503 4.97576 1.38149 4.83822 0.74158 4.68272 0.215297 4.52722-0.310985 4.30595-0.837268 4.01889-1.36355 3.73182-1.88983 3.50456-2.29053 3.33711-2.56563 3.16966-2.84072 2.92446-3.14573 2.60151-3.48064 2.27856-3.81556 2.08718-4.01291 2.02738-4.07271 1.96759-4.13251 1.83003-4.24615 1.61473-4.4136 1.57885-4.44948 1.55493-4.4734 1.54297-4.48536L1.32767-4.48536C1.23198-4.48536 1.16619-4.48536 1.13031-4.48536 1.09443-4.48536 1.06453-4.46742 1.0406-4.43154 1.01668-4.39566 0.998742-4.34183 0.98678-4.27007 0.998742-4.2581 1.06453-4.18036 1.18414-4.03683 3.03808-2.11112 3.96506 0.72962 3.96506 4.48536 3.96506 8.2411 3.03808 11.0818 1.18414 13.0076 1.06453 13.1511 0.998742 13.2288 0.98678 13.2408 0.98678 13.3365 1.01668 13.4023 1.07649 13.4381Z" transform="matrix(1 0 0 -1 409.008 14.5146)"/></g></svg>